<svg version="1.1" viewBox="0.0 0.0 797.488188976378 338.90551181102364" fill="none" stroke="none" stroke-linecap="square" stroke-miterlimit="10" xmlns:xlink="http://www.w3.org/1999/xlink" xmlns="http://www.w3.org/2000/svg"><clipPath id="p.0"><path d="m0 0l797.48816 0l0 338.90552l-797.48816 0l0 -338.90552z" clip-rule="nonzero"/></clipPath><g clip-path="url(#p.0)"><path fill="#000000" fill-opacity="0.0" d="m0 0l797.48816 0l0 338.90552l-797.48816 0z" fill-rule="evenodd"/><path fill="#fff2cc" d="m16.0 40.0l90.01575 0l0 16.0l-90.01575 0z" fill-rule="evenodd"/><path stroke="#000000" stroke-width="1.0" stroke-linejoin="round" stroke-linecap="butt" d="m16.0 40.0l90.01575 0l0 16.0l-90.01575 0z" fill-rule="evenodd"/><path fill="#cfe2f3" d="m16.0 120.0l360.0 0l0 16.0l-360.0 0z" fill-rule="evenodd"/><path stroke="#000000" stroke-width="1.0" stroke-linejoin="round" stroke-linecap="butt" d="m16.0 120.0l360.0 0l0 16.0l-360.0 0z" fill-rule="evenodd"/><path fill="#cfe2f3" d="m16.0 56.0l360.0 0l0 64.0l-360.0 0z" fill-rule="evenodd"/><path stroke="#000000" stroke-width="1.0" stroke-linejoin="round" stroke-linecap="butt" d="m16.0 56.0l360.0 0l0 64.0l-360.0 0z" fill-rule="evenodd"/><path fill="#cfe2f3" d="m16.0 136.0l180.0 0l0 16.0l-180.0 0z" fill-rule="evenodd"/><path stroke="#000000" stroke-width="1.0" stroke-linejoin="round" stroke-linecap="butt" d="m16.0 136.0l180.0 0l0 16.0l-180.0 0z" fill-rule="evenodd"/><path fill="#cfe2f3" d="m16.0 152.0l360.0 0l0 16.0l-360.0 0z" fill-rule="evenodd"/><path stroke="#000000" stroke-width="1.0" stroke-linejoin="round" stroke-linecap="butt" d="m16.0 152.0l360.0 0l0 16.0l-360.0 0z" fill-rule="evenodd"/><path fill="#000000" d="m115.86755 164.8l0 -9.546875l7.078125 0l0 1.625l-5.15625 0l0 2.109375l4.796875 0l0 1.609375l-4.796875 0l0 2.59375l5.328125 0l0 1.609375l-7.25 0zm7.9991302 0l2.5 -3.5625l-2.390625 -3.34375l2.234375 0l1.21875 1.890625l1.28125 -1.890625l2.15625 0l-2.34375 3.265625l2.546875 3.640625l-2.234375 0l-1.40625 -2.140625l-1.421875 2.140625l-2.140625 0zm11.459351 -6.90625l0 1.453125l-1.25 0l0 2.78125q0 0.84375 0.03125 0.984375q0.046875 0.140625 0.171875 0.234375q0.125 0.09375 0.3125 0.09375q0.25 0 0.734375 -0.171875l0.15625 1.421875q-0.640625 0.265625 -1.453125 0.265625q-0.484375 0 -0.890625 -0.15625q-0.390625 -0.171875 -0.578125 -0.4375q-0.1875 -0.265625 -0.265625 -0.71875q-0.046875 -0.3125 -0.046875 -1.28125l0 -3.015625l-0.84375 0l0 -1.453125l0.84375 0l0 -1.375l1.828125 -1.078125l0 2.453125l1.25 0zm5.2664948 4.703125l1.828125 0.3125q-0.34375 1.0 -1.109375 1.53125q-0.765625 0.515625 -1.890625 0.515625q-1.8125 0 -2.671875 -1.171875q-0.6875 -0.953125 -0.6875 -2.390625q0 -1.71875 0.890625 -2.6875q0.90625 -0.96875 2.28125 -0.96875q1.546875 0 2.4375 1.015625q0.890625 1.015625 0.84375 3.125l-4.578125 0q0.015625 0.8125 0.4375 1.265625q0.421875 0.453125 1.0625 0.453125q0.421875 0 0.71875 -0.234375q0.296875 -0.234375 0.4375 -0.765625zm0.109375 -1.84375q-0.015625 -0.796875 -0.40625 -1.203125q-0.390625 -0.421875 -0.953125 -0.421875q-0.59375 0 -0.984375 0.4375q-0.390625 0.4375 -0.390625 1.1875l2.734375 0zm9.599976 4.046875l-1.828125 0l0 -3.53125q0 -1.109375 -0.125 -1.4375q-0.109375 -0.328125 -0.375 -0.515625q-0.265625 -0.1875 -0.640625 -0.1875q-0.46875 0 -0.859375 0.265625q-0.375 0.265625 -0.515625 0.703125q-0.140625 0.421875 -0.140625 1.578125l0 3.125l-1.828125 0l0 -6.90625l1.703125 0l0 1.015625q0.90625 -1.171875 2.28125 -1.171875q0.609375 0 1.109375 0.21875q0.5 0.21875 0.75 0.5625q0.265625 0.328125 0.359375 0.765625q0.109375 0.421875 0.109375 1.21875l0 4.296875zm5.0163574 -6.90625l0 1.453125l-1.25 0l0 2.78125q0 0.84375 0.03125 0.984375q0.046875 0.140625 0.171875 0.234375q0.125 0.09375 0.3125 0.09375q0.25 0 0.734375 -0.171875l0.15625 1.421875q-0.640625 0.265625 -1.453125 0.265625q-0.484375 0 -0.890625 -0.15625q-0.390625 -0.171875 -0.578125 -0.4375q-0.1875 -0.265625 -0.265625 -0.71875q-0.046875 -0.3125 -0.046875 -1.28125l0 -3.015625l-0.84375 0l0 -1.453125l0.84375 0l0 -1.375l1.828125 -1.078125l0 2.453125l1.25 0zm4.4069824 4.234375l0 -1.5625q0.46875 -0.015625 0.703125 -0.125q0.25 -0.125 0.421875 -0.40625q0.1875 -0.28125 0.25 -0.6875q0.046875 -0.3125 0.046875 -1.09375q0 -1.265625 0.109375 -1.765625q0.125 -0.5 0.421875 -0.796875q0.3125 -0.296875 0.90625 -0.484375q0.390625 -0.109375 1.25 -0.109375l0.34375 0l0 1.5625q-0.71875 0 -0.9375 0.078125q-0.203125 0.078125 -0.296875 0.25q-0.09375 0.15625 -0.09375 0.5625q0 0.40625 -0.0625 1.5625q-0.03125 0.640625 -0.171875 1.046875q-0.125 0.390625 -0.34375 0.65625q-0.203125 0.25 -0.640625 0.53125q0.375 0.21875 0.609375 0.515625q0.25 0.296875 0.375 0.71875q0.140625 0.421875 0.1875 1.140625q0.03125 1.078125 0.03125 1.375q0 0.4375 0.109375 0.59375q0.109375 0.171875 0.3125 0.265625q0.21875 0.09375 0.921875 0.09375l0 1.5625l-0.34375 0q-0.875 0 -1.34375 -0.140625q-0.46875 -0.140625 -0.796875 -0.46875q-0.328125 -0.328125 -0.4375 -0.8125q-0.109375 -0.46875 -0.109375 -1.5q0 -1.203125 -0.09375 -1.5625q-0.15625 -0.515625 -0.453125 -0.734375q-0.28125 -0.234375 -0.875 -0.265625zm9.0303955 -0.875q0 -0.921875 0.453125 -1.765625q0.453125 -0.859375 1.265625 -1.296875q0.828125 -0.453125 1.84375 -0.453125q1.5625 0 2.5625 1.015625q1.015625 1.015625 1.015625 2.578125q0 1.5625 -1.015625 2.59375q-1.015625 1.03125 -2.546875 1.03125q-0.953125 0 -1.8125 -0.421875q-0.859375 -0.4375 -1.3125 -1.265625q-0.453125 -0.828125 -0.453125 -2.015625zm1.875 0.09375q0 1.03125 0.484375 1.578125q0.5 0.546875 1.203125 0.546875q0.71875 0 1.203125 -0.546875q0.484375 -0.546875 0.484375 -1.59375q0 -1.015625 -0.484375 -1.5625q-0.484375 -0.546875 -1.203125 -0.546875q-0.703125 0 -1.203125 0.546875q-0.484375 0.546875 -0.484375 1.578125zm5.8913574 -3.453125l1.015625 0l0 -0.53125q0 -0.859375 0.1875 -1.28125q0.1875 -0.4375 0.671875 -0.703125q0.5 -0.28125 1.265625 -0.28125q0.78125 0 1.53125 0.234375l-0.25 1.28125q-0.4375 -0.109375 -0.84375 -0.109375q-0.390625 0 -0.5625 0.1875q-0.171875 0.1875 -0.171875 0.703125l0 0.5l1.359375 0l0 1.4375l-1.359375 0l0 5.46875l-1.828125 0l0 -5.46875l-1.015625 0l0 -1.4375zm4.4383698 0l1.015625 0l0 -0.53125q0 -0.859375 0.1875 -1.28125q0.1875 -0.4375 0.671875 -0.703125q0.5 -0.28125 1.265625 -0.28125q0.78125 0 1.53125 0.234375l-0.25 1.28125q-0.4375 -0.109375 -0.84375 -0.109375q-0.390625 0 -0.5625 0.1875q-0.171875 0.1875 -0.171875 0.703125l0 0.5l1.359375 0l0 1.4375l-1.359375 0l0 5.46875l-1.828125 0l0 -5.46875l-1.015625 0l0 -1.4375zm4.5946198 4.9375l1.828125 -0.28125q0.125 0.53125 0.484375 0.8125q0.359375 0.265625 1.0 0.265625q0.703125 0 1.0625 -0.25q0.25 -0.1875 0.25 -0.484375q0 -0.21875 -0.140625 -0.359375q-0.125 -0.125 -0.609375 -0.234375q-2.203125 -0.484375 -2.796875 -0.890625q-0.828125 -0.5625 -0.828125 -1.5625q0 -0.890625 0.703125 -1.5q0.71875 -0.609375 2.203125 -0.609375q1.421875 0 2.109375 0.46875q0.703125 0.453125 0.953125 1.359375l-1.71875 0.3125q-0.109375 -0.40625 -0.421875 -0.609375q-0.3125 -0.21875 -0.890625 -0.21875q-0.71875 0 -1.03125 0.203125q-0.203125 0.140625 -0.203125 0.359375q0 0.203125 0.1875 0.34375q0.234375 0.171875 1.6875 0.515625q1.46875 0.328125 2.0625 0.8125q0.5625 0.484375 0.5625 1.359375q0 0.953125 -0.796875 1.640625q-0.78125 0.671875 -2.34375 0.671875q-1.40625 0 -2.234375 -0.5625q-0.828125 -0.578125 -1.078125 -1.5625zm12.053101 -0.234375l1.828125 0.3125q-0.34375 1.0 -1.109375 1.53125q-0.765625 0.515625 -1.890625 0.515625q-1.8125 0 -2.671875 -1.171875q-0.6875 -0.953125 -0.6875 -2.390625q0 -1.71875 0.890625 -2.6875q0.90625 -0.96875 2.28125 -0.96875q1.546875 0 2.4375 1.015625q0.890625 1.015625 0.84375 3.125l-4.578125 0q0.015625 0.8125 0.4375 1.265625q0.421875 0.453125 1.0625 0.453125q0.421875 0 0.71875 -0.234375q0.296875 -0.234375 0.4375 -0.765625zm0.109375 -1.84375q-0.015625 -0.796875 -0.40625 -1.203125q-0.390625 -0.421875 -0.953125 -0.421875q-0.59375 0 -0.984375 0.4375q-0.390625 0.4375 -0.390625 1.1875l2.734375 0zm6.4749756 -2.859375l0 1.453125l-1.25 0l0 2.78125q0 0.84375 0.03125 0.984375q0.046875 0.140625 0.171875 0.234375q0.125 0.09375 0.3125 0.09375q0.25 0 0.734375 -0.171875l0.15625 1.421875q-0.640625 0.265625 -1.453125 0.265625q-0.484375 0 -0.890625 -0.15625q-0.390625 -0.171875 -0.578125 -0.4375q-0.1875 -0.265625 -0.265625 -0.71875q-0.046875 -0.3125 -0.046875 -1.28125l0 -3.015625l-0.84375 0l0 -1.453125l0.84375 0l0 -1.375l1.828125 -1.078125l0 2.453125l1.25 0zm1.6258698 1.828125l0 -1.828125l1.828125 0l0 1.828125l-1.828125 0zm0 5.078125l0 -1.828125l1.828125 0l0 1.828125l-1.828125 0zm13.563232 -1.703125l0 1.703125l-6.40625 0q0.109375 -0.96875 0.625 -1.828125q0.53125 -0.859375 2.0625 -2.28125q1.234375 -1.15625 1.515625 -1.5625q0.375 -0.5625 0.375 -1.125q0 -0.609375 -0.328125 -0.9375q-0.328125 -0.328125 -0.90625 -0.328125q-0.578125 0 -0.921875 0.34375q-0.328125 0.34375 -0.375 1.140625l-1.828125 -0.171875q0.15625 -1.515625 1.015625 -2.171875q0.859375 -0.65625 2.15625 -0.65625q1.40625 0 2.203125 0.765625q0.8125 0.75 0.8125 1.890625q0 0.640625 -0.234375 1.234375q-0.21875 0.578125 -0.71875 1.203125q-0.328125 0.4375 -1.203125 1.234375q-0.859375 0.78125 -1.09375 1.046875q-0.234375 0.25 -0.375 0.5l3.625 0zm1.5843506 -0.125l1.828125 0l0 1.3125q0 0.78125 -0.140625 1.234375q-0.125 0.46875 -0.515625 0.828125q-0.375 0.375 -0.953125 0.578125l-0.359375 -0.75q0.546875 -0.1875 0.78125 -0.515625q0.234375 -0.3125 0.25 -0.859375l-0.890625 0l0 -1.828125zm6.8122253 -0.140625l1.828125 -0.28125q0.125 0.53125 0.484375 0.8125q0.359375 0.265625 1.0 0.265625q0.703125 0 1.0625 -0.25q0.25 -0.1875 0.25 -0.484375q0 -0.21875 -0.140625 -0.359375q-0.125 -0.125 -0.609375 -0.234375q-2.203125 -0.484375 -2.796875 -0.890625q-0.828125 -0.5625 -0.828125 -1.5625q0 -0.890625 0.703125 -1.5q0.71875 -0.609375 2.203125 -0.609375q1.421875 0 2.109375 0.46875q0.703125 0.453125 0.953125 1.359375l-1.71875 0.3125q-0.109375 -0.40625 -0.421875 -0.609375q-0.3125 -0.21875 -0.890625 -0.21875q-0.71875 0 -1.03125 0.203125q-0.203125 0.140625 -0.203125 0.359375q0 0.203125 0.1875 0.34375q0.234375 0.171875 1.6875 0.515625q1.46875 0.328125 2.0625 0.8125q0.5625 0.484375 0.5625 1.359375q0 0.953125 -0.796875 1.640625q-0.78125 0.671875 -2.34375 0.671875q-1.40625 0 -2.234375 -0.5625q-0.828125 -0.578125 -1.078125 -1.5625zm8.053101 -5.875l0 -1.703125l1.828125 0l0 1.703125l-1.828125 0zm0 7.84375l0 -6.90625l1.828125 0l0 6.90625l-1.828125 0zm2.9686127 0l0 -1.421875l2.59375 -2.984375q0.640625 -0.71875 0.9375 -1.03125q-0.3125 0.015625 -0.828125 0.03125l-2.453125 0.015625l0 -1.515625l5.71875 0l0 1.296875l-2.640625 3.03125l-0.9375 1.015625q0.765625 -0.046875 0.953125 -0.046875l2.828125 0l0 1.609375l-6.171875 0zm11.3984375 -2.203125l1.828125 0.3125q-0.34375 1.0 -1.109375 1.53125q-0.765625 0.515625 -1.890625 0.515625q-1.8125 0 -2.671875 -1.171875q-0.6875 -0.953125 -0.6875 -2.390625q0 -1.71875 0.890625 -2.6875q0.90625 -0.96875 2.28125 -0.96875q1.546875 0 2.4375 1.015625q0.890625 1.015625 0.84375 3.125l-4.578125 0q0.015625 0.8125 0.4375 1.265625q0.421875 0.453125 1.0625 0.453125q0.421875 0 0.71875 -0.234375q0.296875 -0.234375 0.4375 -0.765625zm0.109375 -1.84375q-0.015625 -0.796875 -0.40625 -1.203125q-0.390625 -0.421875 -0.953125 -0.421875q-0.59375 0 -0.984375 0.4375q-0.390625 0.4375 -0.390625 1.1875l2.734375 0zm3.6624756 -1.03125l0 -1.828125l1.828125 0l0 1.828125l-1.828125 0zm0 5.078125l0 -1.828125l1.828125 0l0 1.828125l-1.828125 0zm10.985107 0l0 -1.921875l-3.90625 0l0 -1.59375l4.140625 -6.0625l1.53125 0l0 6.046875l1.1875 0l0 1.609375l-1.1875 0l0 1.921875l-1.765625 0zm0 -3.53125l0 -3.25l-2.203125 3.25l2.203125 0zm11.7092285 0.859375q-0.484375 0.03125 -0.734375 0.15625q-0.234375 0.109375 -0.40625 0.390625q-0.171875 0.265625 -0.234375 0.6875q-0.0625 0.3125 -0.0625 1.078125q0 1.265625 -0.109375 1.765625q-0.109375 0.5 -0.421875 0.796875q-0.296875 0.3125 -0.890625 0.484375q-0.40625 0.125 -1.25 0.125l-0.34375 0l0 -1.5625q0.6875 0 0.90625 -0.09375q0.21875 -0.09375 0.3125 -0.265625q0.109375 -0.15625 0.109375 -0.5625q0 -0.390625 0.046875 -1.5q0.046875 -0.6875 0.1875 -1.09375q0.140625 -0.40625 0.375 -0.6875q0.234375 -0.28125 0.609375 -0.5q-0.484375 -0.3125 -0.703125 -0.609375q-0.3125 -0.421875 -0.421875 -1.09375q-0.0625 -0.453125 -0.09375 -2.0q-0.015625 -0.484375 -0.09375 -0.640625q-0.078125 -0.171875 -0.296875 -0.25q-0.203125 -0.09375 -0.9375 -0.09375l0 -1.5625l0.34375 0q0.875 0 1.34375 0.140625q0.46875 0.125 0.78125 0.46875q0.328125 0.328125 0.4375 0.8125q0.109375 0.46875 0.109375 1.5q0 1.1875 0.109375 1.546875q0.140625 0.515625 0.421875 0.75q0.296875 0.21875 0.90625 0.25l0 1.5625z" fill-rule="nonzero"/><path fill="#fff2cc" d="m106.0 40.0l90.01575 0l0 16.0l-90.01575 0z" fill-rule="evenodd"/><path stroke="#000000" stroke-width="1.0" stroke-linejoin="round" stroke-linecap="butt" d="m106.0 40.0l90.01575 0l0 16.0l-90.01575 0z" fill-rule="evenodd"/><path fill="#fff2cc" d="m196.0 40.0l180.0 0l0 16.0l-180.0 0z" fill-rule="evenodd"/><path stroke="#000000" stroke-width="1.0" stroke-linejoin="round" stroke-linecap="butt" d="m196.0 40.0l180.0 0l0 16.0l-180.0 0z" fill-rule="evenodd"/><path fill="#cfe2f3" d="m196.0 136.0l90.01575 0l0 16.0l-90.01575 0z" fill-rule="evenodd"/><path stroke="#000000" stroke-width="1.0" stroke-linejoin="round" stroke-linecap="butt" d="m196.0 136.0l90.01575 0l0 16.0l-90.01575 0z" fill-rule="evenodd"/><path fill="#000000" d="m210.78912 146.53563l1.640625 0.28125q-0.3125 0.90625 -1.0 1.375q-0.6875 0.46875 -1.703125 0.46875q-1.625 0 -2.40625 -1.0625q-0.625 -0.84375 -0.625 -2.140625q0 -1.546875 0.8125 -2.421875q0.8125 -0.875 2.046875 -0.875q1.390625 0 2.1875 0.921875q0.8125 0.90625 0.765625 2.796875l-4.125 0q0.03125 0.734375 0.40625 1.140625q0.375 0.40625 0.953125 0.40625q0.375 0 0.640625 -0.203125q0.265625 -0.21875 0.40625 -0.6875zm0.09375 -1.65625q-0.015625 -0.71875 -0.375 -1.09375q-0.34375 -0.375 -0.859375 -0.375q-0.53125 0 -0.890625 0.390625q-0.34375 0.40625 -0.34375 1.078125l2.46875 0zm2.1894531 3.640625l2.234375 -3.203125l-2.140625 -3.015625l2.0 0l1.109375 1.703125l1.15625 -1.703125l1.9375 0l-2.109375 2.9375l2.296875 3.28125l-2.015625 0l-1.265625 -1.921875l-1.28125 1.921875l-1.921875 0zm10.314453 -6.21875l0 1.3125l-1.125 0l0 2.5q0 0.765625 0.03125 0.890625q0.03125 0.125 0.140625 0.21875q0.125 0.078125 0.28125 0.078125q0.234375 0 0.65625 -0.171875l0.140625 1.28125q-0.5625 0.25 -1.296875 0.25q-0.4375 0 -0.796875 -0.140625q-0.359375 -0.15625 -0.53125 -0.390625q-0.15625 -0.25 -0.234375 -0.640625q-0.046875 -0.296875 -0.046875 -1.171875l0 -2.703125l-0.75 0l0 -1.3125l0.75 0l0 -1.234375l1.65625 -0.96875l0 2.203125l1.125 0zm4.7460938 4.234375l1.640625 0.28125q-0.3125 0.90625 -1.0 1.375q-0.6875 0.46875 -1.703125 0.46875q-1.625 0 -2.40625 -1.0625q-0.625 -0.84375 -0.625 -2.140625q0 -1.546875 0.8125 -2.421875q0.8125 -0.875 2.046875 -0.875q1.390625 0 2.1875 0.921875q0.8125 0.90625 0.765625 2.796875l-4.125 0q0.03125 0.734375 0.40625 1.140625q0.375 0.40625 0.953125 0.40625q0.375 0 0.640625 -0.203125q0.265625 -0.21875 0.40625 -0.6875zm0.09375 -1.65625q-0.015625 -0.71875 -0.375 -1.09375q-0.34375 -0.375 -0.859375 -0.375q-0.53125 0 -0.890625 0.390625q-0.34375 0.40625 -0.34375 1.078125l2.46875 0zm8.626953 3.640625l-1.640625 0l0 -3.171875q0 -1.015625 -0.109375 -1.3125q-0.09375 -0.296875 -0.34375 -0.453125q-0.234375 -0.171875 -0.5625 -0.171875q-0.4375 0 -0.78125 0.234375q-0.328125 0.234375 -0.453125 0.625q-0.125 0.390625 -0.125 1.4375l0 2.8125l-1.65625 0l0 -6.21875l1.53125 0l0 0.90625q0.8125 -1.046875 2.0625 -1.046875q0.53125 0 0.984375 0.203125q0.453125 0.1875 0.6875 0.5q0.234375 0.296875 0.3125 0.6875q0.09375 0.375 0.09375 1.09375l0 3.875zm4.533203 -6.21875l0 1.3125l-1.125 0l0 2.5q0 0.765625 0.03125 0.890625q0.03125 0.125 0.140625 0.21875q0.125 0.078125 0.28125 0.078125q0.234375 0 0.65625 -0.171875l0.140625 1.28125q-0.5625 0.25 -1.296875 0.25q-0.4375 0 -0.796875 -0.140625q-0.359375 -0.15625 -0.53125 -0.390625q-0.15625 -0.25 -0.234375 -0.640625q-0.046875 -0.296875 -0.046875 -1.171875l0 -2.703125l-0.75 0l0 -1.3125l0.75 0l0 -1.234375l1.65625 -0.96875l0 2.203125l1.125 0zm0.55859375 4.4375l1.65625 -0.25q0.109375 0.484375 0.421875 0.734375q0.328125 0.25 0.90625 0.25q0.640625 0 0.953125 -0.234375q0.21875 -0.171875 0.21875 -0.4375q0 -0.1875 -0.109375 -0.3125q-0.125 -0.125 -0.546875 -0.21875q-2.0 -0.4375 -2.53125 -0.796875q-0.734375 -0.515625 -0.734375 -1.40625q0 -0.8125 0.625 -1.359375q0.640625 -0.546875 1.984375 -0.546875q1.28125 0 1.90625 0.421875q0.625 0.40625 0.859375 1.21875l-1.5625 0.28125q-0.09375 -0.359375 -0.375 -0.546875q-0.28125 -0.203125 -0.796875 -0.203125q-0.640625 0 -0.921875 0.1875q-0.1875 0.125 -0.1875 0.328125q0 0.1875 0.15625 0.3125q0.21875 0.15625 1.53125 0.453125q1.328125 0.296875 1.84375 0.734375q0.515625 0.4375 0.515625 1.21875q0 0.859375 -0.71875 1.484375q-0.703125 0.609375 -2.109375 0.609375q-1.265625 0 -2.015625 -0.515625q-0.734375 -0.515625 -0.96875 -1.40625zm10.2265625 -3.0l0 -1.515625l6.0 0l0 1.515625l-6.0 0zm0 2.59375l0 -1.515625l6.0 0l0 1.515625l-6.0 0zm7.0078125 -2.59375l0 -1.515625l6.0 0l0 1.515625l-6.0 0zm0 2.59375l0 -1.515625l6.0 0l0 1.515625l-6.0 0zm14.560547 2.1875l-1.640625 0l0 -6.203125q-0.90625 0.84375 -2.125 1.25l0 -1.5q0.640625 -0.203125 1.390625 -0.796875q0.765625 -0.59375 1.046875 -1.375l1.328125 0l0 8.625z" fill-rule="nonzero"/><path fill="#cfe2f3" d="m286.0 136.0l90.01575 0l0 16.0l-90.01575 0z" fill-rule="evenodd"/><path stroke="#000000" stroke-width="1.0" stroke-linejoin="round" stroke-linecap="butt" d="m286.0 136.0l90.01575 0l0 16.0l-90.01575 0z" fill-rule="evenodd"/><path fill="#cccccc" d="m16.0 280.0l48.0 0l0 16.0l-48.0 0z" fill-rule="evenodd"/><path stroke="#000000" stroke-width="1.0" stroke-linejoin="round" stroke-linecap="butt" d="m16.0 280.0l48.0 0l0 16.0l-48.0 0z" fill-rule="evenodd"/><path fill="#cccccc" d="m64.0 280.0l48.0 0l0 16.0l-48.0 0z" fill-rule="evenodd"/><path stroke="#000000" stroke-width="1.0" stroke-linejoin="round" stroke-linecap="butt" d="m64.0 280.0l48.0 0l0 16.0l-48.0 0z" fill-rule="evenodd"/><path fill="#cfe2f3" d="m112.0 280.0l48.0 0l0 16.0l-48.0 0z" fill-rule="evenodd"/><path stroke="#000000" stroke-width="1.0" stroke-linejoin="round" stroke-linecap="butt" d="m112.0 280.0l48.0 0l0 16.0l-48.0 0z" fill-rule="evenodd"/><path fill="#cfe2f3" d="m160.0 280.0l48.0 0l0 16.0l-48.0 0z" fill-rule="evenodd"/><path stroke="#000000" stroke-width="1.0" stroke-linejoin="round" stroke-linecap="butt" d="m160.0 280.0l48.0 0l0 16.0l-48.0 0z" fill-rule="evenodd"/><path fill="#cfe2f3" d="m208.0 280.0l48.0 0l0 16.0l-48.0 0z" fill-rule="evenodd"/><path stroke="#000000" stroke-width="1.0" stroke-linejoin="round" stroke-linecap="butt" d="m208.0 280.0l48.0 0l0 16.0l-48.0 0z" fill-rule="evenodd"/><path fill="#cfe2f3" d="m256.0 280.0l48.0 0l0 16.0l-48.0 0z" fill-rule="evenodd"/><path stroke="#000000" stroke-width="1.0" stroke-linejoin="round" stroke-linecap="butt" d="m256.0 280.0l48.0 0l0 16.0l-48.0 0z" fill-rule="evenodd"/><path fill="#cccccc" d="m304.0 280.0l48.0 0l0 16.0l-48.0 0z" fill-rule="evenodd"/><path stroke="#000000" stroke-width="1.0" stroke-linejoin="round" stroke-linecap="butt" d="m304.0 280.0l48.0 0l0 16.0l-48.0 0z" fill-rule="evenodd"/><path fill="#cccccc" d="m352.0 280.0l48.0 0l0 16.0l-48.0 0z" fill-rule="evenodd"/><path stroke="#000000" stroke-width="1.0" stroke-linejoin="round" stroke-linecap="butt" d="m352.0 280.0l48.0 0l0 16.0l-48.0 0z" fill-rule="evenodd"/><path fill="#cccccc" d="m400.0 280.0l48.0 0l0 16.0l-48.0 0z" fill-rule="evenodd"/><path stroke="#000000" stroke-width="1.0" stroke-linejoin="round" stroke-linecap="butt" d="m400.0 280.0l48.0 0l0 16.0l-48.0 0z" fill-rule="evenodd"/><path fill="#cccccc" d="m448.0 280.0l48.0 0l0 16.0l-48.0 0z" fill-rule="evenodd"/><path stroke="#000000" stroke-width="1.0" stroke-linejoin="round" stroke-linecap="butt" d="m448.0 280.0l48.0 0l0 16.0l-48.0 0z" fill-rule="evenodd"/><path fill="#cccccc" d="m496.0 280.0l48.0 0l0 16.0l-48.0 0z" fill-rule="evenodd"/><path stroke="#000000" stroke-width="1.0" stroke-linejoin="round" stroke-linecap="butt" d="m496.0 280.0l48.0 0l0 16.0l-48.0 0z" fill-rule="evenodd"/><path fill="#cccccc" d="m544.0 280.0l48.0 0l0 16.0l-48.0 0z" fill-rule="evenodd"/><path stroke="#000000" stroke-width="1.0" stroke-linejoin="round" stroke-linecap="butt" d="m544.0 280.0l48.0 0l0 16.0l-48.0 0z" fill-rule="evenodd"/><path fill="#cccccc" d="m592.0 280.0l48.0 0l0 16.0l-48.0 0z" fill-rule="evenodd"/><path stroke="#000000" stroke-width="1.0" stroke-linejoin="round" stroke-linecap="butt" d="m592.0 280.0l48.0 0l0 16.0l-48.0 0z" fill-rule="evenodd"/><path fill="#cccccc" d="m640.0 280.0l48.0 0l0 16.0l-48.0 0z" fill-rule="evenodd"/><path stroke="#000000" stroke-width="1.0" stroke-linejoin="round" stroke-linecap="butt" d="m640.0 280.0l48.0 0l0 16.0l-48.0 0z" fill-rule="evenodd"/><path fill="#cccccc" d="m688.0 280.0l48.0 0l0 16.0l-48.0 0z" fill-rule="evenodd"/><path stroke="#000000" stroke-width="1.0" stroke-linejoin="round" stroke-linecap="butt" d="m688.0 280.0l48.0 0l0 16.0l-48.0 0z" fill-rule="evenodd"/><path fill="#cccccc" d="m736.0 280.0l48.0 0l0 16.0l-48.0 0z" fill-rule="evenodd"/><path stroke="#000000" stroke-width="1.0" stroke-linejoin="round" stroke-linecap="butt" d="m736.0 280.0l48.0 0l0 16.0l-48.0 0z" fill-rule="evenodd"/><path fill="#000000" fill-opacity="0.0" d="m112.0 272.0c0 -4.418274 0.59693146 -8.0 1.3332825 -8.0l93.333435 0c0.73635864 0 1.3332825 -3.581726 1.3332825 -8.0l0 0c0 4.418274 0.5969238 8.0 1.3332825 8.0l93.333435 0l0 0c0.73635864 0 1.3332825 3.581726 1.3332825 8.0z" fill-rule="evenodd"/><path fill="#000000" fill-opacity="0.0" d="m112.0 272.0c0 -4.418274 0.59693146 -8.0 1.3332825 -8.0l93.333435 0c0.73635864 0 1.3332825 -3.581726 1.3332825 -8.0l0 0c0 4.418274 0.5969238 8.0 1.3332825 8.0l93.333435 0l0 0c0.73635864 0 1.3332825 3.581726 1.3332825 8.0" fill-rule="evenodd"/><path stroke="#000000" stroke-width="2.0" stroke-linejoin="round" stroke-linecap="butt" d="m112.0 272.0c0 -4.418274 0.59693146 -8.0 1.3332825 -8.0l93.333435 0c0.73635864 0 1.3332825 -3.581726 1.3332825 -8.0l0 0c0 4.418274 0.5969238 8.0 1.3332825 8.0l93.333435 0l0 0c0.73635864 0 1.3332825 3.581726 1.3332825 8.0" fill-rule="evenodd"/><path fill="#000000" fill-opacity="0.0" d="m376.0 160.0l25.000092 0l0 52.00032l-193.00009 0l0 43.99968" fill-rule="evenodd"/><path stroke="#000000" stroke-width="2.0" stroke-linejoin="round" stroke-linecap="butt" d="m376.0 160.0l25.000092 0l0 52.000336l-193.00009 0l0 31.999664" fill-rule="evenodd"/><path fill="#000000" stroke="#000000" stroke-width="2.0" stroke-linecap="butt" d="m204.69653 244.0l3.3034668 9.076202l3.3034668 -9.076202z" fill-rule="evenodd"/><path fill="#000000" fill-opacity="0.0" d="m8.0 0l224.0 0l0 16.0l-224.0 0z" fill-rule="evenodd"/><path fill="#000000" d="m18.28125 24.919998l0 -13.359375l2.6875 0l0 13.359375l-2.6875 0zm14.042679 0l-2.5625 0l0 -4.9375q0 -1.5625 -0.171875 -2.015625q-0.15625 -0.46875 -0.53125 -0.71875q-0.359375 -0.265625 -0.875 -0.265625q-0.671875 0 -1.203125 0.375q-0.53125 0.359375 -0.734375 0.96875q-0.1875 0.59375 -0.1875 2.21875l0 4.375l-2.546875 0l0 -9.671875l2.375 0l0 1.421875q1.265625 -1.640625 3.1875 -1.640625q0.84375 0 1.546875 0.3125q0.703125 0.296875 1.0625 0.78125q0.359375 0.46875 0.5 1.078125q0.140625 0.59375 0.140625 1.703125l0 6.015625zm2.0053558 -4.96875q0 -1.28125 0.625 -2.46875q0.625 -1.203125 1.78125 -1.828125q1.15625 -0.625 2.578125 -0.625q2.1875 0 3.59375 1.421875q1.40625 1.421875 1.40625 3.609375q0 2.1875 -1.421875 3.640625q-1.421875 1.4375 -3.5625 1.4375q-1.328125 0 -2.546875 -0.59375q-1.203125 -0.609375 -1.828125 -1.765625q-0.625 -1.171875 -0.625 -2.828125zm2.625 0.125q0 1.453125 0.671875 2.21875q0.6875 0.75 1.6875 0.75q1.0 0 1.671875 -0.75q0.6875 -0.765625 0.6875 -2.234375q0 -1.421875 -0.6875 -2.1875q-0.671875 -0.765625 -1.671875 -0.765625q-1.0 0 -1.6875 0.765625q-0.671875 0.765625 -0.671875 2.203125zm18.23973 4.84375l-2.390625 0l0 -1.421875q-0.59375 0.828125 -1.40625 1.234375q-0.796875 0.40625 -1.609375 0.40625q-1.671875 0 -2.859375 -1.34375q-1.1875 -1.34375 -1.1875 -3.75q0 -2.453125 1.15625 -3.734375q1.15625 -1.28125 2.921875 -1.28125q1.625 0 2.8125 1.34375l0 -4.8125l2.5625 0l0 13.359375zm-6.84375 -5.046875q0 1.546875 0.4375 2.234375q0.609375 1.015625 1.71875 1.015625q0.890625 0 1.5 -0.75q0.625 -0.765625 0.625 -2.25q0 -1.671875 -0.609375 -2.40625q-0.59375 -0.734375 -1.53125 -0.734375q-0.90625 0 -1.53125 0.734375q-0.609375 0.71875 -0.609375 2.15625zm14.958481 1.96875l2.546875 0.421875q-0.484375 1.40625 -1.546875 2.140625q-1.0625 0.734375 -2.65625 0.734375q-2.515625 0 -3.734375 -1.65625q-0.953125 -1.3125 -0.953125 -3.328125q0 -2.40625 1.25 -3.765625q1.265625 -1.359375 3.1875 -1.359375q2.15625 0 3.40625 1.421875q1.25 1.421875 1.1875 4.375l-6.40625 0q0.03125 1.140625 0.609375 1.78125q0.59375 0.625 1.484375 0.625q0.59375 0 1.0 -0.328125q0.421875 -0.328125 0.625 -1.0625zm0.15625 -2.59375q-0.03125 -1.109375 -0.578125 -1.6875q-0.546875 -0.578125 -1.328125 -0.578125q-0.84375 0 -1.390625 0.609375q-0.546875 0.609375 -0.53125 1.65625l3.828125 0z" fill-rule="nonzero"/><path fill="#000000" fill-opacity="0.0" d="m8.0 296.0l208.0 0l0 24.0l-208.0 0z" fill-rule="evenodd"/><path fill="#000000" d="m18.34375 309.5606l4.9375 0q1.65625 0 2.53125 0.265625q1.1875 0.34375 2.015625 1.234375q0.84375 0.875 1.28125 2.15625q0.4375 1.28125 0.4375 3.15625q0 1.640625 -0.40625 2.84375q-0.5 1.453125 -1.4375 2.359375q-0.703125 0.671875 -1.890625 1.0625q-0.890625 0.28125 -2.390625 0.28125l-5.078125 0l0 -13.359375zm2.703125 2.265625l0 8.84375l2.015625 0q1.125 0 1.625 -0.125q0.65625 -0.171875 1.078125 -0.5625q0.4375 -0.390625 0.703125 -1.28125q0.28125 -0.90625 0.28125 -2.453125q0 -1.546875 -0.28125 -2.375q-0.265625 -0.828125 -0.765625 -1.28125q-0.484375 -0.46875 -1.234375 -0.640625q-0.5625 -0.125 -2.21875 -0.125l-1.203125 0zm12.676071 4.375l-2.328125 -0.421875q0.40625 -1.40625 1.359375 -2.078125q0.953125 -0.671875 2.84375 -0.671875q1.703125 0 2.546875 0.40625q0.84375 0.40625 1.171875 1.03125q0.34375 0.625 0.34375 2.28125l-0.015625 3.0q0 1.265625 0.109375 1.875q0.125 0.609375 0.46875 1.296875l-2.53125 0q-0.109375 -0.25 -0.25 -0.75q-0.0625 -0.234375 -0.09375 -0.3125q-0.65625 0.640625 -1.40625 0.96875q-0.734375 0.3125 -1.59375 0.3125q-1.484375 0 -2.34375 -0.8125q-0.859375 -0.8125 -0.859375 -2.046875q0 -0.828125 0.390625 -1.46875q0.390625 -0.640625 1.09375 -0.96875q0.703125 -0.34375 2.03125 -0.609375q1.796875 -0.328125 2.484375 -0.625l0 -0.25q0 -0.75 -0.359375 -1.0625q-0.359375 -0.3125 -1.375 -0.3125q-0.6875 0 -1.078125 0.28125q-0.375 0.265625 -0.609375 0.9375zm3.421875 2.078125q-0.484375 0.15625 -1.5625 0.390625q-1.0625 0.21875 -1.390625 0.4375q-0.5 0.359375 -0.5 0.90625q0 0.53125 0.40625 0.9375q0.40625 0.390625 1.015625 0.390625q0.703125 0 1.328125 -0.46875q0.46875 -0.34375 0.609375 -0.84375q0.09375 -0.328125 0.09375 -1.25l0 -0.5zm9.485092 -5.03125l0 2.03125l-1.75 0l0 3.90625q0 1.1875 0.046875 1.390625q0.046875 0.1875 0.21875 0.3125q0.1875 0.125 0.4375 0.125q0.359375 0 1.03125 -0.25l0.21875 2.0q-0.890625 0.375 -2.015625 0.375q-0.703125 0 -1.265625 -0.234375q-0.546875 -0.234375 -0.8125 -0.59375q-0.25 -0.375 -0.34375 -1.0q-0.09375 -0.453125 -0.09375 -1.8125l0 -4.21875l-1.171875 0l0 -2.03125l1.171875 0l0 -1.921875l2.578125 -1.5l0 3.421875l1.75 0zm3.681427 2.953125l-2.328125 -0.421875q0.40625 -1.40625 1.359375 -2.078125q0.953125 -0.671875 2.84375 -0.671875q1.703125 0 2.546875 0.40625q0.84375 0.40625 1.171875 1.03125q0.34375 0.625 0.34375 2.28125l-0.015625 3.0q0 1.265625 0.109375 1.875q0.125 0.609375 0.46875 1.296875l-2.53125 0q-0.109375 -0.25 -0.25 -0.75q-0.0625 -0.234375 -0.09375 -0.3125q-0.65625 0.640625 -1.40625 0.96875q-0.734375 0.3125 -1.59375 0.3125q-1.484375 0 -2.34375 -0.8125q-0.859375 -0.8125 -0.859375 -2.046875q0 -0.828125 0.390625 -1.46875q0.390625 -0.640625 1.09375 -0.96875q0.703125 -0.34375 2.03125 -0.609375q1.796875 -0.328125 2.484375 -0.625l0 -0.25q0 -0.75 -0.359375 -1.0625q-0.359375 -0.3125 -1.375 -0.3125q-0.6875 0 -1.078125 0.28125q-0.375 0.265625 -0.609375 0.9375zm3.421875 2.078125q-0.484375 0.15625 -1.5625 0.390625q-1.0625 0.21875 -1.390625 0.4375q-0.5 0.359375 -0.5 0.90625q0 0.53125 0.40625 0.9375q0.40625 0.390625 1.015625 0.390625q0.703125 0 1.328125 -0.46875q0.46875 -0.34375 0.609375 -0.84375q0.09375 -0.328125 0.09375 -1.25l0 -0.5zm10.246521 -8.71875l5.34375 0q1.59375 0 2.359375 0.140625q0.78125 0.125 1.390625 0.546875q0.625 0.421875 1.03125 1.125q0.40625 0.6875 0.40625 1.546875q0 0.9375 -0.5 1.734375q-0.5 0.78125 -1.375 1.171875q1.21875 0.359375 1.875 1.21875q0.65625 0.84375 0.65625 2.0q0 0.921875 -0.421875 1.78125q-0.421875 0.859375 -1.15625 1.375q-0.734375 0.515625 -1.796875 0.625q-0.6875 0.078125 -3.265625 0.09375l-4.546875 0l0 -13.359375zm2.703125 2.234375l0 3.078125l1.765625 0q1.578125 0 1.953125 -0.046875q0.703125 -0.078125 1.09375 -0.46875q0.40625 -0.40625 0.40625 -1.046875q0 -0.625 -0.34375 -1.0q-0.34375 -0.390625 -1.015625 -0.484375q-0.40625 -0.03125 -2.3125 -0.03125l-1.546875 0zm0 5.296875l0 3.578125l2.5 0q1.453125 0 1.84375 -0.078125q0.609375 -0.109375 0.984375 -0.53125q0.375 -0.421875 0.375 -1.140625q0 -0.59375 -0.296875 -1.015625q-0.28125 -0.421875 -0.84375 -0.609375q-0.546875 -0.203125 -2.390625 -0.203125l-2.171875 0zm10.754196 5.828125l0 -13.359375l2.5625 0l0 13.359375l-2.5625 0zm4.589554 -4.96875q0 -1.28125 0.625 -2.46875q0.625 -1.203125 1.78125 -1.828125q1.15625 -0.625 2.578125 -0.625q2.1875 0 3.59375 1.421875q1.40625 1.421875 1.40625 3.609375q0 2.1875 -1.421875 3.640625q-1.421875 1.4375 -3.5625 1.4375q-1.328125 0 -2.546875 -0.59375q-1.203125 -0.609375 -1.828125 -1.765625q-0.625 -1.171875 -0.625 -2.828125zm2.625 0.125q0 1.453125 0.671875 2.21875q0.6875 0.75 1.6875 0.75q1.0 0 1.671875 -0.75q0.6875 -0.765625 0.6875 -2.234375q0 -1.421875 -0.6875 -2.1875q-0.671875 -0.765625 -1.671875 -0.765625q-1.0 0 -1.6875 0.765625q-0.671875 0.765625 -0.671875 2.203125zm17.80223 -1.96875l-2.53125 0.453125q-0.125 -0.75 -0.578125 -1.125q-0.453125 -0.390625 -1.171875 -0.390625q-0.953125 0 -1.53125 0.65625q-0.5625 0.65625 -0.5625 2.203125q0 1.734375 0.578125 2.4375q0.578125 0.703125 1.546875 0.703125q0.734375 0 1.203125 -0.40625q0.46875 -0.421875 0.65625 -1.421875l2.515625 0.421875q-0.390625 1.734375 -1.515625 2.625q-1.109375 0.875 -2.96875 0.875q-2.125 0 -3.390625 -1.328125q-1.25 -1.34375 -1.25 -3.71875q0 -2.390625 1.265625 -3.71875q1.265625 -1.34375 3.421875 -1.34375q1.765625 0 2.796875 0.765625q1.046875 0.75 1.515625 2.3125zm1.8444672 6.8125l0 -13.359375l2.5625 0l0 7.09375l3.0 -3.40625l3.140625 0l-3.296875 3.53125l3.53125 6.140625l-2.75 0l-2.4375 -4.34375l-1.1875 1.25l0 3.09375l-2.5625 0zm9.563217 -2.765625l2.5625 -0.390625q0.171875 0.75 0.671875 1.140625q0.5 0.390625 1.40625 0.390625q0.984375 0 1.484375 -0.375q0.34375 -0.25 0.34375 -0.671875q0 -0.296875 -0.1875 -0.484375q-0.1875 -0.1875 -0.859375 -0.34375q-3.09375 -0.6875 -3.921875 -1.25q-1.140625 -0.78125 -1.140625 -2.171875q0 -1.265625 0.984375 -2.109375q1.0 -0.859375 3.078125 -0.859375q1.984375 0 2.953125 0.65625q0.96875 0.640625 1.328125 1.90625l-2.40625 0.4375q-0.15625 -0.5625 -0.59375 -0.859375q-0.421875 -0.296875 -1.234375 -0.296875q-1.0 0 -1.4375 0.28125q-0.296875 0.203125 -0.296875 0.515625q0 0.265625 0.25 0.46875q0.34375 0.25 2.390625 0.71875q2.046875 0.453125 2.859375 1.140625q0.796875 0.671875 0.796875 1.890625q0 1.34375 -1.109375 2.296875q-1.109375 0.953125 -3.28125 0.953125q-1.984375 0 -3.140625 -0.796875q-1.140625 -0.8125 -1.5 -2.1875z" fill-rule="nonzero"/></g></svg>