<svg version="1.1" viewBox="0.0 0.0 542.2650918635171 100.0" fill="none" stroke="none" stroke-linecap="square" stroke-miterlimit="10" xmlns:xlink="http://www.w3.org/1999/xlink" xmlns="http://www.w3.org/2000/svg"><clipPath id="p.0"><path d="m0 0l542.2651 0l0 100.0l-542.2651 0l0 -100.0z" clip-rule="nonzero"/></clipPath><g clip-path="url(#p.0)"><path fill="#000000" fill-opacity="0.0" d="m0 0l542.2651 0l0 100.0l-542.2651 0z" fill-rule="evenodd"/><path fill="#b7b7b7" d="m16.0 16.0l16.0 0l0 64.0l-16.0 0z" fill-rule="evenodd"/><path stroke="#000000" stroke-width="1.0" stroke-linejoin="round" stroke-linecap="butt" d="m16.0 16.0l16.0 0l0 64.0l-16.0 0z" fill-rule="evenodd"/><path fill="#b7b7b7" d="m32.0 16.0l16.0 0l0 64.0l-16.0 0z" fill-rule="evenodd"/><path stroke="#000000" stroke-width="1.0" stroke-linejoin="round" stroke-linecap="butt" d="m32.0 16.0l16.0 0l0 64.0l-16.0 0z" fill-rule="evenodd"/><path fill="#b7b7b7" d="m48.0 16.0l16.0 0l0 64.0l-16.0 0z" fill-rule="evenodd"/><path stroke="#000000" stroke-width="1.0" stroke-linejoin="round" stroke-linecap="butt" d="m48.0 16.0l16.0 0l0 64.0l-16.0 0z" fill-rule="evenodd"/><path fill="#b7b7b7" d="m64.0 16.0l16.0 0l0 64.0l-16.0 0z" fill-rule="evenodd"/><path stroke="#000000" stroke-width="1.0" stroke-linejoin="round" stroke-linecap="butt" d="m64.0 16.0l16.0 0l0 64.0l-16.0 0z" fill-rule="evenodd"/><path fill="#cfe2f3" d="m80.0 16.0l16.0 0l0 64.0l-16.0 0z" fill-rule="evenodd"/><path stroke="#000000" stroke-width="1.0" stroke-linejoin="round" stroke-linecap="butt" d="m80.0 16.0l16.0 0l0 64.0l-16.0 0z" fill-rule="evenodd"/><path fill="#cfe2f3" d="m96.0 16.0l16.0 0l0 64.0l-16.0 0z" fill-rule="evenodd"/><path stroke="#000000" stroke-width="1.0" stroke-linejoin="round" stroke-linecap="butt" d="m96.0 16.0l16.0 0l0 64.0l-16.0 0z" fill-rule="evenodd"/><path fill="#b7b7b7" d="m112.0 16.0l16.0 0l0 64.0l-16.0 0z" fill-rule="evenodd"/><path stroke="#000000" stroke-width="1.0" stroke-linejoin="round" stroke-linecap="butt" d="m112.0 16.0l16.0 0l0 64.0l-16.0 0z" fill-rule="evenodd"/><path fill="#b7b7b7" d="m128.0 16.0l16.0 0l0 64.0l-16.0 0z" fill-rule="evenodd"/><path stroke="#000000" stroke-width="1.0" stroke-linejoin="round" stroke-linecap="butt" d="m128.0 16.0l16.0 0l0 64.0l-16.0 0z" fill-rule="evenodd"/><path fill="#cfe2f3" d="m144.0 16.0l16.0 0l0 64.0l-16.0 0z" fill-rule="evenodd"/><path stroke="#000000" stroke-width="1.0" stroke-linejoin="round" stroke-linecap="butt" d="m144.0 16.0l16.0 0l0 64.0l-16.0 0z" fill-rule="evenodd"/><path fill="#b7b7b7" d="m160.0 16.0l16.0 0l0 64.0l-16.0 0z" fill-rule="evenodd"/><path stroke="#000000" stroke-width="1.0" stroke-linejoin="round" stroke-linecap="butt" d="m160.0 16.0l16.0 0l0 64.0l-16.0 0z" fill-rule="evenodd"/><path fill="#cfe2f3" d="m176.0 16.0l16.0 0l0 64.0l-16.0 0z" fill-rule="evenodd"/><path stroke="#000000" stroke-width="1.0" stroke-linejoin="round" stroke-linecap="butt" d="m176.0 16.0l16.0 0l0 64.0l-16.0 0z" fill-rule="evenodd"/><path fill="#cfe2f3" d="m192.0 16.0l16.0 0l0 64.0l-16.0 0z" fill-rule="evenodd"/><path stroke="#000000" stroke-width="1.0" stroke-linejoin="round" stroke-linecap="butt" d="m192.0 16.0l16.0 0l0 64.0l-16.0 0z" fill-rule="evenodd"/><path fill="#cfe2f3" d="m208.0 16.0l16.0 0l0 64.0l-16.0 0z" fill-rule="evenodd"/><path stroke="#000000" stroke-width="1.0" stroke-linejoin="round" stroke-linecap="butt" d="m208.0 16.0l16.0 0l0 64.0l-16.0 0z" fill-rule="evenodd"/><path fill="#cfe2f3" d="m224.0 16.0l16.0 0l0 64.0l-16.0 0z" fill-rule="evenodd"/><path stroke="#000000" stroke-width="1.0" stroke-linejoin="round" stroke-linecap="butt" d="m224.0 16.0l16.0 0l0 64.0l-16.0 0z" fill-rule="evenodd"/><path fill="#cfe2f3" d="m240.0 16.0l16.0 0l0 64.0l-16.0 0z" fill-rule="evenodd"/><path stroke="#000000" stroke-width="1.0" stroke-linejoin="round" stroke-linecap="butt" d="m240.0 16.0l16.0 0l0 64.0l-16.0 0z" fill-rule="evenodd"/><path fill="#cfe2f3" d="m256.0 16.0l16.0 0l0 64.0l-16.0 0z" fill-rule="evenodd"/><path stroke="#000000" stroke-width="1.0" stroke-linejoin="round" stroke-linecap="butt" d="m256.0 16.0l16.0 0l0 64.0l-16.0 0z" fill-rule="evenodd"/><path fill="#b7b7b7" d="m272.0 16.0l16.0 0l0 64.0l-16.0 0z" fill-rule="evenodd"/><path stroke="#000000" stroke-width="1.0" stroke-linejoin="round" stroke-linecap="butt" d="m272.0 16.0l16.0 0l0 64.0l-16.0 0z" fill-rule="evenodd"/><path fill="#b7b7b7" d="m288.0 16.0l16.0 0l0 64.0l-16.0 0z" fill-rule="evenodd"/><path stroke="#000000" stroke-width="1.0" stroke-linejoin="round" stroke-linecap="butt" d="m288.0 16.0l16.0 0l0 64.0l-16.0 0z" fill-rule="evenodd"/><path fill="#b7b7b7" d="m304.0 16.0l16.0 0l0 64.0l-16.0 0z" fill-rule="evenodd"/><path stroke="#000000" stroke-width="1.0" stroke-linejoin="round" stroke-linecap="butt" d="m304.0 16.0l16.0 0l0 64.0l-16.0 0z" fill-rule="evenodd"/><path fill="#b7b7b7" d="m320.0 16.0l16.0 0l0 64.0l-16.0 0z" fill-rule="evenodd"/><path stroke="#000000" stroke-width="1.0" stroke-linejoin="round" stroke-linecap="butt" d="m320.0 16.0l16.0 0l0 64.0l-16.0 0z" fill-rule="evenodd"/><path fill="#cfe2f3" d="m336.0 16.0l16.0 0l0 64.0l-16.0 0z" fill-rule="evenodd"/><path stroke="#000000" stroke-width="1.0" stroke-linejoin="round" stroke-linecap="butt" d="m336.0 16.0l16.0 0l0 64.0l-16.0 0z" fill-rule="evenodd"/><path fill="#cfe2f3" d="m352.0 16.0l16.0 0l0 64.0l-16.0 0z" fill-rule="evenodd"/><path stroke="#000000" stroke-width="1.0" stroke-linejoin="round" stroke-linecap="butt" d="m352.0 16.0l16.0 0l0 64.0l-16.0 0z" fill-rule="evenodd"/><path fill="#cfe2f3" d="m368.0 16.0l16.0 0l0 64.0l-16.0 0z" fill-rule="evenodd"/><path stroke="#000000" stroke-width="1.0" stroke-linejoin="round" stroke-linecap="butt" d="m368.0 16.0l16.0 0l0 64.0l-16.0 0z" fill-rule="evenodd"/><path fill="#cfe2f3" d="m384.0 16.0l16.0 0l0 64.0l-16.0 0z" fill-rule="evenodd"/><path stroke="#000000" stroke-width="1.0" stroke-linejoin="round" stroke-linecap="butt" d="m384.0 16.0l16.0 0l0 64.0l-16.0 0z" fill-rule="evenodd"/><path fill="#cfe2f3" d="m400.0 16.0l16.0 0l0 64.0l-16.0 0z" fill-rule="evenodd"/><path stroke="#000000" stroke-width="1.0" stroke-linejoin="round" stroke-linecap="butt" d="m400.0 16.0l16.0 0l0 64.0l-16.0 0z" fill-rule="evenodd"/><path fill="#cfe2f3" d="m416.0 16.0l16.0 0l0 64.0l-16.0 0z" fill-rule="evenodd"/><path stroke="#000000" stroke-width="1.0" stroke-linejoin="round" stroke-linecap="butt" d="m416.0 16.0l16.0 0l0 64.0l-16.0 0z" fill-rule="evenodd"/><path fill="#cfe2f3" d="m432.0 16.0l16.0 0l0 64.0l-16.0 0z" fill-rule="evenodd"/><path stroke="#000000" stroke-width="1.0" stroke-linejoin="round" stroke-linecap="butt" d="m432.0 16.0l16.0 0l0 64.0l-16.0 0z" fill-rule="evenodd"/><path fill="#cfe2f3" d="m448.0 16.0l16.0 0l0 64.0l-16.0 0z" fill-rule="evenodd"/><path stroke="#000000" stroke-width="1.0" stroke-linejoin="round" stroke-linecap="butt" d="m448.0 16.0l16.0 0l0 64.0l-16.0 0z" fill-rule="evenodd"/><path fill="#cfe2f3" d="m464.0 16.0l16.0 0l0 64.0l-16.0 0z" fill-rule="evenodd"/><path stroke="#000000" stroke-width="1.0" stroke-linejoin="round" stroke-linecap="butt" d="m464.0 16.0l16.0 0l0 64.0l-16.0 0z" fill-rule="evenodd"/><path fill="#cfe2f3" d="m480.0 16.0l16.0 0l0 64.0l-16.0 0z" fill-rule="evenodd"/><path stroke="#000000" stroke-width="1.0" stroke-linejoin="round" stroke-linecap="butt" d="m480.0 16.0l16.0 0l0 64.0l-16.0 0z" fill-rule="evenodd"/><path fill="#cfe2f3" d="m496.0 16.0l16.0 0l0 64.0l-16.0 0z" fill-rule="evenodd"/><path stroke="#000000" stroke-width="1.0" stroke-linejoin="round" stroke-linecap="butt" d="m496.0 16.0l16.0 0l0 64.0l-16.0 0z" fill-rule="evenodd"/><path fill="#cfe2f3" d="m512.0 16.0l16.0 0l0 64.0l-16.0 0z" fill-rule="evenodd"/><path stroke="#000000" stroke-width="1.0" stroke-linejoin="round" stroke-linecap="butt" d="m512.0 16.0l16.0 0l0 64.0l-16.0 0z" fill-rule="evenodd"/></g></svg>