<svg version="1.1" viewBox="0.0 0.0 542.5643044619422 100.0" fill="none" stroke="none" stroke-linecap="square" stroke-miterlimit="10" xmlns:xlink="http://www.w3.org/1999/xlink" xmlns="http://www.w3.org/2000/svg"><clipPath id="p.0"><path d="m0 0l542.56433 0l0 100.0l-542.56433 0l0 -100.0z" clip-rule="nonzero"/></clipPath><g clip-path="url(#p.0)"><path fill="#000000" fill-opacity="0.0" d="m0 0l542.56433 0l0 100.0l-542.56433 0z" fill-rule="evenodd"/><path fill="#cfe2f3" d="m152.0 56.0l376.0 0l0 40.0l-376.0 0z" fill-rule="evenodd"/><path stroke="#000000" stroke-width="1.0" stroke-linejoin="round" stroke-linecap="butt" d="m152.0 56.0l376.0 0l0 40.0l-376.0 0z" fill-rule="evenodd"/><path fill="#000000" d="m299.4973 80.8l0 -9.546875l7.078125 0l0 1.625l-5.15625 0l0 2.109375l4.796875 0l0 1.609375l-4.796875 0l0 2.59375l5.328125 0l0 1.609375l-7.25 0zm7.999115 0l2.5 -3.5625l-2.390625 -3.34375l2.234375 0l1.21875 1.890625l1.28125 -1.890625l2.15625 0l-2.34375 3.265625l2.546875 3.640625l-2.234375 0l-1.40625 -2.140625l-1.421875 2.140625l-2.140625 0zm11.459351 -6.90625l0 1.453125l-1.25 0l0 2.78125q0 0.84375 0.03125 0.984375q0.046875 0.140625 0.171875 0.234375q0.125 0.09375 0.3125 0.09375q0.25 0 0.734375 -0.171875l0.15625 1.421875q-0.640625 0.265625 -1.453125 0.265625q-0.484375 0 -0.890625 -0.15625q-0.390625 -0.171875 -0.578125 -0.4375q-0.1875 -0.265625 -0.265625 -0.71875q-0.046875 -0.3125 -0.046875 -1.28125l0 -3.015625l-0.84375 0l0 -1.453125l0.84375 0l0 -1.375l1.828125 -1.078125l0 2.453125l1.25 0zm5.26651 4.703125l1.828125 0.3125q-0.34375 1.0 -1.109375 1.53125q-0.765625 0.515625 -1.890625 0.515625q-1.8125 0 -2.671875 -1.171875q-0.6875 -0.953125 -0.6875 -2.390625q0 -1.71875 0.890625 -2.6875q0.90625 -0.96875 2.28125 -0.96875q1.546875 0 2.4375 1.015625q0.890625 1.015625 0.84375 3.125l-4.578125 0q0.015625 0.8125 0.4375 1.265625q0.421875 0.453125 1.0625 0.453125q0.421875 0 0.71875 -0.234375q0.296875 -0.234375 0.4375 -0.765625zm0.109375 -1.84375q-0.015625 -0.796875 -0.40625 -1.203125q-0.390625 -0.421875 -0.953125 -0.421875q-0.59375 0 -0.984375 0.4375q-0.390625 0.4375 -0.390625 1.1875l2.734375 0zm9.599976 4.046875l-1.828125 0l0 -3.53125q0 -1.109375 -0.125 -1.4375q-0.109375 -0.328125 -0.375 -0.515625q-0.265625 -0.1875 -0.640625 -0.1875q-0.46875 0 -0.859375 0.265625q-0.375 0.265625 -0.515625 0.703125q-0.140625 0.421875 -0.140625 1.578125l0 3.125l-1.828125 0l0 -6.90625l1.703125 0l0 1.015625q0.90625 -1.171875 2.28125 -1.171875q0.609375 0 1.109375 0.21875q0.5 0.21875 0.75 0.5625q0.265625 0.328125 0.359375 0.765625q0.109375 0.421875 0.109375 1.21875l0 4.296875zm5.0163574 -6.90625l0 1.453125l-1.25 0l0 2.78125q0 0.84375 0.03125 0.984375q0.046875 0.140625 0.171875 0.234375q0.125 0.09375 0.3125 0.09375q0.25 0 0.734375 -0.171875l0.15625 1.421875q-0.640625 0.265625 -1.453125 0.265625q-0.484375 0 -0.890625 -0.15625q-0.390625 -0.171875 -0.578125 -0.4375q-0.1875 -0.265625 -0.265625 -0.71875q-0.046875 -0.3125 -0.046875 -1.28125l0 -3.015625l-0.84375 0l0 -1.453125l0.84375 0l0 -1.375l1.828125 -1.078125l0 2.453125l1.25 0zm4.5944824 2.1875q0 -1.453125 0.4375 -2.4375q0.328125 -0.734375 0.890625 -1.3125q0.5625 -0.578125 1.234375 -0.859375q0.890625 -0.375 2.046875 -0.375q2.109375 0 3.375 1.3125q1.265625 1.296875 1.265625 3.640625q0 2.296875 -1.25 3.609375q-1.25 1.296875 -3.359375 1.296875q-2.125 0 -3.390625 -1.296875q-1.25 -1.296875 -1.25 -3.578125zm1.984375 -0.0625q0 1.625 0.75 2.46875q0.75 0.828125 1.90625 0.828125q1.140625 0 1.875 -0.828125q0.75 -0.828125 0.75 -2.484375q0 -1.640625 -0.71875 -2.453125q-0.71875 -0.8125 -1.90625 -0.8125q-1.203125 0 -1.9375 0.828125q-0.71875 0.8125 -0.71875 2.453125zm7.960785 -2.125l1.015625 0l0 -0.53125q0 -0.859375 0.1875 -1.28125q0.1875 -0.4375 0.671875 -0.703125q0.5 -0.28125 1.265625 -0.28125q0.78125 0 1.53125 0.234375l-0.25 1.28125q-0.4375 -0.109375 -0.84375 -0.109375q-0.390625 0 -0.5625 0.1875q-0.171875 0.1875 -0.171875 0.703125l0 0.5l1.359375 0l0 1.4375l-1.359375 0l0 5.46875l-1.828125 0l0 -5.46875l-1.015625 0l0 -1.4375zm4.438385 0l1.015625 0l0 -0.53125q0 -0.859375 0.1875 -1.28125q0.1875 -0.4375 0.671875 -0.703125q0.5 -0.28125 1.265625 -0.28125q0.78125 0 1.53125 0.234375l-0.25 1.28125q-0.4375 -0.109375 -0.84375 -0.109375q-0.390625 0 -0.5625 0.1875q-0.171875 0.1875 -0.171875 0.703125l0 0.5l1.359375 0l0 1.4375l-1.359375 0l0 5.46875l-1.828125 0l0 -5.46875l-1.015625 0l0 -1.4375zm4.5946045 4.9375l1.828125 -0.28125q0.125 0.53125 0.484375 0.8125q0.359375 0.265625 1.0 0.265625q0.703125 0 1.0625 -0.25q0.25 -0.1875 0.25 -0.484375q0 -0.21875 -0.140625 -0.359375q-0.125 -0.125 -0.609375 -0.234375q-2.203125 -0.484375 -2.796875 -0.890625q-0.828125 -0.5625 -0.828125 -1.5625q0 -0.890625 0.703125 -1.5q0.71875 -0.609375 2.203125 -0.609375q1.421875 0 2.109375 0.46875q0.703125 0.453125 0.953125 1.359375l-1.71875 0.3125q-0.109375 -0.40625 -0.421875 -0.609375q-0.3125 -0.21875 -0.890625 -0.21875q-0.71875 0 -1.03125 0.203125q-0.203125 0.140625 -0.203125 0.359375q0 0.203125 0.1875 0.34375q0.234375 0.171875 1.6875 0.515625q1.46875 0.328125 2.0625 0.8125q0.5625 0.484375 0.5625 1.359375q0 0.953125 -0.796875 1.640625q-0.78125 0.671875 -2.34375 0.671875q-1.40625 0 -2.234375 -0.5625q-0.828125 -0.578125 -1.078125 -1.5625zm12.053101 -0.234375l1.828125 0.3125q-0.34375 1.0 -1.109375 1.53125q-0.765625 0.515625 -1.890625 0.515625q-1.8125 0 -2.671875 -1.171875q-0.6875 -0.953125 -0.6875 -2.390625q0 -1.71875 0.890625 -2.6875q0.90625 -0.96875 2.28125 -0.96875q1.546875 0 2.4375 1.015625q0.890625 1.015625 0.84375 3.125l-4.578125 0q0.015625 0.8125 0.4375 1.265625q0.421875 0.453125 1.0625 0.453125q0.421875 0 0.71875 -0.234375q0.296875 -0.234375 0.4375 -0.765625zm0.109375 -1.84375q-0.015625 -0.796875 -0.40625 -1.203125q-0.390625 -0.421875 -0.953125 -0.421875q-0.59375 0 -0.984375 0.4375q-0.390625 0.4375 -0.390625 1.1875l2.734375 0zm6.4749756 -2.859375l0 1.453125l-1.25 0l0 2.78125q0 0.84375 0.03125 0.984375q0.046875 0.140625 0.171875 0.234375q0.125 0.09375 0.3125 0.09375q0.25 0 0.734375 -0.171875l0.15625 1.421875q-0.640625 0.265625 -1.453125 0.265625q-0.484375 0 -0.890625 -0.15625q-0.390625 -0.171875 -0.578125 -0.4375q-0.1875 -0.265625 -0.265625 -0.71875q-0.046875 -0.3125 -0.046875 -1.28125l0 -3.015625l-0.84375 0l0 -1.453125l0.84375 0l0 -1.375l1.828125 -1.078125l0 2.453125l1.25 0z" fill-rule="nonzero"/><path fill="#fff2cc" d="m16.0 56.0l136.0 0l0 40.0l-136.0 0z" fill-rule="evenodd"/><path stroke="#000000" stroke-width="1.0" stroke-linejoin="round" stroke-linecap="butt" d="m16.0 56.0l136.0 0l0 40.0l-136.0 0z" fill-rule="evenodd"/><path fill="#000000" d="m49.416214 80.8l0 -9.546875l7.078125 0l0 1.625l-5.15625 0l0 2.109375l4.796875 0l0 1.609375l-4.796875 0l0 2.59375l5.328125 0l0 1.609375l-7.25 0zm7.9991302 0l2.5 -3.5625l-2.390625 -3.34375l2.234375 0l1.21875 1.890625l1.28125 -1.890625l2.15625 0l-2.34375 3.265625l2.546875 3.640625l-2.234375 0l-1.40625 -2.140625l-1.421875 2.140625l-2.140625 0zm11.459351 -6.90625l0 1.453125l-1.25 0l0 2.78125q0 0.84375 0.03125 0.984375q0.046875 0.140625 0.171875 0.234375q0.125 0.09375 0.3125 0.09375q0.25 0 0.734375 -0.171875l0.15625 1.421875q-0.640625 0.265625 -1.453125 0.265625q-0.484375 0 -0.890625 -0.15625q-0.390625 -0.171875 -0.578125 -0.4375q-0.1875 -0.265625 -0.265625 -0.71875q-0.046875 -0.3125 -0.046875 -1.28125l0 -3.015625l-0.84375 0l0 -1.453125l0.84375 0l0 -1.375l1.828125 -1.078125l0 2.453125l1.25 0zm5.2664948 4.703125l1.828125 0.3125q-0.34375 1.0 -1.109375 1.53125q-0.765625 0.515625 -1.890625 0.515625q-1.8125 0 -2.671875 -1.171875q-0.6875 -0.953125 -0.6875 -2.390625q0 -1.71875 0.890625 -2.6875q0.90625 -0.96875 2.28125 -0.96875q1.546875 0 2.4375 1.015625q0.890625 1.015625 0.84375 3.125l-4.578125 0q0.015625 0.8125 0.4375 1.265625q0.421875 0.453125 1.0625 0.453125q0.421875 0 0.71875 -0.234375q0.296875 -0.234375 0.4375 -0.765625zm0.109375 -1.84375q-0.015625 -0.796875 -0.40625 -1.203125q-0.390625 -0.421875 -0.953125 -0.421875q-0.59375 0 -0.984375 0.4375q-0.390625 0.4375 -0.390625 1.1875l2.734375 0zm9.599976 4.046875l-1.828125 0l0 -3.53125q0 -1.109375 -0.125 -1.4375q-0.109375 -0.328125 -0.375 -0.515625q-0.265625 -0.1875 -0.640625 -0.1875q-0.46875 0 -0.859375 0.265625q-0.375 0.265625 -0.515625 0.703125q-0.140625 0.421875 -0.140625 1.578125l0 3.125l-1.828125 0l0 -6.90625l1.703125 0l0 1.015625q0.90625 -1.171875 2.28125 -1.171875q0.609375 0 1.109375 0.21875q0.5 0.21875 0.75 0.5625q0.265625 0.328125 0.359375 0.765625q0.109375 0.421875 0.109375 1.21875l0 4.296875zm5.0163574 -6.90625l0 1.453125l-1.25 0l0 2.78125q0 0.84375 0.03125 0.984375q0.046875 0.140625 0.171875 0.234375q0.125 0.09375 0.3125 0.09375q0.25 0 0.734375 -0.171875l0.15625 1.421875q-0.640625 0.265625 -1.453125 0.265625q-0.484375 0 -0.890625 -0.15625q-0.390625 -0.171875 -0.578125 -0.4375q-0.1875 -0.265625 -0.265625 -0.71875q-0.046875 -0.3125 -0.046875 -1.28125l0 -3.015625l-0.84375 0l0 -1.453125l0.84375 0l0 -1.375l1.828125 -1.078125l0 2.453125l1.25 0zm4.5007324 3.796875l1.875 -0.171875q0.171875 0.9375 0.6875 1.390625q0.515625 0.4375 1.390625 0.4375q0.9375 0 1.40625 -0.390625q0.46875 -0.40625 0.46875 -0.921875q0 -0.34375 -0.203125 -0.578125q-0.1875 -0.234375 -0.6875 -0.421875q-0.34375 -0.109375 -1.546875 -0.40625q-1.546875 -0.390625 -2.171875 -0.953125q-0.875 -0.78125 -0.875 -1.921875q0 -0.71875 0.40625 -1.359375q0.421875 -0.640625 1.1875 -0.96875q0.78125 -0.328125 1.890625 -0.328125q1.796875 0 2.703125 0.796875q0.90625 0.78125 0.953125 2.09375l-1.921875 0.078125q-0.125 -0.734375 -0.53125 -1.046875q-0.40625 -0.328125 -1.234375 -0.328125q-0.828125 0 -1.3125 0.34375q-0.296875 0.21875 -0.296875 0.59375q0 0.34375 0.28125 0.578125q0.359375 0.3125 1.765625 0.640625q1.40625 0.328125 2.078125 0.6875q0.6875 0.359375 1.0625 0.96875q0.375 0.609375 0.375 1.515625q0 0.828125 -0.453125 1.546875q-0.453125 0.703125 -1.296875 1.0625q-0.828125 0.34375 -2.0625 0.34375q-1.8125 0 -2.78125 -0.828125q-0.96875 -0.84375 -1.15625 -2.453125zm9.358505 -4.734375l0 -1.703125l1.828125 0l0 1.703125l-1.828125 0zm0 7.84375l0 -6.90625l1.828125 0l0 6.90625l-1.828125 0zm2.9686127 0l0 -1.421875l2.59375 -2.984375q0.640625 -0.71875 0.9375 -1.03125q-0.3125 0.015625 -0.828125 0.03125l-2.453125 0.015625l0 -1.515625l5.71875 0l0 1.296875l-2.640625 3.03125l-0.9375 1.015625q0.765625 -0.046875 0.953125 -0.046875l2.828125 0l0 1.609375l-6.171875 0zm11.3984375 -2.203125l1.828125 0.3125q-0.34375 1.0 -1.109375 1.53125q-0.765625 0.515625 -1.890625 0.515625q-1.8125 0 -2.671875 -1.171875q-0.6875 -0.953125 -0.6875 -2.390625q0 -1.71875 0.890625 -2.6875q0.90625 -0.96875 2.28125 -0.96875q1.546875 0 2.4375 1.015625q0.890625 1.015625 0.84375 3.125l-4.578125 0q0.015625 0.8125 0.4375 1.265625q0.421875 0.453125 1.0625 0.453125q0.421875 0 0.71875 -0.234375q0.296875 -0.234375 0.4375 -0.765625zm0.109375 -1.84375q-0.015625 -0.796875 -0.40625 -1.203125q-0.390625 -0.421875 -0.953125 -0.421875q-0.59375 0 -0.984375 0.4375q-0.390625 0.4375 -0.390625 1.1875l2.734375 0z" fill-rule="nonzero"/><path fill="#000000" fill-opacity="0.0" d="m0 32.0l32.0 0l0 16.0l-32.0 0z" fill-rule="evenodd"/><path fill="#000000" d="m14.453125 47.083748q0 0.515625 -0.1875 0.9375q-0.1875 0.421875 -0.515625 0.71875q-0.328125 0.296875 -0.796875 0.46875q-0.453125 0.15625 -1.0 0.15625q-1.1875 0 -1.8125 -0.75q-0.625 -0.75 -0.625 -2.296875q0 -0.5625 0.0625 -1.0625q0.0625 -0.515625 0.21875 -0.9375q0.171875 -0.4375 0.4375 -0.78125q0.265625 -0.34375 0.65625 -0.578125q0.40625 -0.25 0.953125 -0.375q0.546875 -0.140625 1.265625 -0.140625l0.78125 0l0 1.078125l-0.90625 0q-0.5625 0 -0.9375 0.109375q-0.375 0.109375 -0.625 0.328125q-0.234375 0.21875 -0.359375 0.53125q-0.109375 0.296875 -0.15625 0.6875l0 0.125q0.265625 -0.140625 0.609375 -0.21875q0.34375 -0.078125 0.71875 -0.078125q0.5625 0 0.96875 0.140625q0.421875 0.140625 0.703125 0.421875q0.28125 0.265625 0.40625 0.65625q0.140625 0.375 0.140625 0.859375zm-1.3125 0.0625q0 -0.25 -0.0625 -0.4375q-0.0625 -0.203125 -0.203125 -0.34375q-0.125 -0.140625 -0.34375 -0.21875q-0.203125 -0.09375 -0.484375 -0.09375q-0.171875 0 -0.328125 0.03125q-0.15625 0.03125 -0.3125 0.078125q-0.15625 0.046875 -0.296875 0.109375q-0.140625 0.046875 -0.25 0.109375q0 0.53125 0.078125 0.890625q0.078125 0.359375 0.21875 0.59375q0.15625 0.21875 0.375 0.328125q0.21875 0.09375 0.5 0.09375q0.25 0 0.453125 -0.078125q0.203125 -0.078125 0.34375 -0.234375q0.15625 -0.15625 0.234375 -0.359375q0.078125 -0.21875 0.078125 -0.46875zm6.327606 0.703125l0 1.390625l-1.25 0l0 -1.390625l-3.15625 0l0 -1.078125l2.65625 -4.328125l1.75 0l0 4.296875l1.03125 0l0 1.109375l-1.03125 0zm-1.234375 -4.1875l-1.921875 3.078125l1.921875 0l0 -3.078125z" fill-rule="nonzero"/><path fill="#000000" fill-opacity="0.0" d="m512.0 32.0l32.0 0l0 16.0l-32.0 0z" fill-rule="evenodd"/><path fill="#000000" d="m526.5781 45.818123q0 0.828125 -0.1875 1.5q-0.171875 0.65625 -0.53125 1.109375q-0.34375 0.453125 -0.859375 0.703125q-0.5 0.234375 -1.140625 0.234375q-0.5625 0 -1.046875 -0.203125q-0.46875 -0.203125 -0.8125 -0.625q-0.34375 -0.421875 -0.53125 -1.078125q-0.1875 -0.671875 -0.1875 -1.578125q0 -0.84375 0.171875 -1.5q0.1875 -0.671875 0.53125 -1.125q0.359375 -0.453125 0.859375 -0.6875q0.515625 -0.25 1.15625 -0.25q0.5625 0 1.03125 0.203125q0.484375 0.203125 0.828125 0.625q0.34375 0.421875 0.53125 1.078125q0.1875 0.65625 0.1875 1.59375zm-4.015625 0.015625q0 0.109375 0 0.203125q0 0.078125 0 0.171875l2.546875 -1.84375q-0.171875 -0.515625 -0.484375 -0.75q-0.296875 -0.25 -0.703125 -0.25q-0.28125 0 -0.53125 0.15625q-0.25 0.140625 -0.4375 0.453125q-0.1875 0.296875 -0.296875 0.765625q-0.09375 0.453125 -0.09375 1.09375zm2.734375 0.015625q0 -0.078125 0 -0.171875q0 -0.09375 0 -0.171875l-2.53125 1.828125q0.15625 0.5 0.453125 0.75q0.3125 0.234375 0.703125 0.234375q0.296875 0 0.546875 -0.140625q0.25 -0.15625 0.4375 -0.453125q0.1875 -0.3125 0.28125 -0.765625q0.109375 -0.46875 0.109375 -1.109375z" fill-rule="nonzero"/><path fill="#000000" fill-opacity="0.0" d="m136.0 32.0l32.0 0l0 16.0l-32.0 0z" fill-rule="evenodd"/><path fill="#000000" d="m149.60938 47.849373l0 1.390625l-1.25 0l0 -1.390625l-3.15625 0l0 -1.078125l2.65625 -4.328125l1.75 0l0 4.296875l1.03125 0l0 1.109375l-1.03125 0zm-1.234375 -4.1875l-1.921875 3.078125l1.921875 0l0 -3.078125zm6.546356 1.984375q0.25 0.140625 0.484375 0.3125q0.234375 0.15625 0.40625 0.390625q0.171875 0.21875 0.265625 0.5q0.109375 0.265625 0.109375 0.625q0 0.453125 -0.1875 0.8125q-0.1875 0.359375 -0.515625 0.59375q-0.328125 0.234375 -0.78125 0.359375q-0.4375 0.125 -0.953125 0.125q-0.578125 0 -1.015625 -0.125q-0.4375 -0.125 -0.734375 -0.34375q-0.296875 -0.234375 -0.453125 -0.546875q-0.15625 -0.3125 -0.15625 -0.703125q0 -0.359375 0.09375 -0.625q0.109375 -0.28125 0.28125 -0.5q0.1875 -0.21875 0.40625 -0.390625q0.234375 -0.1875 0.5 -0.328125q-0.234375 -0.140625 -0.4375 -0.296875q-0.203125 -0.171875 -0.359375 -0.375q-0.15625 -0.203125 -0.25 -0.453125q-0.09375 -0.25 -0.09375 -0.5625q0 -0.375 0.140625 -0.6875q0.140625 -0.328125 0.421875 -0.578125q0.296875 -0.25 0.71875 -0.390625q0.4375 -0.140625 1.0 -0.140625q0.53125 0 0.953125 0.125q0.421875 0.109375 0.703125 0.3125q0.28125 0.203125 0.421875 0.5q0.15625 0.28125 0.15625 0.640625q0 0.3125 -0.09375 0.578125q-0.078125 0.265625 -0.234375 0.484375q-0.15625 0.203125 -0.359375 0.375q-0.203125 0.15625 -0.4375 0.3125zm-1.0 -0.5q0.1875 -0.09375 0.34375 -0.203125q0.171875 -0.125 0.28125 -0.265625q0.125 -0.140625 0.1875 -0.3125q0.078125 -0.171875 0.078125 -0.375q0 -0.328125 -0.265625 -0.5q-0.265625 -0.1875 -0.765625 -0.1875q-0.484375 0 -0.75 0.1875q-0.265625 0.171875 -0.265625 0.546875q0 0.1875 0.09375 0.34375q0.09375 0.15625 0.25 0.296875q0.15625 0.125 0.359375 0.25q0.203125 0.109375 0.453125 0.21875zm-0.265625 1.15625q-0.203125 0.109375 -0.390625 0.234375q-0.171875 0.125 -0.3125 0.28125q-0.125 0.140625 -0.203125 0.328125q-0.078125 0.171875 -0.078125 0.390625q0 0.40625 0.296875 0.609375q0.3125 0.203125 0.8125 0.203125q0.234375 0 0.4375 -0.046875q0.203125 -0.046875 0.359375 -0.140625q0.15625 -0.09375 0.234375 -0.25q0.09375 -0.15625 0.09375 -0.375q0 -0.21875 -0.109375 -0.390625q-0.09375 -0.171875 -0.265625 -0.3125q-0.171875 -0.15625 -0.40625 -0.28125q-0.21875 -0.125 -0.46875 -0.25z" fill-rule="nonzero"/></g></svg>