<svg version="1.1" viewBox="0.0 0.0 1006.9658792650919 303.4776902887139" fill="none" stroke="none" stroke-linecap="square" stroke-miterlimit="10" xmlns:xlink="http://www.w3.org/1999/xlink" xmlns="http://www.w3.org/2000/svg"><clipPath id="p.0"><path d="m0 0l1006.9659 0l0 303.4777l-1006.9659 0l0 -303.4777z" clip-rule="nonzero"/></clipPath><g clip-path="url(#p.0)"><path fill="#000000" fill-opacity="0.0" d="m0 0l1006.9659 0l0 303.4777l-1006.9659 0z" fill-rule="evenodd"/><path fill="#fff2cc" d="m120.0 40.0l192.0 0l0 32.0l-192.0 0z" fill-rule="evenodd"/><path stroke="#000000" stroke-width="1.0" stroke-linejoin="round" stroke-linecap="butt" d="m120.0 40.0l192.0 0l0 32.0l-192.0 0z" fill-rule="evenodd"/><path fill="#000000" d="m194.44705 53.248123l1.421875 0l0 -0.734375q0 -1.21875 0.25 -1.8125q0.265625 -0.609375 0.953125 -0.984375q0.703125 -0.375 1.78125 -0.375q1.09375 0 2.140625 0.328125l-0.359375 1.78125q-0.609375 -0.140625 -1.171875 -0.140625q-0.546875 0 -0.796875 0.265625q-0.234375 0.25 -0.234375 0.984375l0 0.6875l1.90625 0l0 2.015625l-1.90625 0l0 7.65625l-2.5625 0l0 -7.65625l-1.421875 0l0 -2.015625zm7.337677 9.671875l0 -13.359375l2.5625 0l0 13.359375l-2.5625 0zm7.089554 -6.71875l-2.328125 -0.421875q0.40625 -1.40625 1.359375 -2.078125q0.953125 -0.671875 2.84375 -0.671875q1.703125 0 2.546875 0.40625q0.84375 0.40625 1.171875 1.03125q0.34375 0.625 0.34375 2.28125l-0.015625 3.0q0 1.265625 0.109375 1.875q0.125 0.609375 0.46875 1.296875l-2.53125 0q-0.109375 -0.25 -0.25 -0.75q-0.0625 -0.234375 -0.09375 -0.3125q-0.65625 0.640625 -1.40625 0.96875q-0.734375 0.3125 -1.59375 0.3125q-1.484375 0 -2.34375 -0.8125q-0.859375 -0.8125 -0.859375 -2.046875q0 -0.828125 0.390625 -1.46875q0.390625 -0.640625 1.09375 -0.96875q0.703125 -0.34375 2.03125 -0.609375q1.796875 -0.328125 2.484375 -0.625l0 -0.25q0 -0.75 -0.359375 -1.0625q-0.359375 -0.3125 -1.375 -0.3125q-0.6875 0 -1.078125 0.28125q-0.375 0.265625 -0.609375 0.9375zm3.421875 2.078125q-0.484375 0.15625 -1.5625 0.390625q-1.0625 0.21875 -1.390625 0.4375q-0.5 0.359375 -0.5 0.90625q0 0.53125 0.40625 0.9375q0.40625 0.390625 1.015625 0.390625q0.703125 0 1.328125 -0.46875q0.46875 -0.34375 0.609375 -0.84375q0.09375 -0.328125 0.09375 -1.25l0 -0.5zm4.813217 5.28125l2.921875 0.359375q0.0625 0.5 0.328125 0.6875q0.375 0.28125 1.15625 0.28125q1.0 0 1.5 -0.296875q0.328125 -0.203125 0.515625 -0.65625q0.109375 -0.3125 0.109375 -1.171875l0 -1.40625q-1.140625 1.5625 -2.890625 1.5625q-1.953125 0 -3.09375 -1.65625q-0.890625 -1.296875 -0.890625 -3.234375q0 -2.4375 1.171875 -3.71875q1.171875 -1.28125 2.90625 -1.28125q1.796875 0 2.96875 1.578125l0 -1.359375l2.390625 0l0 8.671875q0 1.71875 -0.28125 2.5625q-0.28125 0.84375 -0.796875 1.328125q-0.5 0.484375 -1.359375 0.75q-0.84375 0.28125 -2.15625 0.28125q-2.453125 0 -3.484375 -0.84375q-1.03125 -0.84375 -1.03125 -2.125q0 -0.140625 0.015625 -0.3125zm2.28125 -5.671875q0 1.53125 0.59375 2.25q0.59375 0.71875 1.46875 0.71875q0.9375 0 1.578125 -0.734375q0.65625 -0.734375 0.65625 -2.171875q0 -1.515625 -0.625 -2.234375q-0.609375 -0.734375 -1.5625 -0.734375q-0.921875 0 -1.515625 0.71875q-0.59375 0.71875 -0.59375 2.1875zm8.442856 2.265625l2.5625 -0.390625q0.171875 0.75 0.671875 1.140625q0.5 0.390625 1.40625 0.390625q0.984375 0 1.484375 -0.375q0.34375 -0.25 0.34375 -0.671875q0 -0.296875 -0.1875 -0.484375q-0.1875 -0.1875 -0.859375 -0.34375q-3.09375 -0.6875 -3.921875 -1.25q-1.140625 -0.78125 -1.140625 -2.171875q0 -1.265625 0.984375 -2.109375q1.0 -0.859375 3.078125 -0.859375q1.984375 0 2.953125 0.65625q0.96875 0.640625 1.328125 1.90625l-2.40625 0.4375q-0.15625 -0.5625 -0.59375 -0.859375q-0.421875 -0.296875 -1.234375 -0.296875q-1.0 0 -1.4375 0.28125q-0.296875 0.203125 -0.296875 0.515625q0 0.265625 0.25 0.46875q0.34375 0.25 2.390625 0.71875q2.046875 0.453125 2.859375 1.140625q0.796875 0.671875 0.796875 1.890625q0 1.34375 -1.109375 2.296875q-1.109375 0.953125 -3.28125 0.953125q-1.984375 0 -3.140625 -0.796875q-1.140625 -0.8125 -1.5 -2.1875z" fill-rule="nonzero"/><path fill="#000000" fill-opacity="0.0" d="m104.0 8.0l24.0 0l0 32.0l-24.0 0z" fill-rule="evenodd"/><path fill="#000000" d="m121.390625 27.20375q0 1.265625 -0.28125 2.265625q-0.265625 0.984375 -0.796875 1.671875q-0.53125 0.671875 -1.296875 1.046875q-0.75 0.359375 -1.71875 0.359375q-0.84375 0 -1.5625 -0.296875q-0.703125 -0.3125 -1.21875 -0.9375q-0.515625 -0.640625 -0.8125 -1.625q-0.28125 -1.0 -0.28125 -2.390625q0 -1.25 0.265625 -2.234375q0.28125 -1.0 0.796875 -1.6875q0.53125 -0.6875 1.296875 -1.046875q0.765625 -0.359375 1.734375 -0.359375q0.84375 0 1.546875 0.296875q0.71875 0.296875 1.234375 0.9375q0.515625 0.625 0.796875 1.625q0.296875 0.984375 0.296875 2.375zm-6.046875 0.03125q0 0.15625 0 0.296875q0 0.140625 0.015625 0.28125l3.828125 -2.765625q-0.28125 -0.78125 -0.734375 -1.140625q-0.4375 -0.375 -1.046875 -0.375q-0.4375 0 -0.8125 0.21875q-0.375 0.21875 -0.65625 0.6875q-0.28125 0.453125 -0.4375 1.15625q-0.15625 0.6875 -0.15625 1.640625zm4.125 0.03125q0 -0.125 -0.015625 -0.265625q0 -0.140625 0 -0.265625l-3.8125 2.75q0.25 0.765625 0.703125 1.140625q0.453125 0.359375 1.0625 0.359375q0.4375 0 0.8125 -0.21875q0.375 -0.234375 0.65625 -0.6875q0.28125 -0.46875 0.4375 -1.15625q0.15625 -0.703125 0.15625 -1.65625z" fill-rule="nonzero"/><path fill="#000000" fill-opacity="0.0" d="m872.0 8.0l24.0 0l0 32.0l-24.0 0z" fill-rule="evenodd"/><path fill="#000000" d="m887.09375 26.95375q0.390625 0.203125 0.734375 0.46875q0.34375 0.25 0.609375 0.578125q0.265625 0.328125 0.40625 0.75q0.15625 0.421875 0.15625 0.953125q0 0.6875 -0.28125 1.21875q-0.28125 0.53125 -0.78125 0.890625q-0.484375 0.359375 -1.15625 0.546875q-0.671875 0.1875 -1.4375 0.1875q-0.859375 0 -1.53125 -0.1875q-0.65625 -0.1875 -1.109375 -0.515625q-0.4375 -0.34375 -0.671875 -0.8125q-0.234375 -0.484375 -0.234375 -1.078125q0 -0.515625 0.15625 -0.921875q0.15625 -0.421875 0.421875 -0.75q0.265625 -0.34375 0.609375 -0.609375q0.34375 -0.265625 0.734375 -0.484375q-0.34375 -0.203125 -0.65625 -0.4375q-0.3125 -0.25 -0.546875 -0.546875q-0.234375 -0.3125 -0.375 -0.6875q-0.125 -0.375 -0.125 -0.859375q0 -0.546875 0.203125 -1.03125q0.21875 -0.5 0.640625 -0.859375q0.4375 -0.375 1.078125 -0.578125q0.640625 -0.21875 1.515625 -0.21875q0.796875 0 1.421875 0.171875q0.625 0.171875 1.046875 0.484375q0.421875 0.3125 0.640625 0.75q0.234375 0.421875 0.234375 0.953125q0 0.484375 -0.140625 0.875q-0.125 0.390625 -0.359375 0.703125q-0.21875 0.3125 -0.53125 0.578125q-0.3125 0.25 -0.671875 0.46875zm-1.5 -0.734375q0.28125 -0.15625 0.53125 -0.328125q0.25 -0.1875 0.421875 -0.390625q0.1875 -0.21875 0.296875 -0.46875q0.109375 -0.25 0.109375 -0.546875q0 -0.515625 -0.40625 -0.78125q-0.390625 -0.265625 -1.140625 -0.265625q-0.734375 0 -1.140625 0.28125q-0.390625 0.265625 -0.390625 0.8125q0 0.296875 0.125 0.53125q0.140625 0.234375 0.375 0.4375q0.234375 0.203125 0.546875 0.375q0.3125 0.171875 0.671875 0.34375zm-0.390625 1.71875q-0.3125 0.171875 -0.578125 0.359375q-0.265625 0.1875 -0.46875 0.421875q-0.203125 0.21875 -0.328125 0.484375q-0.109375 0.265625 -0.109375 0.609375q0 0.59375 0.453125 0.90625q0.46875 0.3125 1.234375 0.3125q0.34375 0 0.640625 -0.0625q0.3125 -0.078125 0.53125 -0.21875q0.234375 -0.15625 0.359375 -0.390625q0.140625 -0.234375 0.140625 -0.546875q0 -0.328125 -0.15625 -0.59375q-0.140625 -0.265625 -0.40625 -0.484375q-0.25 -0.21875 -0.59375 -0.40625q-0.34375 -0.203125 -0.71875 -0.390625z" fill-rule="nonzero"/><path fill="#000000" fill-opacity="0.0" d="m488.0 8.0l24.0 0l0 32.0l-24.0 0z" fill-rule="evenodd"/><path fill="#000000" d="m503.92188 30.281876l0 2.078125l-1.859375 0l0 -2.078125l-4.75 0l0 -1.640625l3.984375 -6.5l2.625 0l0 6.453125l1.546875 0l0 1.6875l-1.546875 0zm-1.84375 -6.296875l-2.90625 4.609375l2.90625 0l0 -4.609375z" fill-rule="nonzero"/><path fill="#000000" fill-opacity="0.0" d="m296.0 8.0l24.0 0l0 32.0l-24.0 0z" fill-rule="evenodd"/><path fill="#000000" d="m306.01562 32.36l0 -1.40625l2.40625 -2.421875q0.6875 -0.671875 1.09375 -1.15625q0.40625 -0.5 0.625 -0.890625q0.234375 -0.390625 0.296875 -0.71875q0.078125 -0.328125 0.078125 -0.671875q0 -0.296875 -0.09375 -0.546875q-0.09375 -0.265625 -0.28125 -0.453125q-0.171875 -0.203125 -0.453125 -0.3125q-0.265625 -0.109375 -0.625 -0.109375q-0.59375 0 -1.109375 0.265625q-0.515625 0.25 -0.984375 0.6875l-1.0 -1.296875q0.65625 -0.609375 1.484375 -0.984375q0.84375 -0.375 1.8125 -0.375q0.75 0 1.359375 0.203125q0.609375 0.1875 1.03125 0.5625q0.4375 0.375 0.671875 0.9375q0.25 0.5625 0.25 1.296875q0 0.609375 -0.171875 1.140625q-0.15625 0.515625 -0.46875 1.015625q-0.3125 0.5 -0.78125 1.0q-0.453125 0.5 -1.03125 1.0625l-1.484375 1.40625l4.296875 0l0 1.765625l-6.921875 0z" fill-rule="nonzero"/><path fill="#000000" fill-opacity="0.0" d="m680.0 8.0l24.0 0l0 32.0l-24.0 0z" fill-rule="evenodd"/><path fill="#000000" d="m697.2031 29.125626q0 0.765625 -0.28125 1.40625q-0.28125 0.625 -0.78125 1.078125q-0.5 0.4375 -1.1875 0.6875q-0.6875 0.25 -1.5 0.25q-1.796875 0 -2.75 -1.125q-0.9375 -1.140625 -0.9375 -3.453125q0 -0.84375 0.09375 -1.59375q0.109375 -0.765625 0.34375 -1.40625q0.25 -0.65625 0.640625 -1.171875q0.40625 -0.53125 1.0 -0.890625q0.609375 -0.359375 1.421875 -0.5625q0.828125 -0.203125 1.921875 -0.203125l1.15625 0l0 1.625l-1.359375 0q-0.84375 0 -1.421875 0.171875q-0.5625 0.171875 -0.921875 0.5q-0.359375 0.3125 -0.546875 0.78125q-0.171875 0.453125 -0.21875 1.03125l-0.015625 0.1875q0.40625 -0.203125 0.921875 -0.328125q0.515625 -0.125 1.09375 -0.125q0.828125 0 1.453125 0.21875q0.625 0.21875 1.03125 0.625q0.421875 0.40625 0.625 0.984375q0.21875 0.578125 0.21875 1.3125zm-1.984375 0.078125q0 -0.359375 -0.09375 -0.65625q-0.09375 -0.296875 -0.296875 -0.515625q-0.203125 -0.21875 -0.515625 -0.328125q-0.296875 -0.125 -0.734375 -0.125q-0.25 0 -0.5 0.046875q-0.234375 0.03125 -0.46875 0.109375q-0.234375 0.0625 -0.4375 0.15625q-0.203125 0.078125 -0.375 0.171875q0 0.796875 0.109375 1.34375q0.109375 0.53125 0.328125 0.875q0.234375 0.34375 0.5625 0.5q0.328125 0.15625 0.765625 0.15625q0.375 0 0.671875 -0.125q0.3125 -0.125 0.53125 -0.359375q0.21875 -0.234375 0.328125 -0.546875q0.125 -0.3125 0.125 -0.703125z" fill-rule="nonzero"/><path fill="#000000" fill-opacity="0.0" d="m88.0 40.0l24.0 0l0 32.0l-24.0 0z" fill-rule="evenodd"/><path fill="#000000" d="m105.390625 59.20375q0 1.265625 -0.28125 2.265625q-0.265625 0.984375 -0.796875 1.671875q-0.53125 0.671875 -1.296875 1.046875q-0.75 0.359375 -1.71875 0.359375q-0.84375 0 -1.5625 -0.296875q-0.703125 -0.3125 -1.21875 -0.9375q-0.515625 -0.640625 -0.8125 -1.625q-0.28125 -1.0 -0.28125 -2.390625q0 -1.25 0.265625 -2.234375q0.28125 -1.0 0.796875 -1.6875q0.53125 -0.6875 1.296875 -1.046875q0.765625 -0.359375 1.734375 -0.359375q0.84375 0 1.546875 0.296875q0.71875 0.296875 1.234375 0.9375q0.515625 0.625 0.796875 1.625q0.296875 0.984375 0.296875 2.375zm-6.046875 0.03125q0 0.15625 0 0.296875q0 0.140625 0.015625 0.28125l3.828125 -2.765625q-0.28125 -0.78125 -0.734375 -1.140625q-0.4375 -0.375 -1.046875 -0.375q-0.4375 0 -0.8125 0.21875q-0.375 0.21875 -0.65625 0.6875q-0.28125 0.453125 -0.4375 1.15625q-0.15625 0.6875 -0.15625 1.640625zm4.125 0.03125q0 -0.125 -0.015625 -0.265625q0 -0.140625 0 -0.265625l-3.8125 2.75q0.25 0.765625 0.703125 1.140625q0.453125 0.359375 1.0625 0.359375q0.4375 0 0.8125 -0.21875q0.375 -0.234375 0.65625 -0.6875q0.28125 -0.46875 0.4375 -1.15625q0.15625 -0.703125 0.15625 -1.65625z" fill-rule="nonzero"/><path fill="#000000" fill-opacity="0.0" d="m88.0 72.0l32.0 0l0 32.0l-32.0 0z" fill-rule="evenodd"/><path fill="#000000" d="m103.09375 90.95375q0.390625 0.203125 0.734375 0.46875q0.34375 0.25 0.609375 0.578125q0.265625 0.328125 0.40625 0.75q0.15625 0.421875 0.15625 0.953125q0 0.6875 -0.28125 1.21875q-0.28125 0.53125 -0.78125 0.890625q-0.484375 0.359375 -1.15625 0.546875q-0.671875 0.1875 -1.4375 0.1875q-0.859375 0 -1.53125 -0.1875q-0.65625 -0.1875 -1.109375 -0.515625q-0.4375 -0.34375 -0.671875 -0.8125q-0.234375 -0.484375 -0.234375 -1.078125q0 -0.515625 0.15625 -0.921875q0.15625 -0.421875 0.421875 -0.75q0.265625 -0.34375 0.609375 -0.609375q0.34375 -0.265625 0.734375 -0.484375q-0.34375 -0.203125 -0.65625 -0.4375q-0.3125 -0.25 -0.546875 -0.546875q-0.234375 -0.3125 -0.375 -0.6875q-0.125 -0.375 -0.125 -0.859375q0 -0.546875 0.203125 -1.03125q0.21875 -0.5 0.640625 -0.859375q0.4375 -0.375 1.078125 -0.578125q0.640625 -0.21875 1.515625 -0.21875q0.796875 0 1.421875 0.171875q0.625 0.171875 1.046875 0.484375q0.421875 0.3125 0.640625 0.75q0.234375 0.421875 0.234375 0.953125q0 0.484375 -0.140625 0.875q-0.125 0.390625 -0.359375 0.703125q-0.21875 0.3125 -0.53125 0.578125q-0.3125 0.25 -0.671875 0.46875zm-1.5 -0.734375q0.28125 -0.15625 0.53125 -0.328125q0.25 -0.1875 0.421875 -0.390625q0.1875 -0.21875 0.296875 -0.46875q0.109375 -0.25 0.109375 -0.546875q0 -0.515625 -0.40625 -0.78125q-0.390625 -0.265625 -1.140625 -0.265625q-0.734375 0 -1.140625 0.28125q-0.390625 0.265625 -0.390625 0.8125q0 0.296875 0.125 0.53125q0.140625 0.234375 0.375 0.4375q0.234375 0.203125 0.546875 0.375q0.3125 0.171875 0.671875 0.34375zm-0.390625 1.71875q-0.3125 0.171875 -0.578125 0.359375q-0.265625 0.1875 -0.46875 0.421875q-0.203125 0.21875 -0.328125 0.484375q-0.109375 0.265625 -0.109375 0.609375q0 0.59375 0.453125 0.90625q0.46875 0.3125 1.234375 0.3125q0.34375 0 0.640625 -0.0625q0.3125 -0.078125 0.53125 -0.21875q0.234375 -0.15625 0.359375 -0.390625q0.140625 -0.234375 0.140625 -0.546875q0 -0.328125 -0.15625 -0.59375q-0.140625 -0.265625 -0.40625 -0.484375q-0.25 -0.21875 -0.59375 -0.40625q-0.34375 -0.203125 -0.71875 -0.390625z" fill-rule="nonzero"/><path fill="#000000" fill-opacity="0.0" d="m48.0 104.0l72.0 0l0 32.0l-72.0 0z" fill-rule="evenodd"/><path fill="#000000" d="m94.59375 128.36l0 -1.703125l2.609375 0l0 -6.5625l-2.265625 1.25l-0.625 -1.546875l3.234375 -1.71875l1.609375 0l0 8.578125l2.234375 0l0 1.703125l-6.796875 0zm15.8125 -3.234375q0 0.765625 -0.28125 1.40625q-0.28125 0.625 -0.78125 1.078125q-0.5 0.4375 -1.1875 0.6875q-0.6875 0.25 -1.5 0.25q-1.796875 0 -2.75 -1.125q-0.9375 -1.140625 -0.9375 -3.453125q0 -0.84375 0.09375 -1.59375q0.109375 -0.765625 0.34375 -1.40625q0.25 -0.65625 0.640625 -1.171875q0.40625 -0.53125 1.0 -0.890625q0.609375 -0.359375 1.421875 -0.5625q0.828125 -0.203125 1.921875 -0.203125l1.15625 0l0 1.625l-1.359375 0q-0.84375 0 -1.421875 0.171875q-0.5625 0.171875 -0.921875 0.5q-0.359375 0.3125 -0.546875 0.78125q-0.171875 0.453125 -0.21875 1.03125l-0.015625 0.1875q0.40625 -0.203125 0.921875 -0.328125q0.515625 -0.125 1.09375 -0.125q0.828125 0 1.453125 0.21875q0.625 0.21875 1.03125 0.625q0.421875 0.40625 0.625 0.984375q0.21875 0.578125 0.21875 1.3125zm-1.984375 0.078125q0 -0.359375 -0.09375 -0.65625q-0.09375 -0.296875 -0.296875 -0.515625q-0.203125 -0.21875 -0.515625 -0.328125q-0.296875 -0.125 -0.734375 -0.125q-0.25 0 -0.5 0.046875q-0.234375 0.03125 -0.46875 0.109375q-0.234375 0.0625 -0.4375 0.15625q-0.203125 0.078125 -0.375 0.171875q0 0.796875 0.109375 1.34375q0.109375 0.53125 0.328125 0.875q0.234375 0.34375 0.5625 0.5q0.328125 0.15625 0.765625 0.15625q0.375 0 0.671875 -0.125q0.3125 -0.125 0.53125 -0.359375q0.21875 -0.234375 0.328125 -0.546875q0.125 -0.3125 0.125 -0.703125z" fill-rule="nonzero"/><path fill="#cfe2f3" d="m120.0 72.0l384.0 0l0 32.0l-384.0 0z" fill-rule="evenodd"/><path stroke="#000000" stroke-width="1.0" stroke-linejoin="round" stroke-linecap="butt" d="m120.0 72.0l384.0 0l0 32.0l-384.0 0z" fill-rule="evenodd"/><path fill="#000000" d="m246.9166 85.24812l2.390625 0l0 1.421875q0.46875 -0.734375 1.25 -1.1875q0.796875 -0.453125 1.765625 -0.453125q1.6875 0 2.859375 1.328125q1.171875 1.3125 1.171875 3.671875q0 2.421875 -1.1875 3.765625q-1.1875 1.34375 -2.859375 1.34375q-0.8125 0 -1.46875 -0.3125q-0.640625 -0.328125 -1.359375 -1.09375l0 4.875l-2.5625 0l0 -13.359375zm2.53125 4.671875q0 1.625 0.640625 2.40625q0.65625 0.78125 1.578125 0.78125q0.90625 0 1.484375 -0.71875q0.59375 -0.71875 0.59375 -2.34375q0 -1.515625 -0.609375 -2.25q-0.609375 -0.75 -1.515625 -0.75q-0.9375 0 -1.5625 0.734375q-0.609375 0.71875 -0.609375 2.140625zm11.395996 5.0l-2.5625 0l0 -9.671875l2.375 0l0 1.375q0.609375 -0.984375 1.09375 -1.28125q0.484375 -0.3125 1.109375 -0.3125q0.875 0 1.6875 0.484375l-0.796875 2.234375q-0.640625 -0.421875 -1.203125 -0.421875q-0.53125 0 -0.90625 0.296875q-0.375 0.296875 -0.59375 1.078125q-0.203125 0.765625 -0.203125 3.234375l0 2.984375zm10.400879 -3.078125l2.546875 0.421875q-0.484375 1.40625 -1.546875 2.140625q-1.0625 0.734375 -2.65625 0.734375q-2.515625 0 -3.734375 -1.65625q-0.953125 -1.3125 -0.953125 -3.328125q0 -2.40625 1.25 -3.765625q1.265625 -1.359375 3.1875 -1.359375q2.15625 0 3.40625 1.421875q1.25 1.421875 1.1875 4.375l-6.40625 0q0.03125 1.140625 0.609375 1.78125q0.59375 0.625 1.484375 0.625q0.59375 0 1.0 -0.328125q0.421875 -0.328125 0.625 -1.0625zm0.15625 -2.59375q-0.03125 -1.109375 -0.578125 -1.6875q-0.546875 -0.578125 -1.328125 -0.578125q-0.84375 0 -1.390625 0.609375q-0.546875 0.609375 -0.53125 1.65625l3.828125 0zm7.2819824 5.671875l-3.90625 -9.671875l2.6875 0l1.828125 4.9375l0.53125 1.640625q0.203125 -0.625 0.265625 -0.828125q0.125 -0.40625 0.265625 -0.8125l1.84375 -4.9375l2.625 0l-3.84375 9.671875l-2.296875 0zm7.719452 -10.984375l0 -2.375l2.5625 0l0 2.375l-2.5625 0zm0 10.984375l0 -9.671875l2.5625 0l0 9.671875l-2.5625 0zm4.589569 -4.96875q0 -1.28125 0.625 -2.46875q0.625 -1.203125 1.78125 -1.828125q1.15625 -0.625 2.578125 -0.625q2.1875 0 3.59375 1.421875q1.40625 1.421875 1.40625 3.609375q0 2.1875 -1.421875 3.640625q-1.421875 1.4375 -3.5625 1.4375q-1.328125 0 -2.546875 -0.59375q-1.203125 -0.609375 -1.828125 -1.765625q-0.625 -1.171875 -0.625 -2.828125zm2.625 0.125q0 1.453125 0.671875 2.21875q0.6875 0.75 1.6875 0.75q1.0 0 1.671875 -0.75q0.6875 -0.765625 0.6875 -2.234375q0 -1.421875 -0.6875 -2.1875q-0.671875 -0.765625 -1.671875 -0.765625q-1.0 0 -1.6875 0.765625q-0.671875 0.765625 -0.671875 2.203125zm15.724091 4.84375l0 -1.453125q-0.53125 0.78125 -1.390625 1.234375q-0.859375 0.4375 -1.8125 0.4375q-0.96875 0 -1.75 -0.421875q-0.765625 -0.4375 -1.125 -1.203125q-0.34375 -0.78125 -0.34375 -2.140625l0 -6.125l2.5625 0l0 4.4375q0 2.046875 0.140625 2.515625q0.140625 0.453125 0.515625 0.71875q0.375 0.265625 0.953125 0.265625q0.65625 0 1.171875 -0.359375q0.515625 -0.359375 0.703125 -0.890625q0.203125 -0.53125 0.203125 -2.609375l0 -4.078125l2.546875 0l0 9.671875l-2.375 0zm4.130371 -2.765625l2.5625 -0.390625q0.171875 0.75 0.671875 1.140625q0.5 0.390625 1.40625 0.390625q0.984375 0 1.484375 -0.375q0.34375 -0.25 0.34375 -0.671875q0 -0.296875 -0.1875 -0.484375q-0.1875 -0.1875 -0.859375 -0.34375q-3.09375 -0.6875 -3.921875 -1.25q-1.140625 -0.78125 -1.140625 -2.171875q0 -1.265625 0.984375 -2.109375q1.0 -0.859375 3.078125 -0.859375q1.984375 0 2.953125 0.65625q0.96875 0.640625 1.328125 1.90625l-2.40625 0.4375q-0.15625 -0.5625 -0.59375 -0.859375q-0.421875 -0.296875 -1.234375 -0.296875q-1.0 0 -1.4375 0.28125q-0.296875 0.203125 -0.296875 0.515625q0 0.265625 0.25 0.46875q0.34375 0.25 2.390625 0.71875q2.046875 0.453125 2.859375 1.140625q0.796875 0.671875 0.796875 1.890625q0 1.34375 -1.109375 2.296875q-1.109375 0.953125 -3.28125 0.953125q-1.984375 0 -3.140625 -0.796875q-1.140625 -0.8125 -1.5 -2.1875zm9.766327 6.453125l0 -1.65625l10.640625 0l0 1.65625l-10.640625 0zm20.688232 -3.6875l-2.5625 0l0 -4.9375q0 -1.5625 -0.171875 -2.015625q-0.15625 -0.46875 -0.53125 -0.71875q-0.359375 -0.265625 -0.875 -0.265625q-0.671875 0 -1.203125 0.375q-0.53125 0.359375 -0.734375 0.96875q-0.1875 0.59375 -0.1875 2.21875l0 4.375l-2.546875 0l0 -9.671875l2.375 0l0 1.421875q1.265625 -1.640625 3.1875 -1.640625q0.84375 0 1.546875 0.3125q0.703125 0.296875 1.0625 0.78125q0.359375 0.46875 0.5 1.078125q0.140625 0.59375 0.140625 1.703125l0 6.015625zm2.0053406 -4.96875q0 -1.28125 0.625 -2.46875q0.625 -1.203125 1.78125 -1.828125q1.15625 -0.625 2.578125 -0.625q2.1875 0 3.59375 1.421875q1.40625 1.421875 1.40625 3.609375q0 2.1875 -1.421875 3.640625q-1.421875 1.4375 -3.5625 1.4375q-1.328125 0 -2.546875 -0.59375q-1.203125 -0.609375 -1.828125 -1.765625q-0.625 -1.171875 -0.625 -2.828125zm2.625 0.125q0 1.453125 0.671875 2.21875q0.6875 0.75 1.6875 0.75q1.0 0 1.671875 -0.75q0.6875 -0.765625 0.6875 -2.234375q0 -1.421875 -0.6875 -2.1875q-0.671875 -0.765625 -1.671875 -0.765625q-1.0 0 -1.6875 0.765625q-0.671875 0.765625 -0.671875 2.203125zm18.239746 4.84375l-2.390625 0l0 -1.421875q-0.59375 0.828125 -1.40625 1.234375q-0.796875 0.40625 -1.609375 0.40625q-1.671875 0 -2.859375 -1.34375q-1.1875 -1.34375 -1.1875 -3.75q0 -2.453125 1.15625 -3.734375q1.15625 -1.28125 2.921875 -1.28125q1.625 0 2.8125 1.34375l0 -4.8125l2.5625 0l0 13.359375zm-6.84375 -5.046875q0 1.546875 0.4375 2.234375q0.609375 1.015625 1.71875 1.015625q0.890625 0 1.5 -0.75q0.625 -0.765625 0.625 -2.25q0 -1.671875 -0.609375 -2.40625q-0.59375 -0.734375 -1.53125 -0.734375q-0.90625 0 -1.53125 0.734375q-0.609375 0.71875 -0.609375 2.15625zm14.958466 1.96875l2.546875 0.421875q-0.484375 1.40625 -1.546875 2.140625q-1.0625 0.734375 -2.65625 0.734375q-2.515625 0 -3.734375 -1.65625q-0.953125 -1.3125 -0.953125 -3.328125q0 -2.40625 1.25 -3.765625q1.265625 -1.359375 3.1875 -1.359375q2.15625 0 3.40625 1.421875q1.25 1.421875 1.1875 4.375l-6.40625 0q0.03125 1.140625 0.609375 1.78125q0.59375 0.625 1.484375 0.625q0.59375 0 1.0 -0.328125q0.421875 -0.328125 0.625 -1.0625zm0.15625 -2.59375q-0.03125 -1.109375 -0.578125 -1.6875q-0.546875 -0.578125 -1.328125 -0.578125q-0.84375 0 -1.390625 0.609375q-0.546875 0.609375 -0.53125 1.65625l3.828125 0z" fill-rule="nonzero"/><path fill="#000000" fill-opacity="0.0" d="m48.0 136.0l72.0 0l0 32.0l-72.0 0z" fill-rule="evenodd"/><path fill="#000000" d="m94.421875 160.36l0 -1.40625l2.40625 -2.421875q0.6875 -0.671875 1.09375 -1.15625q0.40625 -0.5 0.625 -0.890625q0.234375 -0.390625 0.296875 -0.71875q0.078125 -0.328125 0.078125 -0.671875q0 -0.296875 -0.09375 -0.546875q-0.09375 -0.265625 -0.28125 -0.453125q-0.171875 -0.203125 -0.453125 -0.3125q-0.265625 -0.109375 -0.625 -0.109375q-0.59375 0 -1.109375 0.265625q-0.515625 0.25 -0.984375 0.6875l-1.0 -1.296875q0.65625 -0.609375 1.484375 -0.984375q0.84375 -0.375 1.8125 -0.375q0.75 0 1.359375 0.203125q0.609375 0.1875 1.03125 0.5625q0.4375 0.375 0.671875 0.9375q0.25 0.5625 0.25 1.296875q0 0.609375 -0.171875 1.140625q-0.15625 0.515625 -0.46875 1.015625q-0.3125 0.5 -0.78125 1.0q-0.453125 0.5 -1.03125 1.0625l-1.484375 1.40625l4.296875 0l0 1.765625l-6.921875 0zm14.703125 -2.078125l0 2.078125l-1.859375 0l0 -2.078125l-4.75 0l0 -1.640625l3.984375 -6.5l2.625 0l0 6.453125l1.546875 0l0 1.6875l-1.546875 0zm-1.84375 -6.296875l-2.90625 4.609375l2.90625 0l0 -4.609375z" fill-rule="nonzero"/><path fill="#000000" fill-opacity="0.0" d="m48.0 168.0l72.0 0l0 32.0l-72.0 0z" fill-rule="evenodd"/><path fill="#000000" d="m101.375 189.235q0 0.765625 -0.28125 1.375q-0.28125 0.59375 -0.859375 1.03125q-0.578125 0.421875 -1.46875 0.65625q-0.875 0.21875 -2.078125 0.21875q-0.265625 0 -0.5625 -0.015625q-0.28125 0 -0.578125 -0.03125q-0.28125 -0.015625 -0.5625 -0.046875q-0.265625 -0.015625 -0.484375 -0.0625l0 -1.65625q0.484375 0.09375 1.09375 0.15625q0.625 0.046875 1.28125 0.046875q0.65625 0 1.125 -0.109375q0.46875 -0.109375 0.765625 -0.3125q0.3125 -0.203125 0.453125 -0.5q0.140625 -0.3125 0.140625 -0.703125q0 -0.328125 -0.15625 -0.59375q-0.140625 -0.28125 -0.453125 -0.46875q-0.296875 -0.203125 -0.765625 -0.296875q-0.46875 -0.109375 -1.125 -0.109375l-1.125 0l0 -1.453125l1.03125 0q0.609375 0 1.015625 -0.125q0.40625 -0.125 0.640625 -0.328125q0.234375 -0.203125 0.328125 -0.46875q0.109375 -0.28125 0.109375 -0.59375q0 -0.625 -0.40625 -0.9375q-0.40625 -0.328125 -1.25 -0.328125q-0.609375 0 -1.203125 0.125q-0.59375 0.109375 -1.234375 0.296875l0 -1.59375q0.359375 -0.125 0.671875 -0.203125q0.328125 -0.078125 0.640625 -0.125q0.328125 -0.0625 0.65625 -0.078125q0.328125 -0.03125 0.671875 -0.03125q0.84375 0 1.484375 0.1875q0.640625 0.171875 1.0625 0.515625q0.4375 0.328125 0.65625 0.8125q0.21875 0.46875 0.21875 1.046875q0 0.9375 -0.421875 1.515625q-0.421875 0.5625 -1.1875 0.875q0.484375 0.078125 0.875 0.265625q0.40625 0.1875 0.6875 0.5q0.296875 0.296875 0.4375 0.6875q0.15625 0.390625 0.15625 0.859375zm1.84375 3.125l0 -1.40625l2.40625 -2.421875q0.6875 -0.671875 1.09375 -1.15625q0.40625 -0.5 0.625 -0.890625q0.234375 -0.390625 0.296875 -0.71875q0.078125 -0.328125 0.078125 -0.671875q0 -0.296875 -0.09375 -0.546875q-0.09375 -0.265625 -0.28125 -0.453125q-0.171875 -0.203125 -0.453125 -0.3125q-0.265625 -0.109375 -0.625 -0.109375q-0.59375 0 -1.109375 0.265625q-0.515625 0.25 -0.984375 0.6875l-1.0 -1.296875q0.65625 -0.609375 1.484375 -0.984375q0.84375 -0.375 1.8125 -0.375q0.75 0 1.359375 0.203125q0.609375 0.1875 1.03125 0.5625q0.4375 0.375 0.671875 0.9375q0.25 0.5625 0.25 1.296875q0 0.609375 -0.171875 1.140625q-0.15625 0.515625 -0.46875 1.015625q-0.3125 0.5 -0.78125 1.0q-0.453125 0.5 -1.03125 1.0625l-1.484375 1.40625l4.296875 0l0 1.765625l-6.921875 0z" fill-rule="nonzero"/><path fill="#000000" fill-opacity="0.0" d="m48.0 200.0l72.0 0l0 32.0l-72.0 0z" fill-rule="evenodd"/><path fill="#000000" d="m100.328125 222.28188l0 2.078125l-1.859375 0l0 -2.078125l-4.75 0l0 -1.640625l3.984375 -6.5l2.625 0l0 6.453125l1.546875 0l0 1.6875l-1.546875 0zm-1.84375 -6.296875l-2.90625 4.609375l2.90625 0l0 -4.609375zm12.109375 3.21875q0 1.265625 -0.28125 2.265625q-0.265625 0.984375 -0.796875 1.671875q-0.53125 0.671875 -1.296875 1.046875q-0.75 0.359375 -1.71875 0.359375q-0.84375 0 -1.5625 -0.296875q-0.703125 -0.3125 -1.21875 -0.9375q-0.515625 -0.640625 -0.8125 -1.625q-0.28125 -1.0 -0.28125 -2.390625q0 -1.25 0.265625 -2.234375q0.28125 -1.0 0.796875 -1.6875q0.53125 -0.6875 1.296875 -1.046875q0.765625 -0.359375 1.734375 -0.359375q0.84375 0 1.546875 0.296875q0.71875 0.296875 1.234375 0.9375q0.515625 0.625 0.796875 1.625q0.296875 0.984375 0.296875 2.375zm-6.046875 0.03125q0 0.15625 0 0.296875q0 0.140625 0.015625 0.28125l3.828125 -2.765625q-0.28125 -0.78125 -0.734375 -1.140625q-0.4375 -0.375 -1.046875 -0.375q-0.4375 0 -0.8125 0.21875q-0.375 0.21875 -0.65625 0.6875q-0.28125 0.453125 -0.4375 1.15625q-0.15625 0.6875 -0.15625 1.640625zm4.125 0.03125q0 -0.125 -0.015625 -0.265625q0 -0.140625 0 -0.265625l-3.8125 2.75q0.25 0.765625 0.703125 1.140625q0.453125 0.359375 1.0625 0.359375q0.4375 0 0.8125 -0.21875q0.375 -0.234375 0.65625 -0.6875q0.28125 -0.46875 0.4375 -1.15625q0.15625 -0.703125 0.15625 -1.65625z" fill-rule="nonzero"/><path fill="#cfe2f3" d="m120.0 264.0l768.0 0l0 32.0l-768.0 0z" fill-rule="evenodd"/><path stroke="#000000" stroke-width="1.0" stroke-linejoin="round" stroke-linecap="butt" d="m120.0 264.0l768.0 0l0 32.0l-768.0 0z" fill-rule="evenodd"/><path fill="#000000" d="m466.87488 283.84186l2.546875 0.421875q-0.484375 1.40625 -1.546875 2.140625q-1.0625 0.734375 -2.65625 0.734375q-2.515625 0 -3.734375 -1.65625q-0.953125 -1.3125 -0.953125 -3.328125q0 -2.40625 1.25 -3.765625q1.265625 -1.359375 3.1875 -1.359375q2.15625 0 3.40625 1.421875q1.25 1.421875 1.1875 4.375l-6.40625 0q0.03125 1.140625 0.609375 1.78125q0.59375 0.625 1.484375 0.625q0.59375 0 1.0 -0.328125q0.421875 -0.328125 0.625 -1.0625zm0.15625 -2.59375q-0.03125 -1.109375 -0.578125 -1.6875q-0.546875 -0.578125 -1.328125 -0.578125q-0.84375 0 -1.390625 0.609375q-0.546875 0.609375 -0.53125 1.65625l3.828125 0zm3.3913574 5.671875l3.484375 -4.984375l-3.34375 -4.6875l3.125 0l1.71875 2.65625l1.796875 -2.65625l3.015625 0l-3.28125 4.578125l3.578125 5.09375l-3.140625 0l-1.96875 -3.0l-1.984375 3.0l-3.0 0zm16.047577 -9.671875l0 2.03125l-1.75 0l0 3.90625q0 1.1875 0.046875 1.390625q0.046875 0.1875 0.21875 0.3125q0.1875 0.125 0.4375 0.125q0.359375 0 1.03125 -0.25l0.21875 2.0q-0.890625 0.375 -2.015625 0.375q-0.703125 0 -1.265625 -0.234375q-0.546875 -0.234375 -0.8125 -0.59375q-0.25 -0.375 -0.34375 -1.0q-0.09375 -0.453125 -0.09375 -1.8125l0 -4.21875l-1.171875 0l0 -2.03125l1.171875 0l0 -1.921875l2.578125 -1.5l0 3.421875l1.75 0zm7.368927 6.59375l2.546875 0.421875q-0.484375 1.40625 -1.546875 2.140625q-1.0625 0.734375 -2.65625 0.734375q-2.515625 0 -3.734375 -1.65625q-0.953125 -1.3125 -0.953125 -3.328125q0 -2.40625 1.25 -3.765625q1.265625 -1.359375 3.1875 -1.359375q2.15625 0 3.40625 1.421875q1.25 1.421875 1.1875 4.375l-6.40625 0q0.03125 1.140625 0.609375 1.78125q0.59375 0.625 1.484375 0.625q0.59375 0 1.0 -0.328125q0.421875 -0.328125 0.625 -1.0625zm0.15625 -2.59375q-0.03125 -1.109375 -0.578125 -1.6875q-0.546875 -0.578125 -1.328125 -0.578125q-0.84375 0 -1.390625 0.609375q-0.546875 0.609375 -0.53125 1.65625l3.828125 0zm13.422607 5.671875l-2.5625 0l0 -4.9375q0 -1.5625 -0.171875 -2.015625q-0.15625 -0.46875 -0.53125 -0.71875q-0.359375 -0.265625 -0.875 -0.265625q-0.671875 0 -1.203125 0.375q-0.53125 0.359375 -0.734375 0.96875q-0.1875 0.59375 -0.1875 2.21875l0 4.375l-2.546875 0l0 -9.671875l2.375 0l0 1.421875q1.265625 -1.640625 3.1875 -1.640625q0.84375 0 1.546875 0.3125q0.703125 0.296875 1.0625 0.78125q0.359375 0.46875 0.5 1.078125q0.140625 0.59375 0.140625 1.703125l0 6.015625zm7.036621 -9.671875l0 2.03125l-1.75 0l0 3.90625q0 1.1875 0.046875 1.390625q0.046875 0.1875 0.21875 0.3125q0.1875 0.125 0.4375 0.125q0.359375 0 1.03125 -0.25l0.21875 2.0q-0.890625 0.375 -2.015625 0.375q-0.7031555 0 -1.2656555 -0.234375q-0.546875 -0.234375 -0.8125 -0.59375q-0.25 -0.375 -0.34375 -1.0q-0.09375 -0.453125 -0.09375 -1.8125l0 -4.21875l-1.171875 0l0 -2.03125l1.171875 0l0 -1.921875l2.5781555 -1.5l0 3.421875l1.75 0zm0.8688965 6.90625l2.5625 -0.390625q0.171875 0.75 0.671875 1.140625q0.5 0.390625 1.40625 0.390625q0.984375 0 1.484375 -0.375q0.34375 -0.25 0.34375 -0.671875q0 -0.296875 -0.1875 -0.484375q-0.1875 -0.1875 -0.859375 -0.34375q-3.09375 -0.6875 -3.921875 -1.25q-1.140625 -0.78125 -1.140625 -2.171875q0 -1.265625 0.984375 -2.109375q1.0 -0.859375 3.078125 -0.859375q1.984375 0 2.953125 0.65625q0.96875 0.640625 1.328125 1.90625l-2.40625 0.4375q-0.15625 -0.5625 -0.59375 -0.859375q-0.421875 -0.296875 -1.234375 -0.296875q-1.0 0 -1.4375 0.28125q-0.296875 0.203125 -0.296875 0.515625q0 0.265625 0.25 0.46875q0.34375 0.25 2.390625 0.71875q2.046875 0.453125 2.859375 1.140625q0.796875 0.671875 0.796875 1.890625q0 1.34375 -1.109375 2.296875q-1.109375 0.953125 -3.28125 0.953125q-1.984375 0 -3.140625 -0.796875q-1.140625 -0.8125 -1.5 -2.1875zm11.266357 6.53125l0 -17.125l4.53125 0l0 2.015625l-2.09375 0l0 13.09375l2.09375 0l0 2.015625l-4.53125 0zm5.7126465 -7.203125l2.546875 -0.265625q0.109375 0.875 0.640625 1.375q0.546875 0.5 1.25 0.5q0.796875 0 1.34375 -0.640625q0.5625 -0.65625 0.5625 -1.96875q0 -1.234375 -0.546875 -1.84375q-0.546875 -0.609375 -1.4375 -0.609375q-1.09375 0 -1.96875 0.96875l-2.078125 -0.296875l1.3125 -6.953125l6.765625 0l0 2.390625l-4.828125 0l-0.40625 2.265625q0.859375 -0.421875 1.75 -0.421875q1.703125 0 2.890625 1.25q1.1875 1.234375 1.1875 3.203125q0 1.65625 -0.953125 2.9375q-1.3125 1.78125 -3.625 1.78125q-1.84375 0 -3.015625 -1.0q-1.15625 -1.0 -1.390625 -2.671875zm14.422607 -9.921875l0 17.125l-4.53125 0l0 -2.015625l2.109375 0l0 -13.109375l-2.109375 0l0 -2.0l4.53125 0z" fill-rule="nonzero"/><path fill="#fff2cc" d="m312.0 40.0l192.0 0l0 32.0l-192.0 0z" fill-rule="evenodd"/><path stroke="#000000" stroke-width="1.0" stroke-linejoin="round" stroke-linecap="butt" d="m312.0 40.0l192.0 0l0 32.0l-192.0 0z" fill-rule="evenodd"/><path fill="#000000" d="m378.81866 62.92l-3.90625 -9.671875l2.6875 0l1.828125 4.9375l0.53125 1.640625q0.203125 -0.625 0.265625 -0.828125q0.125 -0.40625 0.265625 -0.8125l1.84375 -4.9375l2.625 0l-3.84375 9.671875l-2.296875 0zm13.313202 -3.078125l2.546875 0.421875q-0.484375 1.40625 -1.546875 2.140625q-1.0625 0.734375 -2.65625 0.734375q-2.515625 0 -3.734375 -1.65625q-0.953125 -1.3125 -0.953125 -3.328125q0 -2.40625 1.25 -3.765625q1.265625 -1.359375 3.1875 -1.359375q2.15625 0 3.40625 1.421875q1.25 1.421875 1.1875 4.375l-6.40625 0q0.03125 1.140625 0.609375 1.78125q0.59375 0.625 1.484375 0.625q0.59375 0 1.0 -0.328125q0.421875 -0.328125 0.625 -1.0625zm0.15625 -2.59375q-0.03125 -1.109375 -0.578125 -1.6875q-0.546875 -0.578125 -1.328125 -0.578125q-0.84375 0 -1.390625 0.609375q-0.546875 0.609375 -0.53125 1.65625l3.828125 0zm7.0788574 5.671875l-2.5625 0l0 -9.671875l2.375 0l0 1.375q0.609375 -0.984375 1.09375 -1.28125q0.484375 -0.3125 1.109375 -0.3125q0.875 0 1.6875 0.484375l-0.796875 2.234375q-0.640625 -0.421875 -1.203125 -0.421875q-0.53125 0 -0.90625 0.296875q-0.375 0.296875 -0.59375 1.078125q-0.203125 0.765625 -0.203125 3.234375l0 2.984375zm3.900879 -2.765625l2.5625 -0.390625q0.171875 0.75 0.671875 1.140625q0.5 0.390625 1.40625 0.390625q0.984375 0 1.484375 -0.375q0.34375 -0.25 0.34375 -0.671875q0 -0.296875 -0.1875 -0.484375q-0.1875 -0.1875 -0.859375 -0.34375q-3.09375 -0.6875 -3.921875 -1.25q-1.140625 -0.78125 -1.140625 -2.171875q0 -1.265625 0.984375 -2.109375q1.0 -0.859375 3.078125 -0.859375q1.984375 0 2.953125 0.65625q0.96875 0.640625 1.328125 1.90625l-2.40625 0.4375q-0.15625 -0.5625 -0.59375 -0.859375q-0.421875 -0.296875 -1.234375 -0.296875q-1.0 0 -1.4375 0.28125q-0.296875 0.203125 -0.296875 0.515625q0 0.265625 0.25 0.46875q0.34375 0.25 2.390625 0.71875q2.046875 0.453125 2.859375 1.140625q0.796875 0.671875 0.796875 1.890625q0 1.34375 -1.109375 2.296875q-1.109375 0.953125 -3.28125 0.953125q-1.984375 0 -3.140625 -0.796875q-1.140625 -0.8125 -1.5 -2.1875zm11.281982 -8.21875l0 -2.375l2.5625 0l0 2.375l-2.5625 0zm0 10.984375l0 -9.671875l2.5625 0l0 9.671875l-2.5625 0zm4.5895386 -4.96875q0 -1.28125 0.625 -2.46875q0.625 -1.203125 1.78125 -1.828125q1.15625 -0.625 2.578125 -0.625q2.1875 0 3.59375 1.421875q1.40625 1.421875 1.40625 3.609375q0 2.1875 -1.421875 3.640625q-1.421875 1.4375 -3.5625 1.4375q-1.328125 0 -2.546875 -0.59375q-1.203125 -0.609375 -1.828125 -1.765625q-0.625 -1.171875 -0.625 -2.828125zm2.625 0.125q0 1.453125 0.671875 2.21875q0.6875 0.75 1.6875 0.75q1.0 0 1.671875 -0.75q0.6875 -0.765625 0.6875 -2.234375q0 -1.421875 -0.6875 -2.1875q-0.671875 -0.765625 -1.671875 -0.765625q-1.0 0 -1.6875 0.765625q-0.671875 0.765625 -0.671875 2.203125zm18.161621 4.84375l-2.5625 0l0 -4.9375q0 -1.5625 -0.171875 -2.015625q-0.15625 -0.46875 -0.53125 -0.71875q-0.359375 -0.265625 -0.875 -0.265625q-0.671875 0 -1.203125 0.375q-0.53125 0.359375 -0.734375 0.96875q-0.1875 0.59375 -0.1875 2.21875l0 4.375l-2.546875 0l0 -9.671875l2.375 0l0 1.421875q1.265625 -1.640625 3.1875 -1.640625q0.84375 0 1.546875 0.3125q0.703125 0.296875 1.0625 0.78125q0.359375 0.46875 0.5 1.078125q0.140625 0.59375 0.140625 1.703125l0 6.015625z" fill-rule="nonzero"/><path fill="#fff2cc" d="m504.0 40.0l384.0 0l0 32.0l-384.0 0z" fill-rule="evenodd"/><path stroke="#000000" stroke-width="1.0" stroke-linejoin="round" stroke-linecap="butt" d="m504.0 40.0l384.0 0l0 32.0l-384.0 0z" fill-rule="evenodd"/><path fill="#000000" d="m659.4909 62.92l-2.5625 0l0 -4.9375q0 -1.5625 -0.171875 -2.015625q-0.15625 -0.46875 -0.53125 -0.71875q-0.359375 -0.265625 -0.875 -0.265625q-0.671875 0 -1.203125 0.375q-0.53125 0.359375 -0.734375 0.96875q-0.1875 0.59375 -0.1875 2.21875l0 4.375l-2.546875 0l0 -9.671875l2.375 0l0 1.421875q1.265625 -1.640625 3.1875 -1.640625q0.84375 0 1.546875 0.3125q0.703125 0.296875 1.0625 0.78125q0.359375 0.46875 0.5 1.078125q0.140625 0.59375 0.140625 1.703125l0 6.015625zm8.19281 -3.078125l2.546875 0.421875q-0.484375 1.40625 -1.546875 2.140625q-1.0625 0.734375 -2.65625 0.734375q-2.515625 0 -3.734375 -1.65625q-0.953125 -1.3125 -0.953125 -3.328125q0 -2.40625 1.25 -3.765625q1.265625 -1.359375 3.1875 -1.359375q2.15625 0 3.40625 1.421875q1.25 1.421875 1.1875 4.375l-6.40625 0q0.03125 1.140625 0.609375 1.78125q0.59375 0.625 1.484375 0.625q0.59375 0 1.0 -0.328125q0.421875 -0.328125 0.625 -1.0625zm0.15625 -2.59375q-0.03125 -1.109375 -0.578125 -1.6875q-0.546875 -0.578125 -1.328125 -0.578125q-0.84375 0 -1.390625 0.609375q-0.546875 0.609375 -0.53125 1.65625l3.828125 0zm3.3913574 5.671875l3.484375 -4.984375l-3.34375 -4.6875l3.125 0l1.71875 2.65625l1.796875 -2.65625l3.015625 0l-3.28125 4.578125l3.578125 5.09375l-3.140625 0l-1.96875 -3.0l-1.984375 3.0l-3.0 0zm16.047607 -9.671875l0 2.03125l-1.75 0l0 3.90625q0 1.1875 0.046875 1.390625q0.046875 0.1875 0.21875 0.3125q0.1875 0.125 0.4375 0.125q0.359375 0 1.03125 -0.25l0.21875 2.0q-0.890625 0.375 -2.015625 0.375q-0.703125 0 -1.265625 -0.234375q-0.546875 -0.234375 -0.8125 -0.59375q-0.25 -0.375 -0.34375 -1.0q-0.09375 -0.453125 -0.09375 -1.8125l0 -4.21875l-1.171875 0l0 -2.03125l1.171875 0l0 -1.921875l2.578125 -1.5l0 3.421875l1.75 0zm0.25952148 13.359375l0 -1.65625l10.640625 0l0 1.65625l-10.640625 0zm20.688232 -3.6875l-2.5625 0l0 -4.9375q0 -1.5625 -0.171875 -2.015625q-0.15625 -0.46875 -0.53125 -0.71875q-0.359375 -0.265625 -0.875 -0.265625q-0.671875 0 -1.203125 0.375q-0.53125 0.359375 -0.734375 0.96875q-0.1875 0.59375 -0.1875 2.21875l0 4.375l-2.546875 0l0 -9.671875l2.375 0l0 1.421875q1.265625 -1.640625 3.1875 -1.640625q0.84375 0 1.546875 0.3125q0.703125 0.296875 1.0625 0.78125q0.359375 0.46875 0.5 1.078125q0.140625 0.59375 0.140625 1.703125l0 6.015625zm2.005371 -4.96875q0 -1.28125 0.625 -2.46875q0.625 -1.203125 1.78125 -1.828125q1.15625 -0.625 2.578125 -0.625q2.1875 0 3.59375 1.421875q1.40625 1.421875 1.40625 3.609375q0 2.1875 -1.421875 3.640625q-1.421875 1.4375 -3.5625 1.4375q-1.328125 0 -2.546875 -0.59375q-1.203125 -0.609375 -1.828125 -1.765625q-0.625 -1.171875 -0.625 -2.828125zm2.625 0.125q0 1.453125 0.671875 2.21875q0.6875 0.75 1.6875 0.75q1.0 0 1.671875 -0.75q0.6875 -0.765625 0.6875 -2.234375q0 -1.421875 -0.6875 -2.1875q-0.671875 -0.765625 -1.671875 -0.765625q-1.0 0 -1.6875 0.765625q-0.671875 0.765625 -0.671875 2.203125zm18.239746 4.84375l-2.390625 0l0 -1.421875q-0.59375 0.828125 -1.40625 1.234375q-0.796875 0.40625 -1.609375 0.40625q-1.671875 0 -2.859375 -1.34375q-1.1875 -1.34375 -1.1875 -3.75q0 -2.453125 1.15625 -3.734375q1.15625 -1.28125 2.921875 -1.28125q1.625 0 2.8125 1.34375l0 -4.8125l2.5625 0l0 13.359375zm-6.84375 -5.046875q0 1.546875 0.4375 2.234375q0.609375 1.015625 1.71875 1.015625q0.890625 0 1.5 -0.75q0.625 -0.765625 0.625 -2.25q0 -1.671875 -0.609375 -2.40625q-0.59375 -0.734375 -1.53125 -0.734375q-0.90625 0 -1.53125 0.734375q-0.609375 0.71875 -0.609375 2.15625zm14.958496 1.96875l2.546875 0.421875q-0.484375 1.40625 -1.546875 2.140625q-1.0625 0.734375 -2.65625 0.734375q-2.515625 0 -3.734375 -1.65625q-0.953125 -1.3125 -0.953125 -3.328125q0 -2.40625 1.25 -3.765625q1.265625 -1.359375 3.1875 -1.359375q2.15625 0 3.40625 1.421875q1.25 1.421875 1.1875 4.375l-6.40625 0q0.03125 1.140625 0.609375 1.78125q0.59375 0.625 1.484375 0.625q0.59375 0 1.0 -0.328125q0.421875 -0.328125 0.625 -1.0625zm0.15625 -2.59375q-0.03125 -1.109375 -0.578125 -1.6875q-0.546875 -0.578125 -1.328125 -0.578125q-0.84375 0 -1.390625 0.609375q-0.546875 0.609375 -0.53125 1.65625l3.828125 0z" fill-rule="nonzero"/><path fill="#000000" fill-opacity="0.0" d="m896.0 40.0l0 0c6.6274414 0 12.0 0.8953934 12.0 1.9999199l0 12.00016c0 1.1045265 5.3725586 1.9999199 12.0 1.9999199l0 0c-6.6274414 0 -12.0 0.8953934 -12.0 1.9999199l0 12.000156c0 1.1045303 -5.3725586 1.9999237 -12.0 1.9999237z" fill-rule="evenodd"/><path fill="#000000" fill-opacity="0.0" d="m896.0 40.0l0 0c6.6274414 0 12.0 0.8953934 12.0 1.9999199l0 12.00016c0 1.1045265 5.3725586 1.9999199 12.0 1.9999199l0 0c-6.6274414 0 -12.0 0.8953934 -12.0 1.9999199l0 12.000156c0 1.1045303 -5.3725586 1.9999237 -12.0 1.9999237" fill-rule="evenodd"/><path stroke="#000000" stroke-width="2.0" stroke-linejoin="round" stroke-linecap="butt" d="m896.0 40.0l0 0c6.6274414 0 12.0 0.8953934 12.0 1.9999199l0 12.00016c0 1.1045265 5.3725586 1.9999199 12.0 1.9999199l0 0c-6.6274414 0 -12.0 0.8953934 -12.0 1.9999199l0 12.000156c0 1.1045303 -5.3725586 1.9999237 -12.0 1.9999237" fill-rule="evenodd"/><path fill="#000000" fill-opacity="0.0" d="m920.0 40.0l112.0 0l0 32.0l-112.0 0z" fill-rule="evenodd"/><path fill="#000000" d="m930.4219 51.92l0 -13.359375l1.8125 0l7.015625 10.484375l0 -10.484375l1.6875 0l0 13.359375l-1.8125 0l-7.015625 -10.5l0 10.5l-1.6875 0zm12.676086 -4.84375q0 -2.6875 1.484375 -3.96875q1.25 -1.078125 3.046875 -1.078125q2.0 0 3.265625 1.3125q1.265625 1.296875 1.265625 3.609375q0 1.859375 -0.5625 2.9375q-0.5625 1.0625 -1.640625 1.65625q-1.0625 0.59375 -2.328125 0.59375q-2.03125 0 -3.28125 -1.296875q-1.25 -1.3125 -1.25 -3.765625zm1.6875 0q0 1.859375 0.796875 2.796875q0.8125 0.921875 2.046875 0.921875q1.21875 0 2.03125 -0.921875q0.8125 -0.9375 0.8125 -2.84375q0 -1.796875 -0.8125 -2.71875q-0.8125 -0.921875 -2.03125 -0.921875q-1.234375 0 -2.046875 0.921875q-0.796875 0.90625 -0.796875 2.765625zm15.563171 4.84375l0 -1.21875q-0.90625 1.4375 -2.703125 1.4375q-1.15625 0 -2.125 -0.640625q-0.96875 -0.640625 -1.5 -1.78125q-0.53125 -1.140625 -0.53125 -2.625q0 -1.453125 0.484375 -2.625q0.484375 -1.1875 1.4375 -1.8125q0.96875 -0.625 2.171875 -0.625q0.875 0 1.546875 0.375q0.6875 0.359375 1.109375 0.953125l0 -4.796875l1.640625 0l0 13.359375l-1.53125 0zm-5.171875 -4.828125q0 1.859375 0.78125 2.78125q0.78125 0.921875 1.84375 0.921875q1.078125 0 1.828125 -0.875q0.75 -0.890625 0.75 -2.6875q0 -1.984375 -0.765625 -2.90625q-0.765625 -0.9375 -1.890625 -0.9375q-1.078125 0 -1.8125 0.890625q-0.734375 0.890625 -0.734375 2.8125zm15.906982 1.71875l1.6875 0.203125q-0.40625 1.484375 -1.484375 2.3125q-1.078125 0.8125 -2.765625 0.8125q-2.125 0 -3.375 -1.296875q-1.234375 -1.3125 -1.234375 -3.671875q0 -2.453125 1.25 -3.796875q1.265625 -1.34375 3.265625 -1.34375q1.9375 0 3.15625 1.328125q1.234375 1.3125 1.234375 3.703125q0 0.15625 0 0.4375l-7.21875 0q0.09375 1.59375 0.90625 2.453125q0.8125 0.84375 2.015625 0.84375q0.90625 0 1.546875 -0.46875q0.640625 -0.484375 1.015625 -1.515625zm-5.390625 -2.65625l5.40625 0q-0.109375 -1.21875 -0.625 -1.828125q-0.78125 -0.953125 -2.03125 -0.953125q-1.125 0 -1.90625 0.765625q-0.765625 0.75 -0.84375 2.015625z" fill-rule="nonzero"/><path fill="#000000" d="m930.4375 73.92l0 -13.359375l5.046875 0q1.328125 0 2.03125 0.125q0.96875 0.171875 1.640625 0.640625q0.671875 0.453125 1.078125 1.28125q0.40625 0.828125 0.40625 1.828125q0 1.703125 -1.09375 2.890625q-1.078125 1.171875 -3.921875 1.171875l-3.421875 0l0 5.421875l-1.765625 0zm1.765625 -7.0l3.453125 0q1.71875 0 2.4375 -0.640625q0.71875 -0.640625 0.71875 -1.796875q0 -0.84375 -0.421875 -1.4375q-0.421875 -0.59375 -1.125 -0.78125q-0.4375 -0.125 -1.640625 -0.125l-3.421875 0l0 4.78125zm10.4592285 7.0l0 -9.671875l1.46875 0l0 1.46875q0.5625 -1.03125 1.03125 -1.359375q0.484375 -0.328125 1.0625 -0.328125q0.828125 0 1.6875 0.53125l-0.5625 1.515625q-0.609375 -0.359375 -1.203125 -0.359375q-0.546875 0 -0.96875 0.328125q-0.421875 0.328125 -0.609375 0.890625q-0.28125 0.875 -0.28125 1.921875l0 5.0625l-1.625 0zm12.8532715 -3.109375l1.6875 0.203125q-0.40625 1.484375 -1.484375 2.3125q-1.078125 0.8125 -2.765625 0.8125q-2.125 0 -3.375 -1.296875q-1.234375 -1.3125 -1.234375 -3.671875q0 -2.453125 1.25 -3.796875q1.265625 -1.34375 3.265625 -1.34375q1.9375 0 3.15625 1.328125q1.234375 1.3125 1.234375 3.703125q0 0.15625 0 0.4375l-7.21875 0q0.09375 1.59375 0.90625 2.453125q0.8125 0.84375 2.015625 0.84375q0.90625 0 1.546875 -0.46875q0.640625 -0.484375 1.015625 -1.515625zm-5.390625 -2.65625l5.40625 0q-0.109375 -1.21875 -0.625 -1.828125q-0.78125 -0.953125 -2.03125 -0.953125q-1.125 0 -1.90625 0.765625q-0.765625 0.75 -0.84375 2.015625zm9.094482 5.765625l0 -13.359375l1.640625 0l0 13.359375l-1.640625 0zm10.519775 0l0 -1.421875q-1.125 1.640625 -3.0625 1.640625q-0.859375 0 -1.609375 -0.328125q-0.734375 -0.328125 -1.09375 -0.828125q-0.359375 -0.5 -0.5 -1.21875q-0.109375 -0.46875 -0.109375 -1.53125l0 -5.984375l1.640625 0l0 5.359375q0 1.28125 0.109375 1.734375q0.15625 0.640625 0.65625 1.015625q0.5 0.375 1.234375 0.375q0.734375 0 1.375 -0.375q0.65625 -0.390625 0.921875 -1.03125q0.265625 -0.65625 0.265625 -1.890625l0 -5.1875l1.640625 0l0 9.671875l-1.46875 0zm10.313232 0l0 -1.21875q-0.90625 1.4375 -2.703125 1.4375q-1.15625 0 -2.125 -0.640625q-0.96875 -0.640625 -1.5 -1.78125q-0.53125 -1.140625 -0.53125 -2.625q0 -1.453125 0.484375 -2.625q0.484375 -1.1875 1.4375 -1.8125q0.96875 -0.625 2.171875 -0.625q0.875 0 1.546875 0.375q0.6875 0.359375 1.109375 0.953125l0 -4.796875l1.640625 0l0 13.359375l-1.53125 0zm-5.171875 -4.828125q0 1.859375 0.78125 2.78125q0.78125 0.921875 1.84375 0.921875q1.078125 0 1.828125 -0.875q0.75 -0.890625 0.75 -2.6875q0 -1.984375 -0.765625 -2.90625q-0.765625 -0.9375 -1.890625 -0.9375q-1.078125 0 -1.8125 0.890625q-0.734375 0.890625 -0.734375 2.8125zm15.906982 1.71875l1.6875 0.203125q-0.40625 1.484375 -1.484375 2.3125q-1.078125 0.8125 -2.765625 0.8125q-2.125 0 -3.375 -1.296875q-1.234375 -1.3125 -1.234375 -3.671875q0 -2.453125 1.25 -3.796875q1.265625 -1.34375 3.265625 -1.34375q1.9375 0 3.15625 1.328125q1.234375 1.3125 1.234375 3.703125q0 0.15625 0 0.4375l-7.21875 0q0.09375 1.59375 0.90625 2.453125q0.8125 0.84375 2.015625 0.84375q0.90625 0 1.546875 -0.46875q0.640625 -0.484375 1.015625 -1.515625zm-5.390625 -2.65625l5.40625 0q-0.109375 -1.21875 -0.625 -1.828125q-0.78125 -0.953125 -2.03125 -0.953125q-1.125 0 -1.90625 0.765625q-0.765625 0.75 -0.84375 2.015625z" fill-rule="nonzero"/><path fill="#000000" fill-opacity="0.0" d="m48.0 232.0l72.0 0l0 32.0l-72.0 0z" fill-rule="evenodd"/><path fill="#000000" d="m100.328125 254.28188l0 2.0781097l-1.859375 0l0 -2.0781097l-4.75 0l0 -1.640625l3.984375 -6.5l2.625 0l0 6.453125l1.546875 0l0 1.6875l-1.546875 0zm-1.84375 -6.296875l-2.90625 4.609375l2.90625 0l0 -4.609375zm9.8125 2.96875q0.390625 0.203125 0.734375 0.46875q0.34375 0.25 0.609375 0.578125q0.265625 0.328125 0.40625 0.75q0.15625 0.421875 0.15625 0.953125q0 0.6875 -0.28125 1.21875q-0.28125 0.53125 -0.78125 0.890625q-0.484375 0.35935974 -1.15625 0.54685974q-0.671875 0.1875 -1.4375 0.1875q-0.859375 0 -1.53125 -0.1875q-0.65625 -0.1875 -1.109375 -0.51560974q-0.4375 -0.34375 -0.671875 -0.8125q-0.234375 -0.484375 -0.234375 -1.078125q0 -0.515625 0.15625 -0.921875q0.15625 -0.421875 0.421875 -0.75q0.265625 -0.34375 0.609375 -0.609375q0.34375 -0.265625 0.734375 -0.484375q-0.34375 -0.203125 -0.65625 -0.4375q-0.3125 -0.25 -0.546875 -0.546875q-0.234375 -0.3125 -0.375 -0.6875q-0.125 -0.375 -0.125 -0.859375q0 -0.546875 0.203125 -1.03125q0.21875 -0.5 0.640625 -0.859375q0.4375 -0.375 1.078125 -0.578125q0.640625 -0.21875 1.515625 -0.21875q0.796875 0 1.421875 0.171875q0.625 0.171875 1.046875 0.484375q0.421875 0.3125 0.640625 0.75q0.234375 0.421875 0.234375 0.953125q0 0.484375 -0.140625 0.875q-0.125 0.390625 -0.359375 0.703125q-0.21875 0.3125 -0.53125 0.578125q-0.3125 0.25 -0.671875 0.46875zm-1.5 -0.734375q0.28125 -0.15625 0.53125 -0.328125q0.25 -0.1875 0.421875 -0.390625q0.1875 -0.21875 0.296875 -0.46875q0.109375 -0.25 0.109375 -0.546875q0 -0.515625 -0.40625 -0.78125q-0.390625 -0.265625 -1.140625 -0.265625q-0.734375 0 -1.140625 0.28125q-0.390625 0.265625 -0.390625 0.8125q0 0.296875 0.125 0.53125q0.140625 0.234375 0.375 0.4375q0.234375 0.203125 0.546875 0.375q0.3125 0.171875 0.671875 0.34375zm-0.390625 1.71875q-0.3125 0.171875 -0.578125 0.359375q-0.265625 0.1875 -0.46875 0.421875q-0.203125 0.21875 -0.328125 0.484375q-0.109375 0.265625 -0.109375 0.609375q0 0.59375 0.453125 0.90625q0.46875 0.3125 1.234375 0.3125q0.34375 0 0.640625 -0.0625q0.3125 -0.078125 0.53125 -0.21875q0.234375 -0.15625 0.359375 -0.390625q0.140625 -0.234375 0.140625 -0.546875q0 -0.328125 -0.15625 -0.59375q-0.140625 -0.265625 -0.40625 -0.484375q-0.25 -0.21875 -0.59375 -0.40625q-0.34375 -0.203125 -0.71875 -0.390625z" fill-rule="nonzero"/><path fill="#000000" fill-opacity="0.0" d="m48.0 264.0l72.0 0l0 32.0l-72.0 0z" fill-rule="evenodd"/><path fill="#000000" d="m101.265625 285.09436q0 0.8125 -0.34375 1.453125q-0.34375 0.640625 -0.953125 1.078125q-0.609375 0.4375 -1.4375 0.671875q-0.828125 0.21875 -1.796875 0.21875q-0.234375 0 -0.515625 -0.015625q-0.265625 -0.015625 -0.546875 -0.046875q-0.28125 -0.015625 -0.546875 -0.046875q-0.265625 -0.03125 -0.5 -0.078125l0 -1.671875q0.453125 0.109375 1.03125 0.1875q0.578125 0.0625 1.171875 0.0625q1.171875 0 1.78125 -0.453125q0.625 -0.453125 0.625 -1.25q0 -0.828125 -0.578125 -1.21875q-0.5625 -0.40625 -1.84375 -0.40625l-2.0 0l0 -5.4375l5.890625 0l0 1.796875l-4.109375 0l0 2.078125l0.734375 0q0.78125 0 1.484375 0.140625q0.71875 0.140625 1.265625 0.5q0.546875 0.34375 0.859375 0.9375q0.328125 0.59375 0.328125 1.5zm9.140625 0.03125q0 0.765625 -0.28125 1.40625q-0.28125 0.625 -0.78125 1.078125q-0.5 0.4375 -1.1875 0.6875q-0.6875 0.25 -1.5 0.25q-1.796875 0 -2.75 -1.125q-0.9375 -1.140625 -0.9375 -3.453125q0 -0.84375 0.09375 -1.59375q0.109375 -0.765625 0.34375 -1.40625q0.25 -0.65625 0.640625 -1.171875q0.40625 -0.53125 1.0 -0.890625q0.609375 -0.359375 1.421875 -0.5625q0.828125 -0.203125 1.921875 -0.203125l1.15625 0l0 1.625l-1.359375 0q-0.84375 0 -1.421875 0.171875q-0.5625 0.171875 -0.921875 0.5q-0.359375 0.3125 -0.546875 0.78125q-0.171875 0.453125 -0.21875 1.03125l-0.015625 0.1875q0.40625 -0.203125 0.921875 -0.328125q0.515625 -0.125 1.09375 -0.125q0.828125 0 1.453125 0.21875q0.625 0.21875 1.03125 0.625q0.421875 0.40625 0.625 0.984375q0.21875 0.578125 0.21875 1.3125zm-1.984375 0.078125q0 -0.359375 -0.09375 -0.65625q-0.09375 -0.296875 -0.296875 -0.515625q-0.203125 -0.21875 -0.515625 -0.328125q-0.296875 -0.125 -0.734375 -0.125q-0.25 0 -0.5 0.046875q-0.234375 0.03125 -0.46875 0.109375q-0.234375 0.0625 -0.4375 0.15625q-0.203125 0.078125 -0.375 0.171875q0 0.796875 0.109375 1.34375q0.109375 0.53125 0.328125 0.875q0.234375 0.34375 0.5625 0.5q0.328125 0.15625 0.765625 0.15625q0.375 0 0.671875 -0.125q0.3125 -0.125 0.53125 -0.359375q0.21875 -0.234375 0.328125 -0.546875q0.125 -0.3125 0.125 -0.703125z" fill-rule="nonzero"/><path fill="#cfe2f3" d="m504.0 72.0l192.0 0l0 32.0l-192.0 0z" fill-rule="evenodd"/><path stroke="#000000" stroke-width="1.0" stroke-linejoin="round" stroke-linecap="butt" d="m504.0 72.0l192.0 0l0 32.0l-192.0 0z" fill-rule="evenodd"/><path fill="#000000" d="m548.8872 91.84187l2.546875 0.421875q-0.484375 1.40625 -1.546875 2.140625q-1.0625 0.734375 -2.65625 0.734375q-2.515625 0 -3.734375 -1.65625q-0.953125 -1.3125 -0.953125 -3.328125q0 -2.40625 1.25 -3.765625q1.265625 -1.359375 3.1875 -1.359375q2.15625 0 3.40625 1.421875q1.25 1.421875 1.1875 4.375l-6.40625 0q0.03125 1.140625 0.609375 1.78125q0.59375 0.625 1.484375 0.625q0.59375 0 1.0 -0.328125q0.421875 -0.328125 0.625 -1.0625zm0.15625 -2.59375q-0.03125 -1.109375 -0.578125 -1.6875q-0.546875 -0.578125 -1.328125 -0.578125q-0.84375 0 -1.390625 0.609375q-0.546875 0.609375 -0.53125 1.65625l3.828125 0zm3.3913574 5.671875l3.484375 -4.984375l-3.34375 -4.6875l3.125 0l1.71875 2.65625l1.796875 -2.65625l3.015625 0l-3.28125 4.578125l3.578125 5.09375l-3.140625 0l-1.96875 -3.0l-1.984375 3.0l-3.0 0zm16.047607 -9.671875l0 2.03125l-1.75 0l0 3.90625q0 1.1875 0.046875 1.390625q0.046875 0.1875 0.21875 0.3125q0.1875 0.125 0.4375 0.125q0.359375 0 1.03125 -0.25l0.21875 2.0q-0.890625 0.375 -2.015625 0.375q-0.703125 0 -1.265625 -0.234375q-0.546875 -0.234375 -0.8125 -0.59375q-0.25 -0.375 -0.34375 -1.0q-0.09375 -0.453125 -0.09375 -1.8125l0 -4.21875l-1.171875 0l0 -2.03125l1.171875 0l0 -1.921875l2.578125 -1.5l0 3.421875l1.75 0zm7.3688965 6.59375l2.546875 0.421875q-0.484375 1.40625 -1.546875 2.140625q-1.0625 0.734375 -2.65625 0.734375q-2.515625 0 -3.734375 -1.65625q-0.953125 -1.3125 -0.953125 -3.328125q0 -2.40625 1.25 -3.765625q1.265625 -1.359375 3.1875 -1.359375q2.15625 0 3.40625 1.421875q1.25 1.421875 1.1875 4.375l-6.40625 0q0.03125 1.140625 0.609375 1.78125q0.59375 0.625 1.484375 0.625q0.59375 0 1.0 -0.328125q0.421875 -0.328125 0.625 -1.0625zm0.15625 -2.59375q-0.03125 -1.109375 -0.578125 -1.6875q-0.546875 -0.578125 -1.328125 -0.578125q-0.84375 0 -1.390625 0.609375q-0.546875 0.609375 -0.53125 1.65625l3.828125 0zm13.422607 5.671875l-2.5625 0l0 -4.9375q0 -1.5625 -0.171875 -2.015625q-0.15625 -0.46875 -0.53125 -0.71875q-0.359375 -0.265625 -0.875 -0.265625q-0.671875 0 -1.203125 0.375q-0.53125 0.359375 -0.734375 0.96875q-0.1875 0.59375 -0.1875 2.21875l0 4.375l-2.546875 0l0 -9.671875l2.375 0l0 1.421875q1.265625 -1.640625 3.1875 -1.640625q0.84375 0 1.546875 0.3125q0.703125 0.296875 1.0625 0.78125q0.359375 0.46875 0.5 1.078125q0.140625 0.59375 0.140625 1.703125l0 6.015625zm7.036621 -9.671875l0 2.03125l-1.75 0l0 3.90625q0 1.1875 0.046875 1.390625q0.046875 0.1875 0.21875 0.3125q0.1875 0.125 0.4375 0.125q0.359375 0 1.03125 -0.25l0.21875 2.0q-0.890625 0.375 -2.015625 0.375q-0.703125 0 -1.265625 -0.234375q-0.546875 -0.234375 -0.8125 -0.59375q-0.25 -0.375 -0.34375 -1.0q-0.09375 -0.453125 -0.09375 -1.8125l0 -4.21875l-1.171875 0l0 -2.03125l1.171875 0l0 -1.921875l2.578125 -1.5l0 3.421875l1.75 0zm0.25952148 13.359375l0 -1.65625l10.640625 0l0 1.65625l-10.640625 0zm20.328857 -10.5l-2.53125 0.453125q-0.125 -0.75 -0.578125 -1.125q-0.453125 -0.390625 -1.171875 -0.390625q-0.953125 0 -1.53125 0.65625q-0.5625 0.65625 -0.5625 2.203125q0 1.734375 0.578125 2.4375q0.578125 0.703125 1.546875 0.703125q0.734375 0 1.203125 -0.40625q0.46875 -0.421875 0.65625 -1.421875l2.515625 0.421875q-0.390625 1.734375 -1.515625 2.625q-1.109375 0.875 -2.96875 0.875q-2.125 0 -3.390625 -1.328125q-1.25 -1.34375 -1.25 -3.71875q0 -2.390625 1.265625 -3.71875q1.265625 -1.34375 3.421875 -1.34375q1.765625 0 2.796875 0.765625q1.046875 0.75 1.515625 2.3125zm1.3444824 1.84375q0 -1.28125 0.625 -2.46875q0.625 -1.203125 1.78125 -1.828125q1.15625 -0.625 2.578125 -0.625q2.1875 0 3.59375 1.421875q1.40625 1.421875 1.40625 3.609375q0 2.1875 -1.421875 3.640625q-1.421875 1.4375 -3.5625 1.4375q-1.328125 0 -2.546875 -0.59375q-1.203125 -0.609375 -1.828125 -1.765625q-0.625 -1.171875 -0.625 -2.828125zm2.625 0.125q0 1.453125 0.671875 2.21875q0.6875 0.75 1.6875 0.75q1.0 0 1.671875 -0.75q0.6875 -0.765625 0.6875 -2.234375q0 -1.421875 -0.6875 -2.1875q-0.671875 -0.765625 -1.671875 -0.765625q-1.0 0 -1.6875 0.765625q-0.671875 0.765625 -0.671875 2.203125zm15.724121 4.84375l0 -1.453125q-0.53125 0.78125 -1.390625 1.234375q-0.859375 0.4375 -1.8125 0.4375q-0.96875 0 -1.75 -0.421875q-0.765625 -0.4375 -1.125 -1.203125q-0.34375 -0.78125 -0.34375 -2.140625l0 -6.125l2.5625 0l0 4.4375q0 2.046875 0.140625 2.515625q0.140625 0.453125 0.515625 0.71875q0.375 0.265625 0.953125 0.265625q0.65625 0 1.171875 -0.359375q0.515625 -0.359375 0.703125 -0.890625q0.203125 -0.53125 0.203125 -2.609375l0 -4.078125l2.546875 0l0 9.671875l-2.375 0zm13.833496 0l-2.5625 0l0 -4.9375q0 -1.5625 -0.171875 -2.015625q-0.15625 -0.46875 -0.53125 -0.71875q-0.359375 -0.265625 -0.875 -0.265625q-0.671875 0 -1.203125 0.375q-0.53125 0.359375 -0.734375 0.96875q-0.1875 0.59375 -0.1875 2.21875l0 4.375l-2.546875 0l0 -9.671875l2.375 0l0 1.421875q1.265625 -1.640625 3.1875 -1.640625q0.84375 0 1.546875 0.3125q0.703125 0.296875 1.0625 0.78125q0.359375 0.46875 0.5 1.078125q0.140625 0.59375 0.140625 1.703125l0 6.015625zm7.03656 -9.671875l0 2.03125l-1.75 0l0 3.90625q0 1.1875 0.046875 1.390625q0.046875 0.1875 0.21875 0.3125q0.1875 0.125 0.4375 0.125q0.359375 0 1.03125 -0.25l0.21875 2.0q-0.890625 0.375 -2.015625 0.375q-0.703125 0 -1.265625 -0.234375q-0.546875 -0.234375 -0.8125 -0.59375q-0.25 -0.375 -0.34375 -1.0q-0.09375 -0.453125 -0.09375 -1.8125l0 -4.21875l-1.171875 0l0 -2.03125l1.171875 0l0 -1.921875l2.578125 -1.5l0 3.421875l1.75 0z" fill-rule="nonzero"/><path fill="#cfe2f3" d="m696.0 72.0l192.0 0l0 32.0l-192.0 0z" fill-rule="evenodd"/><path stroke="#000000" stroke-width="1.0" stroke-linejoin="round" stroke-linecap="butt" d="m696.0 72.0l192.0 0l0 32.0l-192.0 0z" fill-rule="evenodd"/><path fill="#000000" d="m756.8993 94.92l-2.5625 0l0 -9.671875l2.375 0l0 1.375q0.609375 -0.984375 1.09375 -1.28125q0.484375 -0.3125 1.109375 -0.3125q0.875 0 1.6875 0.484375l-0.796875 2.234375q-0.640625 -0.421875 -1.203125 -0.421875q-0.53125 0 -0.90625 0.296875q-0.375 0.296875 -0.59375 1.078125q-0.203125 0.765625 -0.203125 3.234375l0 2.984375zm10.40094 -3.078125l2.546875 0.421875q-0.484375 1.40625 -1.546875 2.140625q-1.0625 0.734375 -2.65625 0.734375q-2.515625 0 -3.734375 -1.65625q-0.953125 -1.3125 -0.953125 -3.328125q0 -2.40625 1.25 -3.765625q1.265625 -1.359375 3.1875 -1.359375q2.15625 0 3.40625 1.421875q1.25 1.421875 1.1875 4.375l-6.40625 0q0.03125 1.140625 0.609375 1.78125q0.59375 0.625 1.484375 0.625q0.59375 0 1.0 -0.328125q0.421875 -0.328125 0.625 -1.0625zm0.15625 -2.59375q-0.03125 -1.109375 -0.578125 -1.6875q-0.546875 -0.578125 -1.328125 -0.578125q-0.84375 0 -1.390625 0.609375q-0.546875 0.609375 -0.53125 1.65625l3.828125 0zm3.7194214 2.90625l2.5625 -0.390625q0.171875 0.75 0.671875 1.140625q0.5 0.390625 1.40625 0.390625q0.984375 0 1.484375 -0.375q0.34375 -0.25 0.34375 -0.671875q0 -0.296875 -0.1875 -0.484375q-0.1875 -0.1875 -0.859375 -0.34375q-3.09375 -0.6875 -3.921875 -1.25q-1.140625 -0.78125 -1.140625 -2.171875q0 -1.265625 0.984375 -2.109375q1.0 -0.859375 3.078125 -0.859375q1.984375 0 2.953125 0.65625q0.96875 0.640625 1.328125 1.90625l-2.40625 0.4375q-0.15625 -0.5625 -0.59375 -0.859375q-0.421875 -0.296875 -1.234375 -0.296875q-1.0 0 -1.4375 0.28125q-0.296875 0.203125 -0.296875 0.515625q0 0.265625 0.25 0.46875q0.34375 0.25 2.390625 0.71875q2.046875 0.453125 2.859375 1.140625q0.796875 0.671875 0.796875 1.890625q0 1.34375 -1.109375 2.296875q-1.109375 0.953125 -3.28125 0.953125q-1.984375 0 -3.140625 -0.796875q-1.140625 -0.8125 -1.5 -2.1875zm16.875732 -0.3125l2.546875 0.421875q-0.484375 1.40625 -1.546875 2.140625q-1.0625 0.734375 -2.65625 0.734375q-2.515625 0 -3.734375 -1.65625q-0.953125 -1.3125 -0.953125 -3.328125q0 -2.40625 1.25 -3.765625q1.265625 -1.359375 3.1875 -1.359375q2.15625 0 3.40625 1.421875q1.25 1.421875 1.1875 4.375l-6.40625 0q0.03125 1.140625 0.609375 1.78125q0.59375 0.625 1.484375 0.625q0.59375 0 1.0 -0.328125q0.421875 -0.328125 0.625 -1.0625zm0.15625 -2.59375q-0.03125 -1.109375 -0.578125 -1.6875q-0.546875 -0.578125 -1.328125 -0.578125q-0.84375 0 -1.390625 0.609375q-0.546875 0.609375 -0.53125 1.65625l3.828125 0zm7.0788574 5.671875l-2.5625 0l0 -9.671875l2.375 0l0 1.375q0.609375 -0.984375 1.09375 -1.28125q0.484375 -0.3125 1.109375 -0.3125q0.875 0 1.6875 0.484375l-0.796875 2.234375q-0.640625 -0.421875 -1.203125 -0.421875q-0.53125 0 -0.90625 0.296875q-0.375 0.296875 -0.59375 1.078125q-0.203125 0.765625 -0.203125 3.234375l0 2.984375zm7.463379 0l-3.90625 -9.671875l2.6875 0l1.828125 4.9375l0.53125 1.640625q0.203125 -0.625 0.265625 -0.828125q0.125 -0.40625 0.265625 -0.8125l1.84375 -4.9375l2.625 0l-3.84375 9.671875l-2.296875 0zm13.313232 -3.078125l2.546875 0.421875q-0.484375 1.40625 -1.546875 2.140625q-1.0625 0.734375 -2.65625 0.734375q-2.515625 0 -3.734375 -1.65625q-0.953125 -1.3125 -0.953125 -3.328125q0 -2.40625 1.25 -3.765625q1.265625 -1.359375 3.1875 -1.359375q2.15625 0 3.40625 1.421875q1.25 1.421875 1.1875 4.375l-6.40625 0q0.03125 1.140625 0.609375 1.78125q0.59375 0.625 1.484375 0.625q0.59375 0 1.0 -0.328125q0.421875 -0.328125 0.625 -1.0625zm0.15625 -2.59375q-0.03125 -1.109375 -0.578125 -1.6875q-0.546875 -0.578125 -1.328125 -0.578125q-0.84375 0 -1.390625 0.609375q-0.546875 0.609375 -0.53125 1.65625l3.828125 0zm13.500732 5.671875l-2.390625 0l0 -1.421875q-0.59375 0.828125 -1.40625 1.234375q-0.796875 0.40625 -1.609375 0.40625q-1.671875 0 -2.859375 -1.34375q-1.1875 -1.34375 -1.1875 -3.75q0 -2.453125 1.15625 -3.734375q1.15625 -1.28125 2.921875 -1.28125q1.625 0 2.8125 1.34375l0 -4.8125l2.5625 0l0 13.359375zm-6.84375 -5.046875q0 1.546875 0.4375 2.234375q0.609375 1.015625 1.71875 1.015625q0.890625 0 1.5 -0.75q0.625 -0.765625 0.625 -2.25q0 -1.671875 -0.609375 -2.40625q-0.59375 -0.734375 -1.53125 -0.734375q-0.90625 0 -1.53125 0.734375q-0.609375 0.71875 -0.609375 2.15625z" fill-rule="nonzero"/><path fill="#cfe2f3" d="m120.0 104.0l768.0 0l0 32.0l-768.0 0z" fill-rule="evenodd"/><path stroke="#000000" stroke-width="1.0" stroke-linejoin="round" stroke-linecap="butt" d="m120.0 104.0l768.0 0l0 32.0l-768.0 0z" fill-rule="evenodd"/><path fill="#000000" d="m466.87488 123.84187l2.546875 0.421875q-0.484375 1.40625 -1.546875 2.140625q-1.0625 0.734375 -2.65625 0.734375q-2.515625 0 -3.734375 -1.65625q-0.953125 -1.3125 -0.953125 -3.328125q0 -2.40625 1.25 -3.765625q1.265625 -1.359375 3.1875 -1.359375q2.15625 0 3.40625 1.421875q1.25 1.421875 1.1875 4.375l-6.40625 0q0.03125 1.140625 0.609375 1.78125q0.59375 0.625 1.484375 0.625q0.59375 0 1.0 -0.328125q0.421875 -0.328125 0.625 -1.0625zm0.15625 -2.59375q-0.03125 -1.109375 -0.578125 -1.6875q-0.546875 -0.578125 -1.328125 -0.578125q-0.84375 0 -1.390625 0.609375q-0.546875 0.609375 -0.53125 1.65625l3.828125 0zm3.3913574 5.671875l3.484375 -4.984375l-3.34375 -4.6875l3.125 0l1.71875 2.65625l1.796875 -2.65625l3.015625 0l-3.28125 4.578125l3.578125 5.09375l-3.140625 0l-1.96875 -3.0l-1.984375 3.0l-3.0 0zm16.047577 -9.671875l0 2.03125l-1.75 0l0 3.90625q0 1.1875 0.046875 1.390625q0.046875 0.1875 0.21875 0.3125q0.1875 0.125 0.4375 0.125q0.359375 0 1.03125 -0.25l0.21875 2.0q-0.890625 0.375 -2.015625 0.375q-0.703125 0 -1.265625 -0.234375q-0.546875 -0.234375 -0.8125 -0.59375q-0.25 -0.375 -0.34375 -1.0q-0.09375 -0.453125 -0.09375 -1.8125l0 -4.21875l-1.171875 0l0 -2.03125l1.171875 0l0 -1.921875l2.578125 -1.5l0 3.421875l1.75 0zm7.368927 6.59375l2.546875 0.421875q-0.484375 1.40625 -1.546875 2.140625q-1.0625 0.734375 -2.65625 0.734375q-2.515625 0 -3.734375 -1.65625q-0.953125 -1.3125 -0.953125 -3.328125q0 -2.40625 1.25 -3.765625q1.265625 -1.359375 3.1875 -1.359375q2.15625 0 3.40625 1.421875q1.25 1.421875 1.1875 4.375l-6.40625 0q0.03125 1.140625 0.609375 1.78125q0.59375 0.625 1.484375 0.625q0.59375 0 1.0 -0.328125q0.421875 -0.328125 0.625 -1.0625zm0.15625 -2.59375q-0.03125 -1.109375 -0.578125 -1.6875q-0.546875 -0.578125 -1.328125 -0.578125q-0.84375 0 -1.390625 0.609375q-0.546875 0.609375 -0.53125 1.65625l3.828125 0zm13.422607 5.671875l-2.5625 0l0 -4.9375q0 -1.5625 -0.171875 -2.015625q-0.15625 -0.46875 -0.53125 -0.71875q-0.359375 -0.265625 -0.875 -0.265625q-0.671875 0 -1.203125 0.375q-0.53125 0.359375 -0.734375 0.96875q-0.1875 0.59375 -0.1875 2.21875l0 4.375l-2.546875 0l0 -9.671875l2.375 0l0 1.421875q1.265625 -1.640625 3.1875 -1.640625q0.84375 0 1.546875 0.3125q0.703125 0.296875 1.0625 0.78125q0.359375 0.46875 0.5 1.078125q0.140625 0.59375 0.140625 1.703125l0 6.015625zm7.036621 -9.671875l0 2.03125l-1.75 0l0 3.90625q0 1.1875 0.046875 1.390625q0.046875 0.1875 0.21875 0.3125q0.1875 0.125 0.4375 0.125q0.359375 0 1.03125 -0.25l0.21875 2.0q-0.890625 0.375 -2.015625 0.375q-0.7031555 0 -1.2656555 -0.234375q-0.546875 -0.234375 -0.8125 -0.59375q-0.25 -0.375 -0.34375 -1.0q-0.09375 -0.453125 -0.09375 -1.8125l0 -4.21875l-1.171875 0l0 -2.03125l1.171875 0l0 -1.921875l2.5781555 -1.5l0 3.421875l1.75 0zm0.8688965 6.90625l2.5625 -0.390625q0.171875 0.75 0.671875 1.140625q0.5 0.390625 1.40625 0.390625q0.984375 0 1.484375 -0.375q0.34375 -0.25 0.34375 -0.671875q0 -0.296875 -0.1875 -0.484375q-0.1875 -0.1875 -0.859375 -0.34375q-3.09375 -0.6875 -3.921875 -1.25q-1.140625 -0.78125 -1.140625 -2.171875q0 -1.265625 0.984375 -2.109375q1.0 -0.859375 3.078125 -0.859375q1.984375 0 2.953125 0.65625q0.96875 0.640625 1.328125 1.90625l-2.40625 0.4375q-0.15625 -0.5625 -0.59375 -0.859375q-0.421875 -0.296875 -1.234375 -0.296875q-1.0 0 -1.4375 0.28125q-0.296875 0.203125 -0.296875 0.515625q0 0.265625 0.25 0.46875q0.34375 0.25 2.390625 0.71875q2.046875 0.453125 2.859375 1.140625q0.796875 0.671875 0.796875 1.890625q0 1.34375 -1.109375 2.296875q-1.109375 0.953125 -3.28125 0.953125q-1.984375 0 -3.140625 -0.796875q-1.140625 -0.8125 -1.5 -2.1875zm11.266357 6.53125l0 -17.125l4.53125 0l0 2.015625l-2.09375 0l0 13.09375l2.09375 0l0 2.015625l-4.53125 0zm10.0095215 -17.171875q1.9375 0 3.03125 1.375q1.296875 1.640625 1.296875 5.4375q0 3.796875 -1.3125 5.453125q-1.078125 1.375 -3.015625 1.375q-1.953125 0 -3.15625 -1.5q-1.1875 -1.5 -1.1875 -5.34375q0 -3.78125 1.3125 -5.4375q1.078125 -1.359375 3.03125 -1.359375zm0 2.125q-0.46875 0 -0.84375 0.296875q-0.359375 0.296875 -0.5625 1.0625q-0.25 0.984375 -0.25 3.328125q0 2.359375 0.234375 3.234375q0.234375 0.875 0.59375 1.171875q0.359375 0.296875 0.828125 0.296875q0.453125 0 0.8125 -0.296875q0.375 -0.296875 0.578125 -1.0625q0.265625 -0.984375 0.265625 -3.34375q0 -2.34375 -0.25 -3.21875q-0.234375 -0.875 -0.59375 -1.171875q-0.359375 -0.296875 -0.8125 -0.296875zm10.125732 -2.078125l0 17.125l-4.53125 0l0 -2.015625l2.109375 0l0 -13.109375l-2.109375 0l0 -2.0l4.53125 0z" fill-rule="nonzero"/><path fill="#cfe2f3" d="m120.0 136.0l768.0 0l0 32.0l-768.0 0z" fill-rule="evenodd"/><path stroke="#000000" stroke-width="1.0" stroke-linejoin="round" stroke-linecap="butt" d="m120.0 136.0l768.0 0l0 32.0l-768.0 0z" fill-rule="evenodd"/><path fill="#000000" d="m466.87488 155.84187l2.546875 0.421875q-0.484375 1.40625 -1.546875 2.140625q-1.0625 0.734375 -2.65625 0.734375q-2.515625 0 -3.734375 -1.65625q-0.953125 -1.3125 -0.953125 -3.328125q0 -2.40625 1.25 -3.765625q1.265625 -1.359375 3.1875 -1.359375q2.15625 0 3.40625 1.421875q1.25 1.421875 1.1875 4.375l-6.40625 0q0.03125 1.140625 0.609375 1.78125q0.59375 0.625 1.484375 0.625q0.59375 0 1.0 -0.328125q0.421875 -0.328125 0.625 -1.0625zm0.15625 -2.59375q-0.03125 -1.109375 -0.578125 -1.6875q-0.546875 -0.578125 -1.328125 -0.578125q-0.84375 0 -1.390625 0.609375q-0.546875 0.609375 -0.53125 1.65625l3.828125 0zm3.3913574 5.671875l3.484375 -4.984375l-3.34375 -4.6875l3.125 0l1.71875 2.65625l1.796875 -2.65625l3.015625 0l-3.28125 4.578125l3.578125 5.09375l-3.140625 0l-1.96875 -3.0l-1.984375 3.0l-3.0 0zm16.047577 -9.671875l0 2.03125l-1.75 0l0 3.90625q0 1.1875 0.046875 1.390625q0.046875 0.1875 0.21875 0.3125q0.1875 0.125 0.4375 0.125q0.359375 0 1.03125 -0.25l0.21875 2.0q-0.890625 0.375 -2.015625 0.375q-0.703125 0 -1.265625 -0.234375q-0.546875 -0.234375 -0.8125 -0.59375q-0.25 -0.375 -0.34375 -1.0q-0.09375 -0.453125 -0.09375 -1.8125l0 -4.21875l-1.171875 0l0 -2.03125l1.171875 0l0 -1.921875l2.578125 -1.5l0 3.421875l1.75 0zm7.368927 6.59375l2.546875 0.421875q-0.484375 1.40625 -1.546875 2.140625q-1.0625 0.734375 -2.65625 0.734375q-2.515625 0 -3.734375 -1.65625q-0.953125 -1.3125 -0.953125 -3.328125q0 -2.40625 1.25 -3.765625q1.265625 -1.359375 3.1875 -1.359375q2.15625 0 3.40625 1.421875q1.25 1.421875 1.1875 4.375l-6.40625 0q0.03125 1.140625 0.609375 1.78125q0.59375 0.625 1.484375 0.625q0.59375 0 1.0 -0.328125q0.421875 -0.328125 0.625 -1.0625zm0.15625 -2.59375q-0.03125 -1.109375 -0.578125 -1.6875q-0.546875 -0.578125 -1.328125 -0.578125q-0.84375 0 -1.390625 0.609375q-0.546875 0.609375 -0.53125 1.65625l3.828125 0zm13.422607 5.671875l-2.5625 0l0 -4.9375q0 -1.5625 -0.171875 -2.015625q-0.15625 -0.46875 -0.53125 -0.71875q-0.359375 -0.265625 -0.875 -0.265625q-0.671875 0 -1.203125 0.375q-0.53125 0.359375 -0.734375 0.96875q-0.1875 0.59375 -0.1875 2.21875l0 4.375l-2.546875 0l0 -9.671875l2.375 0l0 1.421875q1.265625 -1.640625 3.1875 -1.640625q0.84375 0 1.546875 0.3125q0.703125 0.296875 1.0625 0.78125q0.359375 0.46875 0.5 1.078125q0.140625 0.59375 0.140625 1.703125l0 6.015625zm7.036621 -9.671875l0 2.03125l-1.75 0l0 3.90625q0 1.1875 0.046875 1.390625q0.046875 0.1875 0.21875 0.3125q0.1875 0.125 0.4375 0.125q0.359375 0 1.03125 -0.25l0.21875 2.0q-0.890625 0.375 -2.015625 0.375q-0.7031555 0 -1.2656555 -0.234375q-0.546875 -0.234375 -0.8125 -0.59375q-0.25 -0.375 -0.34375 -1.0q-0.09375 -0.453125 -0.09375 -1.8125l0 -4.21875l-1.171875 0l0 -2.03125l1.171875 0l0 -1.921875l2.5781555 -1.5l0 3.421875l1.75 0zm0.8688965 6.90625l2.5625 -0.390625q0.171875 0.75 0.671875 1.140625q0.5 0.390625 1.40625 0.390625q0.984375 0 1.484375 -0.375q0.34375 -0.25 0.34375 -0.671875q0 -0.296875 -0.1875 -0.484375q-0.1875 -0.1875 -0.859375 -0.34375q-3.09375 -0.6875 -3.921875 -1.25q-1.140625 -0.78125 -1.140625 -2.171875q0 -1.265625 0.984375 -2.109375q1.0 -0.859375 3.078125 -0.859375q1.984375 0 2.953125 0.65625q0.96875 0.640625 1.328125 1.90625l-2.40625 0.4375q-0.15625 -0.5625 -0.59375 -0.859375q-0.421875 -0.296875 -1.234375 -0.296875q-1.0 0 -1.4375 0.28125q-0.296875 0.203125 -0.296875 0.515625q0 0.265625 0.25 0.46875q0.34375 0.25 2.390625 0.71875q2.046875 0.453125 2.859375 1.140625q0.796875 0.671875 0.796875 1.890625q0 1.34375 -1.109375 2.296875q-1.109375 0.953125 -3.28125 0.953125q-1.984375 0 -3.140625 -0.796875q-1.140625 -0.8125 -1.5 -2.1875zm11.266357 6.53125l0 -17.125l4.53125 0l0 2.015625l-2.09375 0l0 13.09375l2.09375 0l0 2.015625l-4.53125 0zm12.2282715 -3.765625l-2.5625 0l0 -9.640625q-1.40625 1.3125 -3.3125 1.9375l0 -2.328125q1.015625 -0.328125 2.1875 -1.234375q1.171875 -0.921875 1.609375 -2.140625l2.078125 0l0 13.40625zm7.9069824 -13.359375l0 17.125l-4.53125 0l0 -2.015625l2.109375 0l0 -13.109375l-2.109375 0l0 -2.0l4.53125 0z" fill-rule="nonzero"/><path fill="#cfe2f3" d="m120.0 168.0l768.0 0l0 32.0l-768.0 0z" fill-rule="evenodd"/><path stroke="#000000" stroke-width="1.0" stroke-linejoin="round" stroke-linecap="butt" d="m120.0 168.0l768.0 0l0 32.0l-768.0 0z" fill-rule="evenodd"/><path fill="#000000" d="m466.87488 187.84187l2.546875 0.421875q-0.484375 1.40625 -1.546875 2.140625q-1.0625 0.734375 -2.65625 0.734375q-2.515625 0 -3.734375 -1.65625q-0.953125 -1.3125 -0.953125 -3.328125q0 -2.40625 1.25 -3.765625q1.265625 -1.359375 3.1875 -1.359375q2.15625 0 3.40625 1.421875q1.25 1.421875 1.1875 4.375l-6.40625 0q0.03125 1.140625 0.609375 1.78125q0.59375 0.625 1.484375 0.625q0.59375 0 1.0 -0.328125q0.421875 -0.328125 0.625 -1.0625zm0.15625 -2.59375q-0.03125 -1.109375 -0.578125 -1.6875q-0.546875 -0.578125 -1.328125 -0.578125q-0.84375 0 -1.390625 0.609375q-0.546875 0.609375 -0.53125 1.65625l3.828125 0zm3.3913574 5.671875l3.484375 -4.984375l-3.34375 -4.6875l3.125 0l1.71875 2.65625l1.796875 -2.65625l3.015625 0l-3.28125 4.578125l3.578125 5.09375l-3.140625 0l-1.96875 -3.0l-1.984375 3.0l-3.0 0zm16.047577 -9.671875l0 2.03125l-1.75 0l0 3.90625q0 1.1875 0.046875 1.390625q0.046875 0.1875 0.21875 0.3125q0.1875 0.125 0.4375 0.125q0.359375 0 1.03125 -0.25l0.21875 2.0q-0.890625 0.375 -2.015625 0.375q-0.703125 0 -1.265625 -0.234375q-0.546875 -0.234375 -0.8125 -0.59375q-0.25 -0.375 -0.34375 -1.0q-0.09375 -0.453125 -0.09375 -1.8125l0 -4.21875l-1.171875 0l0 -2.03125l1.171875 0l0 -1.921875l2.578125 -1.5l0 3.421875l1.75 0zm7.368927 6.59375l2.546875 0.421875q-0.484375 1.40625 -1.546875 2.140625q-1.0625 0.734375 -2.65625 0.734375q-2.515625 0 -3.734375 -1.65625q-0.953125 -1.3125 -0.953125 -3.328125q0 -2.40625 1.25 -3.765625q1.265625 -1.359375 3.1875 -1.359375q2.15625 0 3.40625 1.421875q1.25 1.421875 1.1875 4.375l-6.40625 0q0.03125 1.140625 0.609375 1.78125q0.59375 0.625 1.484375 0.625q0.59375 0 1.0 -0.328125q0.421875 -0.328125 0.625 -1.0625zm0.15625 -2.59375q-0.03125 -1.109375 -0.578125 -1.6875q-0.546875 -0.578125 -1.328125 -0.578125q-0.84375 0 -1.390625 0.609375q-0.546875 0.609375 -0.53125 1.65625l3.828125 0zm13.422607 5.671875l-2.5625 0l0 -4.9375q0 -1.5625 -0.171875 -2.015625q-0.15625 -0.46875 -0.53125 -0.71875q-0.359375 -0.265625 -0.875 -0.265625q-0.671875 0 -1.203125 0.375q-0.53125 0.359375 -0.734375 0.96875q-0.1875 0.59375 -0.1875 2.21875l0 4.375l-2.546875 0l0 -9.671875l2.375 0l0 1.421875q1.265625 -1.640625 3.1875 -1.640625q0.84375 0 1.546875 0.3125q0.703125 0.296875 1.0625 0.78125q0.359375 0.46875 0.5 1.078125q0.140625 0.59375 0.140625 1.703125l0 6.015625zm7.036621 -9.671875l0 2.03125l-1.75 0l0 3.90625q0 1.1875 0.046875 1.390625q0.046875 0.1875 0.21875 0.3125q0.1875 0.125 0.4375 0.125q0.359375 0 1.03125 -0.25l0.21875 2.0q-0.890625 0.375 -2.015625 0.375q-0.7031555 0 -1.2656555 -0.234375q-0.546875 -0.234375 -0.8125 -0.59375q-0.25 -0.375 -0.34375 -1.0q-0.09375 -0.453125 -0.09375 -1.8125l0 -4.21875l-1.171875 0l0 -2.03125l1.171875 0l0 -1.921875l2.5781555 -1.5l0 3.421875l1.75 0zm0.8688965 6.90625l2.5625 -0.390625q0.171875 0.75 0.671875 1.140625q0.5 0.390625 1.40625 0.390625q0.984375 0 1.484375 -0.375q0.34375 -0.25 0.34375 -0.671875q0 -0.296875 -0.1875 -0.484375q-0.1875 -0.1875 -0.859375 -0.34375q-3.09375 -0.6875 -3.921875 -1.25q-1.140625 -0.78125 -1.140625 -2.171875q0 -1.265625 0.984375 -2.109375q1.0 -0.859375 3.078125 -0.859375q1.984375 0 2.953125 0.65625q0.96875 0.640625 1.328125 1.90625l-2.40625 0.4375q-0.15625 -0.5625 -0.59375 -0.859375q-0.421875 -0.296875 -1.234375 -0.296875q-1.0 0 -1.4375 0.28125q-0.296875 0.203125 -0.296875 0.515625q0 0.265625 0.25 0.46875q0.34375 0.25 2.390625 0.71875q2.046875 0.453125 2.859375 1.140625q0.796875 0.671875 0.796875 1.890625q0 1.34375 -1.109375 2.296875q-1.109375 0.953125 -3.28125 0.953125q-1.984375 0 -3.140625 -0.796875q-1.140625 -0.8125 -1.5 -2.1875zm11.266357 6.53125l0 -17.125l4.53125 0l0 2.015625l-2.09375 0l0 13.09375l2.09375 0l0 2.015625l-4.53125 0zm14.3220215 -6.140625l0 2.375l-8.96875 0q0.140625 -1.34375 0.859375 -2.546875q0.734375 -1.21875 2.890625 -3.203125q1.734375 -1.625 2.125 -2.1875q0.53125 -0.796875 0.53125 -1.578125q0 -0.84375 -0.46875 -1.296875q-0.453125 -0.46875 -1.265625 -0.46875q-0.796875 0 -1.28125 0.484375q-0.46875 0.46875 -0.546875 1.59375l-2.546875 -0.25q0.234375 -2.109375 1.421875 -3.03125q1.203125 -0.921875 3.015625 -0.921875q1.96875 0 3.09375 1.0625q1.140625 1.0625 1.140625 2.65625q0 0.890625 -0.328125 1.71875q-0.3125 0.8125 -1.015625 1.703125q-0.46875 0.59375 -1.6875 1.703125q-1.203125 1.109375 -1.53125 1.484375q-0.3125 0.359375 -0.515625 0.703125l5.078125 0zm5.8132324 -10.984375l0 17.125l-4.53125 0l0 -2.015625l2.109375 0l0 -13.109375l-2.109375 0l0 -2.0l4.53125 0z" fill-rule="nonzero"/><path fill="#cfe2f3" d="m120.0 200.0l768.0 0l0 32.0l-768.0 0z" fill-rule="evenodd"/><path stroke="#000000" stroke-width="1.0" stroke-linejoin="round" stroke-linecap="butt" d="m120.0 200.0l768.0 0l0 32.0l-768.0 0z" fill-rule="evenodd"/><path fill="#000000" d="m466.87488 219.84187l2.546875 0.421875q-0.484375 1.40625 -1.546875 2.140625q-1.0625 0.734375 -2.65625 0.734375q-2.515625 0 -3.734375 -1.65625q-0.953125 -1.3125 -0.953125 -3.328125q0 -2.40625 1.25 -3.765625q1.265625 -1.359375 3.1875 -1.359375q2.15625 0 3.40625 1.421875q1.25 1.421875 1.1875 4.375l-6.40625 0q0.03125 1.140625 0.609375 1.78125q0.59375 0.625 1.484375 0.625q0.59375 0 1.0 -0.328125q0.421875 -0.328125 0.625 -1.0625zm0.15625 -2.59375q-0.03125 -1.109375 -0.578125 -1.6875q-0.546875 -0.578125 -1.328125 -0.578125q-0.84375 0 -1.390625 0.609375q-0.546875 0.609375 -0.53125 1.65625l3.828125 0zm3.3913574 5.671875l3.484375 -4.984375l-3.34375 -4.6875l3.125 0l1.71875 2.65625l1.796875 -2.65625l3.015625 0l-3.28125 4.578125l3.578125 5.09375l-3.140625 0l-1.96875 -3.0l-1.984375 3.0l-3.0 0zm16.047577 -9.671875l0 2.03125l-1.75 0l0 3.90625q0 1.1875 0.046875 1.390625q0.046875 0.1875 0.21875 0.3125q0.1875 0.125 0.4375 0.125q0.359375 0 1.03125 -0.25l0.21875 2.0q-0.890625 0.375 -2.015625 0.375q-0.703125 0 -1.265625 -0.234375q-0.546875 -0.234375 -0.8125 -0.59375q-0.25 -0.375 -0.34375 -1.0q-0.09375 -0.453125 -0.09375 -1.8125l0 -4.21875l-1.171875 0l0 -2.03125l1.171875 0l0 -1.921875l2.578125 -1.5l0 3.421875l1.75 0zm7.368927 6.59375l2.546875 0.421875q-0.484375 1.40625 -1.546875 2.140625q-1.0625 0.734375 -2.65625 0.734375q-2.515625 0 -3.734375 -1.65625q-0.953125 -1.3125 -0.953125 -3.328125q0 -2.40625 1.25 -3.765625q1.265625 -1.359375 3.1875 -1.359375q2.15625 0 3.40625 1.421875q1.25 1.421875 1.1875 4.375l-6.40625 0q0.03125 1.140625 0.609375 1.78125q0.59375 0.625 1.484375 0.625q0.59375 0 1.0 -0.328125q0.421875 -0.328125 0.625 -1.0625zm0.15625 -2.59375q-0.03125 -1.109375 -0.578125 -1.6875q-0.546875 -0.578125 -1.328125 -0.578125q-0.84375 0 -1.390625 0.609375q-0.546875 0.609375 -0.53125 1.65625l3.828125 0zm13.422607 5.671875l-2.5625 0l0 -4.9375q0 -1.5625 -0.171875 -2.015625q-0.15625 -0.46875 -0.53125 -0.71875q-0.359375 -0.265625 -0.875 -0.265625q-0.671875 0 -1.203125 0.375q-0.53125 0.359375 -0.734375 0.96875q-0.1875 0.59375 -0.1875 2.21875l0 4.375l-2.546875 0l0 -9.671875l2.375 0l0 1.421875q1.265625 -1.640625 3.1875 -1.640625q0.84375 0 1.546875 0.3125q0.703125 0.296875 1.0625 0.78125q0.359375 0.46875 0.5 1.078125q0.140625 0.59375 0.140625 1.703125l0 6.015625zm7.036621 -9.671875l0 2.03125l-1.75 0l0 3.90625q0 1.1875 0.046875 1.390625q0.046875 0.1875 0.21875 0.3125q0.1875 0.125 0.4375 0.125q0.359375 0 1.03125 -0.25l0.21875 2.0q-0.890625 0.375 -2.015625 0.375q-0.7031555 0 -1.2656555 -0.234375q-0.546875 -0.234375 -0.8125 -0.59375q-0.25 -0.375 -0.34375 -1.0q-0.09375 -0.453125 -0.09375 -1.8125l0 -4.21875l-1.171875 0l0 -2.03125l1.171875 0l0 -1.921875l2.5781555 -1.5l0 3.421875l1.75 0zm0.8688965 6.90625l2.5625 -0.390625q0.171875 0.75 0.671875 1.140625q0.5 0.390625 1.40625 0.390625q0.984375 0 1.484375 -0.375q0.34375 -0.25 0.34375 -0.671875q0 -0.296875 -0.1875 -0.484375q-0.1875 -0.1875 -0.859375 -0.34375q-3.09375 -0.6875 -3.921875 -1.25q-1.140625 -0.78125 -1.140625 -2.171875q0 -1.265625 0.984375 -2.109375q1.0 -0.859375 3.078125 -0.859375q1.984375 0 2.953125 0.65625q0.96875 0.640625 1.328125 1.90625l-2.40625 0.4375q-0.15625 -0.5625 -0.59375 -0.859375q-0.421875 -0.296875 -1.234375 -0.296875q-1.0 0 -1.4375 0.28125q-0.296875 0.203125 -0.296875 0.515625q0 0.265625 0.25 0.46875q0.34375 0.25 2.390625 0.71875q2.046875 0.453125 2.859375 1.140625q0.796875 0.671875 0.796875 1.890625q0 1.34375 -1.109375 2.296875q-1.109375 0.953125 -3.28125 0.953125q-1.984375 0 -3.140625 -0.796875q-1.140625 -0.8125 -1.5 -2.1875zm11.266357 6.53125l0 -17.125l4.53125 0l0 2.015625l-2.09375 0l0 13.09375l2.09375 0l0 2.015625l-4.53125 0zm5.5876465 -7.3125l2.46875 -0.296875q0.125 0.953125 0.640625 1.453125q0.53125 0.5 1.265625 0.5q0.78125 0 1.328125 -0.59375q0.546875 -0.609375 0.546875 -1.640625q0 -0.953125 -0.53125 -1.515625q-0.515625 -0.578125 -1.25 -0.578125q-0.5 0 -1.1875 0.203125l0.28125 -2.09375q1.046875 0.03125 1.59375 -0.4375q0.546875 -0.484375 0.546875 -1.28125q0 -0.671875 -0.40625 -1.078125q-0.390625 -0.40625 -1.0625 -0.40625q-0.65625 0 -1.125 0.46875q-0.453125 0.453125 -0.5625 1.328125l-2.359375 -0.40625q0.25 -1.203125 0.734375 -1.921875q0.5 -0.734375 1.390625 -1.140625q0.890625 -0.421875 2.0 -0.421875q1.875 0 3.015625 1.203125q0.9375 0.984375 0.9375 2.21875q0 1.765625 -1.921875 2.8125q1.15625 0.234375 1.84375 1.09375q0.6875 0.859375 0.6875 2.0625q0 1.765625 -1.296875 3.015625q-1.28125 1.234375 -3.1875 1.234375q-1.8125 0 -3.015625 -1.046875q-1.1875 -1.046875 -1.375 -2.734375zm14.547607 -9.8125l0 17.125l-4.53125 0l0 -2.015625l2.109375 0l0 -13.109375l-2.109375 0l0 -2.0l4.53125 0z" fill-rule="nonzero"/><path fill="#cfe2f3" d="m120.0 232.0l768.0 0l0 32.0l-768.0 0z" fill-rule="evenodd"/><path stroke="#000000" stroke-width="1.0" stroke-linejoin="round" stroke-linecap="butt" d="m120.0 232.0l768.0 0l0 32.0l-768.0 0z" fill-rule="evenodd"/><path fill="#000000" d="m466.87488 251.84187l2.546875 0.421875q-0.484375 1.40625 -1.546875 2.140625q-1.0625 0.734375 -2.65625 0.734375q-2.515625 0 -3.734375 -1.65625q-0.953125 -1.3125 -0.953125 -3.328125q0 -2.40625 1.25 -3.765625q1.265625 -1.359375 3.1875 -1.359375q2.15625 0 3.40625 1.421875q1.25 1.421875 1.1875 4.375l-6.40625 0q0.03125 1.140625 0.609375 1.78125q0.59375 0.625 1.484375 0.625q0.59375 0 1.0 -0.328125q0.421875 -0.328125 0.625 -1.0625zm0.15625 -2.59375q-0.03125 -1.109375 -0.578125 -1.6875q-0.546875 -0.578125 -1.328125 -0.578125q-0.84375 0 -1.390625 0.609375q-0.546875 0.609375 -0.53125 1.65625l3.828125 0zm3.3913574 5.671875l3.484375 -4.984375l-3.34375 -4.6875l3.125 0l1.71875 2.65625l1.796875 -2.65625l3.015625 0l-3.28125 4.578125l3.578125 5.09375l-3.140625 0l-1.96875 -3.0l-1.984375 3.0l-3.0 0zm16.047577 -9.671875l0 2.03125l-1.75 0l0 3.90625q0 1.1875 0.046875 1.390625q0.046875 0.1875 0.21875 0.3125q0.1875 0.125 0.4375 0.125q0.359375 0 1.03125 -0.25l0.21875 2.0q-0.890625 0.375 -2.015625 0.375q-0.703125 0 -1.265625 -0.234375q-0.546875 -0.234375 -0.8125 -0.59375q-0.25 -0.375 -0.34375 -1.0q-0.09375 -0.453125 -0.09375 -1.8125l0 -4.21875l-1.171875 0l0 -2.03125l1.171875 0l0 -1.921875l2.578125 -1.5l0 3.421875l1.75 0zm7.368927 6.59375l2.546875 0.421875q-0.484375 1.40625 -1.546875 2.140625q-1.0625 0.734375 -2.65625 0.734375q-2.515625 0 -3.734375 -1.65625q-0.953125 -1.3125 -0.953125 -3.328125q0 -2.40625 1.25 -3.765625q1.265625 -1.359375 3.1875 -1.359375q2.15625 0 3.40625 1.421875q1.25 1.421875 1.1875 4.375l-6.40625 0q0.03125 1.140625 0.609375 1.78125q0.59375 0.625 1.484375 0.625q0.59375 0 1.0 -0.328125q0.421875 -0.328125 0.625 -1.0625zm0.15625 -2.59375q-0.03125 -1.109375 -0.578125 -1.6875q-0.546875 -0.578125 -1.328125 -0.578125q-0.84375 0 -1.390625 0.609375q-0.546875 0.609375 -0.53125 1.65625l3.828125 0zm13.422607 5.671875l-2.5625 0l0 -4.9375q0 -1.5625 -0.171875 -2.015625q-0.15625 -0.46875 -0.53125 -0.71875q-0.359375 -0.265625 -0.875 -0.265625q-0.671875 0 -1.203125 0.375q-0.53125 0.359375 -0.734375 0.96875q-0.1875 0.59375 -0.1875 2.21875l0 4.375l-2.546875 0l0 -9.671875l2.375 0l0 1.421875q1.265625 -1.640625 3.1875 -1.640625q0.84375 0 1.546875 0.3125q0.703125 0.296875 1.0625 0.78125q0.359375 0.46875 0.5 1.078125q0.140625 0.59375 0.140625 1.703125l0 6.015625zm7.036621 -9.671875l0 2.03125l-1.75 0l0 3.90625q0 1.1875 0.046875 1.390625q0.046875 0.1875 0.21875 0.3125q0.1875 0.125 0.4375 0.125q0.359375 0 1.03125 -0.25l0.21875 2.0q-0.890625 0.375 -2.015625 0.375q-0.7031555 0 -1.2656555 -0.234375q-0.546875 -0.234375 -0.8125 -0.59375q-0.25 -0.375 -0.34375 -1.0q-0.09375 -0.453125 -0.09375 -1.8125l0 -4.21875l-1.171875 0l0 -2.03125l1.171875 0l0 -1.921875l2.5781555 -1.5l0 3.421875l1.75 0zm0.8688965 6.90625l2.5625 -0.390625q0.171875 0.75 0.671875 1.140625q0.5 0.390625 1.40625 0.390625q0.984375 0 1.484375 -0.375q0.34375 -0.25 0.34375 -0.671875q0 -0.296875 -0.1875 -0.484375q-0.1875 -0.1875 -0.859375 -0.34375q-3.09375 -0.6875 -3.921875 -1.25q-1.140625 -0.78125 -1.140625 -2.171875q0 -1.265625 0.984375 -2.109375q1.0 -0.859375 3.078125 -0.859375q1.984375 0 2.953125 0.65625q0.96875 0.640625 1.328125 1.90625l-2.40625 0.4375q-0.15625 -0.5625 -0.59375 -0.859375q-0.421875 -0.296875 -1.234375 -0.296875q-1.0 0 -1.4375 0.28125q-0.296875 0.203125 -0.296875 0.515625q0 0.265625 0.25 0.46875q0.34375 0.25 2.390625 0.71875q2.046875 0.453125 2.859375 1.140625q0.796875 0.671875 0.796875 1.890625q0 1.34375 -1.109375 2.296875q-1.109375 0.953125 -3.28125 0.953125q-1.984375 0 -3.140625 -0.796875q-1.140625 -0.8125 -1.5 -2.1875zm11.266357 6.5312347l0 -17.124985l4.53125 0l0 2.015625l-2.09375 0l0 13.093735l2.09375 0l0 2.015625l-4.53125 0zm10.6970215 -3.7656097l0 -2.6875l-5.46875 0l0 -2.234375l5.796875 -8.484375l2.15625 0l0 8.46875l1.65625 0l0 2.25l-1.65625 0l0 2.6875l-2.484375 0zm0 -4.9375l0 -4.5625l-3.078125 4.5625l3.078125 0zm9.438232 -8.421875l0 17.124985l-4.53125 0l0 -2.015625l2.109375 0l0 -13.10936l-2.109375 0l0 -2.0l4.53125 0z" fill-rule="nonzero"/></g></svg>