<svg xmlns="http://www.w3.org/2000/svg" fill="none" stroke-linecap="square" stroke-miterlimit="10" viewBox="0 0 680 320"><defs/><path fill="#cfe2f3" fill-rule="evenodd" d="M306.381 220.945h138.604v73.753c0 8.147-6.605 14.751-14.751 14.751H291.63v-73.752c0-8.147 6.604-14.751 14.751-14.751z"/><path stroke="#000" stroke-linecap="butt" stroke-linejoin="round" d="M306.381 220.945h138.604v73.753c0 8.147-6.605 14.751-14.751 14.751H291.63v0s0 0 0 0v-73.752 0c0-8.147 6.604-14.751 14.751-14.751z"/><path fill="#000" d="M312.631 261.117v-13.359h9.016v1.578h-7.25v4.14h6.265v1.579h-6.265v6.062zm11.6 0v-13.359h1.765v13.36zm4.886 0v-13.359h4.609q1.547 0 2.375.203 1.14.25 1.953.953 1.063.89 1.578 2.281.531 1.391.531 3.172 0 1.516-.359 2.703-.36 1.172-.922 1.938-.547.766-1.203 1.219-.656.437-1.594.672-.937.218-2.14.218zm1.765-1.578h2.86q1.312 0 2.062-.234.75-.25 1.203-.703.625-.625.969-1.688.36-1.062.36-2.578 0-2.094-.688-3.219t-1.672-1.5q-.703-.28-2.281-.28h-2.813zm11.63 1.578v-13.359h1.78v11.781h6.563v1.578zm16.24 0h-1.515v-13.359h1.64v4.766q1.048-1.297 2.657-1.297.89 0 1.687.36.797.358 1.313 1.015.516.64.797 1.562.297.922.297 1.969 0 2.484-1.235 3.844-1.218 1.36-2.953 1.36-1.703 0-2.687-1.438zm-.015-4.906q0 1.734.485 2.516.765 1.265 2.093 1.265 1.078 0 1.86-.937.78-.938.78-2.781 0-1.891-.75-2.797-.75-.907-1.827-.907-1.063 0-1.86.938-.78.937-.78 2.703zm8.891-6.562v-1.891h1.641v1.89zm0 11.468v-9.672h1.641v9.672zm4.145 0v-9.672h1.469v1.375q1.063-1.593 3.078-1.593.875 0 1.61.312.734.313 1.093.828.375.5.516 1.203.094.454.094 1.594v5.953h-1.641v-5.89q0-1-.203-1.485-.188-.5-.672-.797-.484-.296-1.14-.296-1.047 0-1.813.671-.75.657-.75 2.516v5.281zm16.642 0V259.9q-.907 1.437-2.703 1.437-1.157 0-2.125-.64-.97-.641-1.5-1.782-.532-1.14-.532-2.625 0-1.453.485-2.625.484-1.187 1.437-1.812.969-.625 2.172-.625.875 0 1.547.375.687.36 1.11.953v-4.797h1.64v13.36zm-5.172-4.828q0 1.86.781 2.781.781.922 1.844.922 1.078 0 1.828-.875.75-.89.75-2.687 0-1.985-.766-2.906-.765-.938-1.89-.938-1.078 0-1.813.89-.734.891-.734 2.813zm9.282-6.64v-1.891h1.64v1.89zm0 11.468v-9.672h1.64v9.672zm4.145 0v-9.672h1.468v1.375q1.063-1.593 3.078-1.593.875 0 1.61.312.734.313 1.094.828.375.5.515 1.203.094.454.094 1.594v5.953h-1.64v-5.89q0-1-.204-1.485-.187-.5-.672-.797-.484-.296-1.14-.296-1.047 0-1.813.671-.75.657-.75 2.516v5.281zm10.063.797l1.594.235q.109.75.562 1.078.61.453 1.672.453 1.14 0 1.75-.453.625-.453.844-1.266.125-.5.109-2.11-1.062 1.266-2.672 1.266-2 0-3.094-1.437-1.093-1.438-1.093-3.453 0-1.39.5-2.563.515-1.172 1.453-1.797.953-.64 2.25-.64 1.703 0 2.812 1.375v-1.157h1.516v8.36q0 2.265-.469 3.203-.453.937-1.453 1.484-.984.547-2.453.547-1.719 0-2.797-.781-1.062-.766-1.031-2.344zm1.36-5.812q0 1.906.75 2.781.765.875 1.905.875 1.125 0 1.891-.86.766-.874.766-2.734 0-1.781-.797-2.672-.781-.906-1.89-.906-1.095 0-1.86.89-.766.876-.766 2.626zm8.672 2.125l1.625-.25q.125.968.75 1.5.625.515 1.75.515t1.672-.453q.547-.469.547-1.094 0-.546-.485-.875-.328-.218-1.672-.546-1.812-.47-2.515-.797-.688-.328-1.047-.907-.36-.593-.36-1.312 0-.64.297-1.188.297-.562.813-.921.375-.282 1.031-.47.672-.202 1.422-.202 1.14 0 2 .328.86.328 1.266.89.421.563.578 1.5l-1.61.22q-.11-.75-.64-1.173-.516-.422-1.47-.422-1.14 0-1.624.375-.469.375-.469.875 0 .313.188.579.203.265.64.437.235.094 1.438.422 1.75.453 2.437.75.688.297 1.078.86.391.562.391 1.406 0 .828-.484 1.546-.47.72-1.375 1.125-.907.391-2.047.391-1.875 0-2.875-.781-.985-.781-1.25-2.328zM339.377 278.274q0-2.688 1.484-3.97 1.25-1.077 3.047-1.077 2 0 3.265 1.312 1.266 1.297 1.266 3.61 0 1.859-.562 2.937-.563 1.063-1.641 1.656-1.063.594-2.328.594-2.031 0-3.281-1.297-1.25-1.312-1.25-3.765zm1.687 0q0 1.859.797 2.796.812.922 2.047.922 1.219 0 2.031-.922.813-.937.813-2.843 0-1.797-.813-2.719-.812-.922-2.031-.922-1.235 0-2.047.922-.797.906-.797 2.766zm10.798 4.843h-1.516v-13.359h1.64v4.766q1.047-1.297 2.657-1.297.89 0 1.687.36.797.358 1.313 1.015.515.64.797 1.562.297.922.297 1.969 0 2.484-1.235 3.844-1.219 1.36-2.953 1.36-1.703 0-2.687-1.438zm-.016-4.906q0 1.734.484 2.516.766 1.265 2.094 1.265 1.078 0 1.86-.937.78-.938.78-2.781 0-1.891-.75-2.797-.75-.907-1.827-.907-1.063 0-1.86.938-.781.937-.781 2.703zm8.876-6.547v-1.906h1.64v1.906zm-2.078 15.203l.312-1.39q.5.125.781.125.5 0 .735-.328.25-.329.25-1.672v-10.157h1.64v10.204q0 1.78-.468 2.484-.594.906-1.97.906-.655 0-1.28-.172zm12.863-6.859l1.688.203q-.407 1.484-1.485 2.313-1.078.812-2.765.812-2.125 0-3.375-1.297-1.235-1.312-1.235-3.672 0-2.453 1.25-3.797 1.266-1.343 3.266-1.343 1.937 0 3.156 1.328 1.235 1.312 1.235 3.703v.437h-7.22q.094 1.594.907 2.454.813.843 2.016.843.906 0 1.547-.468.64-.485 1.015-1.516zm-5.39-2.656h5.406q-.11-1.219-.625-1.828-.781-.954-2.031-.954-1.125 0-1.907.766-.765.75-.843 2.016zm15.453 2.218l1.61.22q-.266 1.655-1.36 2.609-1.078.937-2.671.937-1.985 0-3.188-1.297t-1.203-3.719q0-1.578.516-2.75.515-1.171 1.578-1.75 1.062-.593 2.312-.593 1.578 0 2.578.797 1 .796 1.282 2.265l-1.594.235q-.235-.97-.813-1.454-.578-.5-1.39-.5-1.235 0-2.016.891-.781.89-.781 2.813 0 1.953.75 2.843.75.875 1.953.875.969 0 1.61-.593.656-.594.827-1.829zm6.594 2.079l.235 1.453q-.688.14-1.235.14-.89 0-1.39-.28-.485-.282-.688-.735-.203-.469-.203-1.938v-5.578h-1.203v-1.266h1.203v-2.39l1.625-.985v3.375h1.656v1.266h-1.656v5.672q0 .687.078.89.094.204.281.329.203.11.578.11.266 0 .72-.063zm.95-1.422l1.624-.25q.125.968.75 1.5.625.515 1.75.515t1.672-.453q.547-.469.547-1.094 0-.546-.485-.875-.328-.218-1.671-.546-1.813-.47-2.516-.797-.688-.328-1.047-.907-.36-.593-.36-1.312 0-.64.298-1.188.296-.562.812-.921.375-.282 1.031-.47.672-.202 1.422-.202 1.14 0 2 .328.86.328 1.266.89.422.563.578 1.5l-1.61.22q-.109-.75-.64-1.173-.516-.422-1.469-.422-1.14 0-1.625.375-.469.375-.469.875 0 .313.188.579.203.265.64.437.235.094 1.438.422 1.75.453 2.438.75.687.297 1.078.86.39.562.39 1.406 0 .828-.484 1.546-.469.72-1.375 1.125-.906.391-2.047.391-1.875 0-2.875-.781-.984-.781-1.25-2.328z"/><path fill="#cfe2f3" fill-rule="evenodd" d="M311.294 215.004h138.603l.001.001v73.752c0 8.146-6.605 14.75-14.752 14.75H296.542v-73.752c0-8.147 6.605-14.751 14.752-14.751z"/><path stroke="#000" stroke-linecap="butt" stroke-linejoin="round" d="M311.294 215.004h138.603s0 0 0 0l.001.001v73.752c0 8.146-6.605 14.75-14.752 14.75H296.543v0h-.001v-73.752 0c0-8.147 6.605-14.751 14.752-14.751z"/><path fill="#000" d="M317.544 255.176v-13.36h9.015v1.578h-7.25v4.141h6.266v1.578h-6.266v6.063zm11.599 0v-13.36h1.765v13.36zm4.886 0v-13.36h4.61q1.546 0 2.375.203 1.14.25 1.953.954 1.062.89 1.578 2.28.531 1.391.531 3.173 0 1.515-.36 2.703-.359 1.172-.921 1.937-.547.766-1.203 1.219-.657.438-1.594.672-.938.219-2.14.219zm1.766-1.578h2.86q1.312 0 2.062-.235.75-.25 1.203-.703.625-.625.969-1.687.359-1.063.359-2.579 0-2.093-.688-3.218-.687-1.125-1.671-1.5-.704-.282-2.282-.282h-2.812zm11.629 1.578v-13.36h1.781v11.782h6.563v1.578zm16.241 0h-1.515v-13.36h1.64v4.766q1.047-1.297 2.657-1.297.89 0 1.687.36.797.359 1.313 1.015.515.64.796 1.563.297.921.297 1.968 0 2.485-1.234 3.844-1.219 1.36-2.953 1.36-1.703 0-2.688-1.438zm-.015-4.907q0 1.735.484 2.516.766 1.266 2.094 1.266 1.078 0 1.86-.938.78-.937.78-2.781 0-1.89-.75-2.797-.75-.906-1.828-.906-1.062 0-1.86.937-.78.938-.78 2.703zm8.891-6.562v-1.89h1.64v1.89zm0 11.469v-9.672h1.64v9.672zm4.145 0v-9.672h1.469v1.375q1.062-1.594 3.078-1.594.875 0 1.61.313.733.312 1.093.828.375.5.515 1.203.094.453.094 1.594v5.953h-1.64v-5.891q0-1-.204-1.484-.187-.5-.671-.797-.485-.297-1.141-.297-1.047 0-1.813.672-.75.656-.75 2.515v5.282zm16.641 0v-1.22q-.906 1.438-2.703 1.438-1.156 0-2.125-.64-.969-.64-1.5-1.781t-.531-2.625q0-1.454.484-2.625.485-1.188 1.438-1.813.968-.625 2.172-.625.875 0 1.546.375.688.36 1.11.953v-4.797h1.64v13.36zm-5.172-4.828q0 1.859.782 2.78.78.923 1.843.923 1.078 0 1.828-.875.75-.891.75-2.688 0-1.984-.765-2.906-.766-.938-1.89-.938-1.079 0-1.813.891-.735.89-.735 2.813zm9.282-6.641v-1.89h1.64v1.89zm0 11.469v-9.672h1.64v9.672zm4.145 0v-9.672h1.469v1.375q1.062-1.594 3.078-1.594.875 0 1.61.313.734.312 1.093.828.375.5.516 1.203.093.453.093 1.594v5.953h-1.64v-5.891q0-1-.203-1.484-.188-.5-.672-.797-.485-.297-1.14-.297-1.048 0-1.813.672-.75.656-.75 2.515v5.282zm10.063.797l1.594.234q.11.75.563 1.078.609.453 1.671.453 1.141 0 1.75-.453.625-.453.844-1.266.125-.5.11-2.109-1.063 1.266-2.672 1.266-2 0-3.094-1.438-1.094-1.437-1.094-3.453 0-1.39.5-2.562.516-1.172 1.453-1.797.953-.641 2.25-.641 1.703 0 2.813 1.375v-1.156h1.515v8.36q0 2.265-.468 3.202-.453.938-1.453 1.485-.985.547-2.454.547-1.718 0-2.796-.782-1.063-.765-1.032-2.343zm1.36-5.813q0 1.906.75 2.781.765.875 1.906.875 1.125 0 1.89-.86.766-.874.766-2.733 0-1.782-.797-2.672-.78-.907-1.89-.907-1.094 0-1.86.891-.765.875-.765 2.625zm8.672 2.125l1.625-.25q.125.969.75 1.5.625.516 1.75.516t1.672-.453q.547-.47.547-1.094 0-.547-.484-.875-.328-.219-1.672-.547-1.813-.469-2.516-.797-.687-.328-1.047-.906-.36-.594-.36-1.313 0-.64.298-1.187.297-.563.812-.922.375-.281 1.032-.469.671-.203 1.421-.203 1.141 0 2 .328.86.328 1.266.89.422.563.578 1.5l-1.61.22q-.109-.75-.64-1.172-.515-.422-1.469-.422-1.14 0-1.625.375-.468.375-.468.875 0 .312.187.578.203.266.64.437.235.094 1.438.422 1.75.453 2.438.75.687.297 1.078.86.39.562.39 1.406 0 .828-.484 1.547-.469.719-1.375 1.125-.906.39-2.047.39-1.875 0-2.875-.78-.984-.782-1.25-2.329zM344.289 272.332q0-2.688 1.484-3.969 1.25-1.078 3.047-1.078 2 0 3.266 1.313 1.266 1.296 1.266 3.609 0 1.86-.563 2.937-.562 1.063-1.64 1.657-1.063.593-2.329.593-2.031 0-3.281-1.296-1.25-1.313-1.25-3.766zm1.688 0q0 1.86.796 2.797.813.922 2.047.922 1.219 0 2.032-.922.812-.938.812-2.844 0-1.797-.812-2.719-.813-.922-2.032-.922-1.234 0-2.047.922-.796.907-.796 2.766zm10.797 4.844h-1.515v-13.36h1.64v4.766q1.047-1.297 2.656-1.297.891 0 1.688.36.797.359 1.312 1.015.516.64.797 1.563.297.921.297 1.968 0 2.485-1.234 3.844-1.219 1.36-2.953 1.36-1.703 0-2.688-1.438zm-.015-4.907q0 1.735.484 2.516.766 1.266 2.094 1.266 1.078 0 1.859-.938.781-.937.781-2.781 0-1.89-.75-2.797-.75-.906-1.828-.906-1.062 0-1.86.937-.78.938-.78 2.703zm8.875-6.546v-1.907h1.64v1.907zm-2.078 15.203l.313-1.391q.5.125.78.125.5 0 .735-.328.25-.328.25-1.672v-10.156h1.64v10.203q0 1.781-.468 2.484-.594.907-1.969.907-.656 0-1.28-.172zm12.864-6.86l1.687.203q-.406 1.485-1.484 2.313-1.078.812-2.766.812-2.125 0-3.375-1.296-1.234-1.313-1.234-3.672 0-2.453 1.25-3.797 1.265-1.344 3.265-1.344 1.938 0 3.157 1.328 1.234 1.313 1.234 3.703v.438h-7.219q.094 1.594.907 2.453.812.844 2.015.844.906 0 1.547-.47.64-.483 1.016-1.515zm-5.39-2.656h5.405q-.11-1.219-.625-1.828-.78-.953-2.03-.953-1.126 0-1.907.765-.766.75-.844 2.016zm15.453 2.219l1.61.219q-.266 1.656-1.36 2.609-1.078.937-2.672.937-1.984 0-3.187-1.296-1.204-1.297-1.204-3.72 0-1.577.516-2.75.516-1.171 1.578-1.75 1.063-.593 2.313-.593 1.578 0 2.578.797 1 .797 1.281 2.266l-1.594.234q-.234-.969-.812-1.453-.578-.5-1.39-.5-1.235 0-2.016.89-.782.891-.782 2.813 0 1.953.75 2.844.75.875 1.953.875.97 0 1.61-.594.656-.594.828-1.828zm6.594 2.078l.234 1.453q-.687.14-1.234.14-.891 0-1.391-.28-.484-.282-.687-.735-.204-.469-.204-1.937v-5.579h-1.203v-1.265h1.203v-2.39l1.625-.985v3.375h1.657v1.265h-1.657v5.672q0 .688.078.89.094.204.282.329.203.11.578.11.265 0 .719-.063zm.949-1.422l1.625-.25q.125.969.75 1.5.625.516 1.75.516t1.671-.453q.547-.47.547-1.094 0-.547-.484-.875-.328-.219-1.672-.547-1.812-.469-2.516-.797-.687-.328-1.046-.906-.36-.594-.36-1.313 0-.64.297-1.187.297-.563.813-.922.375-.281 1.03-.469.673-.203 1.423-.203 1.14 0 2 .328.86.328 1.265.89.422.563.578 1.5l-1.609.22q-.11-.75-.64-1.172-.516-.422-1.47-.422-1.14 0-1.624.375-.469.375-.469.875 0 .312.187.578.204.266.641.437.234.094 1.438.422 1.75.453 2.437.75.688.297 1.078.86.39.562.39 1.406 0 .828-.484 1.547-.468.719-1.375 1.125-.906.39-2.046.39-1.875 0-2.875-.78-.985-.782-1.25-2.329z"/><path fill="#cfe2f3" fill-rule="evenodd" d="M316.206 210.091H454.81v73.753c0 8.147-6.604 14.751-14.751 14.751H301.455v-73.753c0-8.146 6.604-14.75 14.751-14.75z"/><path stroke="#000" stroke-linecap="butt" stroke-linejoin="round" d="M316.206 210.091H454.81v73.753c0 8.147-6.604 14.751-14.751 14.751H301.455v0s0 0 0 0v-73.753 0c0-8.146 6.604-14.75 14.751-14.75z"/><path fill="#000" d="M322.456 250.263v-13.36h9.016v1.579h-7.25v4.14h6.265v1.579h-6.265v6.062zm11.6 0v-13.36h1.765v13.36zm4.886 0v-13.36h4.609q1.547 0 2.375.204 1.14.25 1.953.953 1.063.89 1.578 2.281.532 1.39.532 3.172 0 1.516-.36 2.703-.36 1.172-.922 1.938-.547.765-1.203 1.218-.656.438-1.594.672-.937.22-2.14.22zm1.765-1.578h2.86q1.312 0 2.062-.234.75-.25 1.203-.704.625-.625.969-1.687.36-1.063.36-2.578 0-2.094-.688-3.219t-1.672-1.5q-.703-.281-2.281-.281h-2.813zm11.63 1.578v-13.36h1.78v11.782h6.563v1.578zm16.24 0h-1.515v-13.36h1.64v4.766q1.048-1.297 2.657-1.297.89 0 1.688.36.796.36 1.312 1.015.516.641.797 1.563.297.922.297 1.969 0 2.484-1.235 3.843-1.218 1.36-2.953 1.36-1.703 0-2.687-1.438zm-.015-4.906q0 1.734.485 2.515.765 1.266 2.093 1.266 1.078 0 1.86-.937.78-.938.78-2.782 0-1.89-.75-2.797-.75-.906-1.827-.906-1.063 0-1.86.938-.78.937-.78 2.703zm8.892-6.563v-1.89h1.64v1.89zm0 11.47v-9.673h1.64v9.672zm4.144 0v-9.673h1.47v1.375q1.062-1.594 3.077-1.594.875 0 1.61.313.734.312 1.093.828.375.5.516 1.203.094.453.094 1.594v5.953h-1.64v-5.89q0-1-.204-1.485-.188-.5-.672-.797-.484-.297-1.14-.297-1.047 0-1.813.672-.75.656-.75 2.516v5.281zm16.642 0v-1.22q-.907 1.438-2.703 1.438-1.157 0-2.125-.64-.97-.641-1.5-1.782-.532-1.14-.532-2.625 0-1.453.485-2.625.484-1.188 1.437-1.813.969-.625 2.172-.625.875 0 1.547.375.687.36 1.11.954v-4.797h1.64v13.36zm-5.172-4.829q0 1.86.781 2.781.781.922 1.844.922 1.078 0 1.828-.875.75-.89.75-2.687 0-1.985-.766-2.907-.765-.937-1.89-.937-1.078 0-1.813.89-.734.891-.734 2.813zm9.282-6.64v-1.891h1.64v1.89zm0 11.468v-9.672h1.64v9.672zm4.145 0v-9.672h1.468v1.375q1.063-1.594 3.079-1.594.875 0 1.609.313.734.312 1.094.828.375.5.515 1.203.094.453.094 1.594v5.953h-1.64v-5.89q0-1-.204-1.485-.187-.5-.672-.797-.484-.297-1.14-.297-1.047 0-1.813.672-.75.656-.75 2.516v5.281zm10.063.797l1.594.234q.109.75.562 1.078.61.454 1.672.454 1.14 0 1.75-.454.625-.453.844-1.265.125-.5.11-2.11-1.063 1.266-2.673 1.266-2 0-3.094-1.437-1.093-1.438-1.093-3.454 0-1.39.5-2.562.515-1.172 1.453-1.797.953-.64 2.25-.64 1.703 0 2.812 1.374v-1.156h1.516v8.36q0 2.265-.469 3.203-.453.937-1.453 1.484-.984.547-2.453.547-1.719 0-2.797-.781-1.062-.766-1.031-2.344zm1.36-5.813q0 1.907.75 2.782.765.875 1.905.875 1.125 0 1.891-.86.766-.875.766-2.734 0-1.781-.797-2.672-.781-.906-1.89-.906-1.095 0-1.86.89-.766.875-.766 2.625zm8.672 2.125l1.625-.25q.125.97.75 1.5.625.516 1.75.516t1.672-.453q.547-.469.547-1.094 0-.547-.485-.875-.328-.219-1.672-.547-1.812-.468-2.515-.797-.688-.328-1.047-.906-.36-.594-.36-1.312 0-.64.297-1.188.297-.562.813-.922.375-.28 1.031-.468.672-.204 1.422-.204 1.14 0 2 .329.86.328 1.266.89.421.563.578 1.5l-1.61.219q-.11-.75-.64-1.172-.516-.422-1.47-.422-1.14 0-1.624.375-.469.375-.469.875 0 .313.188.578.203.266.64.438.235.094 1.438.422 1.75.453 2.437.75.688.297 1.078.86.391.562.391 1.405 0 .828-.484 1.547-.47.719-1.375 1.125-.907.39-2.047.39-1.875 0-2.875-.78-.985-.782-1.25-2.329zM349.202 267.42q0-2.688 1.484-3.97 1.25-1.078 3.047-1.078 2 0 3.265 1.313 1.266 1.297 1.266 3.61 0 1.859-.562 2.937-.563 1.062-1.641 1.656-1.063.594-2.328.594-2.031 0-3.281-1.297-1.25-1.313-1.25-3.766zm1.687 0q0 1.859.797 2.796.812.922 2.047.922 1.219 0 2.031-.922.813-.937.813-2.844 0-1.796-.813-2.718-.812-.922-2.031-.922-1.235 0-2.047.922-.797.906-.797 2.765zm10.798 4.843h-1.516v-13.36h1.64v4.766q1.048-1.297 2.657-1.297.89 0 1.687.36t1.313 1.015q.516.641.797 1.563.297.922.297 1.969 0 2.484-1.235 3.843-1.218 1.36-2.953 1.36-1.703 0-2.687-1.438zm-.016-4.906q0 1.734.484 2.515.766 1.266 2.094 1.266 1.078 0 1.86-.937.78-.938.78-2.782 0-1.89-.75-2.797-.75-.906-1.827-.906-1.063 0-1.86.938-.781.937-.781 2.703zm8.876-6.547v-1.906h1.64v1.906zm-2.078 15.203l.312-1.39q.5.124.781.124.5 0 .735-.328.25-.328.25-1.672v-10.156h1.64v10.203q0 1.782-.468 2.485-.594.906-1.97.906-.655 0-1.28-.172zm12.863-6.86l1.688.204q-.407 1.484-1.485 2.312-1.078.813-2.765.813-2.125 0-3.375-1.297-1.235-1.313-1.235-3.672 0-2.453 1.25-3.797 1.266-1.344 3.266-1.344 1.937 0 3.156 1.329 1.235 1.312 1.235 3.703v.437h-7.22q.095 1.594.907 2.453.813.844 2.016.844.906 0 1.547-.469.64-.484 1.015-1.515zm-5.39-2.656h5.406q-.11-1.218-.625-1.828-.781-.953-2.031-.953-1.125 0-1.907.766-.765.75-.843 2.015zm15.453 2.22l1.61.218q-.266 1.656-1.36 2.61-1.078.937-2.671.937-1.985 0-3.188-1.297t-1.203-3.719q0-1.578.516-2.75.515-1.172 1.578-1.75 1.062-.594 2.312-.594 1.578 0 2.578.797 1 .797 1.282 2.266l-1.594.234q-.235-.968-.813-1.453-.578-.5-1.39-.5-1.235 0-2.016.89-.781.891-.781 2.813 0 1.953.75 2.844.75.875 1.953.875.969 0 1.61-.594.656-.593.827-1.828zm6.594 2.077l.235 1.453q-.688.141-1.235.141-.89 0-1.39-.281-.485-.281-.688-.735-.203-.468-.203-1.937v-5.578h-1.203v-1.266h1.203v-2.39l1.625-.985v3.375h1.656v1.266h-1.656v5.672q0 .687.078.89.094.203.281.328.203.11.578.11.266 0 .72-.063zm.95-1.422l1.624-.25q.125.97.75 1.5.625.516 1.75.516t1.672-.453q.547-.469.547-1.094 0-.547-.485-.875-.328-.219-1.671-.547-1.813-.468-2.516-.797-.688-.328-1.047-.906-.36-.594-.36-1.312 0-.64.298-1.188.296-.562.812-.922.375-.28 1.031-.468.672-.204 1.422-.204 1.14 0 2 .329.86.328 1.266.89.422.563.578 1.5l-1.61.219q-.109-.75-.64-1.172-.516-.422-1.469-.422-1.14 0-1.625.375-.469.375-.469.875 0 .313.188.578.203.266.64.438.235.094 1.438.422 1.75.453 2.438.75.687.297 1.078.86.39.562.39 1.405 0 .828-.484 1.547-.469.719-1.375 1.125-.906.39-2.047.39-1.875 0-2.875-.78-.984-.782-1.25-2.329z"/><path fill="#ead1dc" fill-rule="evenodd" d="M103.902 48.43c-1.75-9.714 3.998-19.33 14.806-24.767 10.809-5.438 24.782-5.744 35.99-.788 3.97-5.648 11.237-9.547 19.603-10.519 8.365-.971 16.846 1.1 22.878 5.585 3.382-5.12 10.023-8.56 17.566-9.1 7.544-.54 14.921 1.899 19.516 6.449 6.11-5.428 15.832-7.713 24.959-5.867 9.126 1.846 16.019 7.492 17.694 14.494 7.486 1.542 13.722 5.46 17.097 10.744 3.374 5.283 3.556 11.413.498 16.806 7.372 7.243 9.096 16.894 4.53 25.352-4.566 8.457-14.738 14.45-26.718 15.744-.085 7.937-5.851 15.221-15.078 19.043-9.226 3.822-20.471 3.586-29.4-.618-3.804 9.507-14.51 16.502-27.493 17.963-12.982 1.461-25.914-2.873-33.209-11.131-8.941 4.07-19.67 5.243-29.767 3.253-10.096-1.99-18.71-6.974-23.896-13.83-9.137.808-17.972-2.766-22.119-8.947-4.147-6.18-2.724-13.653 3.563-18.708-8.15-3.622-12.31-10.808-10.308-17.811 2.001-7.003 9.71-12.237 19.105-12.972z"/><path fill="none" d="M94.924 79.587c3.847 1.71 8.29 2.484 12.734 2.222m5.82 25.435a27.932 27.932 0 005.571-1.064m48.09 11.64a24.321 24.321 0 01-3.357-4.851m64.06-1.982a20.242 20.242 0 001.34-5.322m43.137-13.102c.09-8.452-6.268-16.19-16.344-19.89m38.532-21.205c-1.632 2.878-4.122 5.43-7.277 7.458m-10.316-35.009a13.97 13.97 0 01.384 3.522M234.26 15.29c-1.524 1.354-2.78 2.867-3.728 4.492m-33.354-1.841a14.13 14.13 0 00-1.806 3.874m-40.675 1.06a34.709 34.709 0 016.534 3.758m-57.33 21.797a20.35 20.35 0 001.14 3.954"/><path stroke="#000" stroke-linecap="butt" stroke-linejoin="round" d="M103.902 48.43v0c-1.75-9.714 3.998-19.33 14.806-24.767 10.809-5.438 24.782-5.744 35.99-.788v0c3.97-5.648 11.237-9.547 19.603-10.519 8.365-.971 16.846 1.1 22.878 5.585v0c3.382-5.12 10.023-8.56 17.566-9.1 7.544-.54 14.921 1.899 19.516 6.449v0c6.11-5.428 15.832-7.713 24.959-5.867 9.126 1.846 16.019 7.492 17.694 14.494v0c7.486 1.542 13.722 5.46 17.097 10.744 3.374 5.283 3.556 11.413.498 16.806v0c7.372 7.243 9.096 16.894 4.53 25.352-4.566 8.457-14.738 14.45-26.718 15.744-.085 7.937-5.851 15.221-15.078 19.043-9.226 3.822-20.471 3.586-29.4-.618v0c-3.804 9.507-14.51 16.502-27.493 17.963-12.982 1.461-25.914-2.873-33.209-11.131v0c-8.941 4.07-19.67 5.243-29.767 3.253-10.096-1.99-18.71-6.974-23.896-13.83v0c-9.137.808-17.972-2.766-22.119-8.947-4.147-6.18-2.724-13.653 3.563-18.708v0c-8.15-3.622-12.31-10.808-10.308-17.811 2.001-7.003 9.71-12.237 19.105-12.972z"/><path stroke="#000" stroke-linecap="butt" stroke-linejoin="round" d="M94.924 79.587v0c3.847 1.71 8.29 2.484 12.734 2.222m5.82 25.435a27.932 27.932 0 005.571-1.064m48.09 11.64a24.321 24.321 0 01-3.357-4.851m64.06-1.982v0a20.242 20.242 0 001.34-5.322m43.137-13.102c.09-8.452-6.268-16.19-16.344-19.89m38.532-21.205c-1.632 2.878-4.122 5.43-7.277 7.458m-10.316-35.009v0a13.97 13.97 0 01.384 3.522M234.26 15.29v0c-1.524 1.354-2.78 2.867-3.728 4.492m-33.354-1.841v0a14.13 14.13 0 00-1.806 3.874m-40.675 1.06v0a34.709 34.709 0 016.534 3.758m-57.33 21.797v0a20.35 20.35 0 001.14 3.954"/><path fill="#000" d="M152.844 59.353h1.766v7.719q0 2.015-.454 3.203-.453 1.187-1.64 1.937-1.188.735-3.125.735-1.875 0-3.078-.641-1.188-.656-1.703-1.875-.5-1.234-.5-3.36v-7.718h1.765v7.719q0 1.734.313 2.562.328.813 1.109 1.266.797.453 1.938.453 1.953 0 2.78-.89.829-.891.829-3.391zm3.848 10.469l1.625-.25q.125.968.75 1.5.625.515 1.75.515t1.672-.453q.547-.469.547-1.094 0-.546-.485-.875-.328-.218-1.672-.546-1.812-.47-2.515-.797-.688-.328-1.047-.907-.36-.593-.36-1.312 0-.64.297-1.188.297-.562.813-.921.375-.282 1.031-.47.672-.202 1.422-.202 1.14 0 2 .328.86.328 1.266.89.421.563.578 1.5l-1.61.22q-.109-.75-.64-1.173-.516-.422-1.469-.422-1.14 0-1.625.375-.469.375-.469.875 0 .313.188.579.203.265.64.437.235.094 1.438.422 1.75.453 2.437.75.688.297 1.079.86.39.562.39 1.406 0 .828-.484 1.546-.469.72-1.375 1.125-.906.391-2.047.391-1.875 0-2.875-.781-.985-.781-1.25-2.328zm16.61-.22l1.687.204q-.407 1.484-1.485 2.313-1.078.812-2.765.812-2.125 0-3.375-1.297-1.235-1.312-1.235-3.672 0-2.453 1.25-3.797 1.266-1.343 3.266-1.343 1.937 0 3.156 1.328 1.235 1.312 1.235 3.703v.437h-7.22q.095 1.594.907 2.454.813.843 2.016.843.906 0 1.547-.468.64-.485 1.015-1.516zm-5.391-2.655h5.406q-.11-1.22-.625-1.828-.781-.954-2.031-.954-1.125 0-1.907.766-.765.75-.843 2.016zm9.125 5.765V63.04h1.47v1.47q.562-1.032 1.03-1.36.485-.328 1.063-.328.828 0 1.687.53l-.562 1.517q-.61-.36-1.203-.36-.547 0-.969.328-.422.328-.61.89-.28.876-.28 1.923v5.062zm17.724-3.547l1.61.22q-.266 1.655-1.36 2.609-1.078.937-2.671.937-1.985 0-3.188-1.297t-1.203-3.719q0-1.578.516-2.75.515-1.171 1.578-1.75 1.062-.593 2.312-.593 1.578 0 2.578.797 1 .796 1.282 2.265l-1.594.235q-.235-.97-.813-1.454-.578-.5-1.39-.5-1.235 0-2.016.891-.781.89-.781 2.813 0 1.953.75 2.843.75.875 1.953.875.969 0 1.61-.593.656-.594.827-1.829zm2.407-1.296q0-2.688 1.484-3.97 1.25-1.077 3.047-1.077 2 0 3.266 1.312 1.265 1.297 1.265 3.61 0 1.859-.562 2.937-.563 1.063-1.64 1.656-1.063.594-2.33.594-2.03 0-3.28-1.297-1.25-1.312-1.25-3.765zm1.687 0q0 1.859.797 2.796.813.922 2.047.922 1.219 0 2.031-.922.813-.937.813-2.843 0-1.797-.813-2.72-.812-.921-2.031-.921-1.234 0-2.047.922-.797.906-.797 2.766zm15.563 4.843v-1.218q-.906 1.437-2.703 1.437-1.156 0-2.125-.64-.968-.641-1.5-1.782-.531-1.14-.531-2.625 0-1.453.484-2.625.485-1.187 1.438-1.812.969-.625 2.172-.625.875 0 1.547.375.687.359 1.109.953v-4.797h1.64v13.36zm-5.171-4.828q0 1.86.78 2.781.782.922 1.845.922 1.078 0 1.828-.875.75-.89.75-2.687 0-1.985-.766-2.906-.766-.938-1.89-.938-1.079 0-1.813.89-.734.891-.734 2.813zm15.906 1.719l1.688.203q-.406 1.484-1.484 2.313-1.078.812-2.766.812-2.125 0-3.375-1.297-1.234-1.312-1.234-3.672 0-2.453 1.25-3.797 1.265-1.343 3.265-1.343 1.938 0 3.156 1.328 1.235 1.312 1.235 3.703v.437h-7.219q.094 1.594.906 2.454.813.843 2.016.843.906 0 1.547-.468.64-.485 1.016-1.516zm-5.39-2.656h5.406q-.11-1.22-.625-1.828-.781-.954-2.031-.954-1.125 0-1.906.766-.766.75-.844 2.016z"/><path fill="#ead1dc" fill-rule="evenodd" d="M474.414 48.43c-1.751-9.714 3.998-19.33 14.806-24.767 10.809-5.438 24.782-5.744 35.99-.788 3.97-5.648 11.237-9.547 19.603-10.519 8.365-.971 16.846 1.1 22.878 5.585 3.382-5.12 10.023-8.56 17.566-9.1 7.543-.54 14.921 1.899 19.516 6.449 6.11-5.428 15.832-7.713 24.959-5.867 9.126 1.846 16.018 7.492 17.694 14.494 7.486 1.542 13.722 5.46 17.096 10.744 3.375 5.283 3.557 11.413.499 16.806 7.372 7.243 9.096 16.894 4.53 25.352-4.567 8.457-14.738 14.45-26.718 15.744-.085 7.937-5.852 15.221-15.078 19.043-9.226 3.822-20.471 3.586-29.401-.618-3.804 9.507-14.51 16.502-27.492 17.963-12.982 1.461-25.914-2.873-33.209-11.131-8.941 4.07-19.67 5.243-29.767 3.253-10.096-1.99-18.71-6.974-23.896-13.83-9.137.808-17.972-2.766-22.119-8.947-4.147-6.18-2.724-13.653 3.563-18.708-8.15-3.622-12.31-10.808-10.308-17.811 2.001-7.003 9.71-12.237 19.105-12.972z"/><path fill="none" d="M465.436 79.587c3.846 1.71 8.29 2.484 12.733 2.222m5.82 25.435a27.933 27.933 0 005.572-1.064m48.09 11.64a24.32 24.32 0 01-3.357-4.851m64.06-1.982a20.243 20.243 0 001.34-5.322m43.137-13.102c.09-8.452-6.269-16.19-16.344-19.89m38.532-21.205c-1.632 2.878-4.123 5.43-7.278 7.458m-10.316-35.009c.278 1.162.407 2.342.385 3.522M604.773 15.29c-1.524 1.354-2.78 2.867-3.728 4.492m-33.354-1.841a14.129 14.129 0 00-1.806 3.874m-40.676 1.06a34.709 34.709 0 016.535 3.758m-57.33 21.797a20.348 20.348 0 001.14 3.954"/><path stroke="#000" stroke-linecap="butt" stroke-linejoin="round" d="M474.414 48.43v0c-1.751-9.714 3.998-19.33 14.806-24.767 10.809-5.438 24.782-5.744 35.99-.788v0c3.97-5.648 11.237-9.547 19.603-10.519 8.365-.971 16.846 1.1 22.878 5.585v0c3.382-5.12 10.023-8.56 17.566-9.1 7.543-.54 14.921 1.899 19.516 6.449v0c6.11-5.428 15.832-7.713 24.959-5.867 9.126 1.846 16.018 7.492 17.694 14.494v0c7.486 1.542 13.722 5.46 17.096 10.744 3.375 5.283 3.557 11.413.499 16.806v0c7.372 7.243 9.096 16.894 4.53 25.352-4.567 8.457-14.738 14.45-26.718 15.744-.085 7.937-5.852 15.221-15.078 19.043-9.226 3.822-20.471 3.586-29.401-.618v0c-3.804 9.507-14.51 16.502-27.492 17.963-12.982 1.461-25.914-2.873-33.209-11.131v0c-8.941 4.07-19.67 5.243-29.767 3.253-10.096-1.99-18.71-6.974-23.896-13.83v0c-9.137.808-17.972-2.766-22.119-8.947-4.147-6.18-2.724-13.653 3.563-18.708v0c-8.15-3.622-12.31-10.808-10.308-17.811 2.001-7.003 9.71-12.237 19.105-12.972z"/><path stroke="#000" stroke-linecap="butt" stroke-linejoin="round" d="M465.436 79.587v0c3.846 1.71 8.29 2.484 12.733 2.222m5.82 25.435a27.933 27.933 0 005.572-1.064m48.09 11.64a24.32 24.32 0 01-3.357-4.851m64.06-1.982v0a20.243 20.243 0 001.34-5.322m43.137-13.102c.09-8.452-6.269-16.19-16.344-19.89m38.532-21.205c-1.632 2.878-4.123 5.43-7.278 7.458m-10.316-35.009v0c.278 1.162.407 2.342.385 3.522M604.773 15.29v0c-1.524 1.354-2.78 2.867-3.728 4.492m-33.354-1.841v0a14.129 14.129 0 00-1.806 3.874m-40.676 1.06v0a34.709 34.709 0 016.535 3.758m-57.33 21.797v0a20.348 20.348 0 001.14 3.954"/><path fill="#000" d="M523.356 59.353h1.765v7.719q0 2.015-.453 3.203-.453 1.187-1.64 1.937-1.188.735-3.125.735-1.875 0-3.079-.641-1.187-.656-1.703-1.875-.5-1.234-.5-3.36v-7.718h1.766v7.719q0 1.734.312 2.562.329.813 1.11 1.266.797.453 1.937.453 1.953 0 2.782-.89.828-.891.828-3.391zm3.848 10.469l1.625-.25q.125.968.75 1.5.625.515 1.75.515t1.672-.453q.546-.469.546-1.094 0-.546-.484-.875-.328-.218-1.672-.546-1.812-.47-2.515-.797-.688-.328-1.047-.907-.36-.593-.36-1.312 0-.64.297-1.188.297-.562.813-.921.375-.282 1.03-.47.673-.202 1.423-.202 1.14 0 2 .328.86.328 1.265.89.422.563.579 1.5l-1.61.22q-.11-.75-.64-1.173-.516-.422-1.47-.422-1.14 0-1.624.375-.469.375-.469.875 0 .313.188.579.203.265.64.437.235.094 1.438.422 1.75.453 2.437.75.688.297 1.078.86.39.562.39 1.406 0 .828-.483 1.546-.47.72-1.375 1.125-.907.391-2.047.391-1.875 0-2.875-.781-.985-.781-1.25-2.328zm16.61-.22l1.687.204q-.407 1.484-1.485 2.313-1.078.812-2.765.812-2.125 0-3.375-1.297-1.235-1.312-1.235-3.672 0-2.453 1.25-3.797 1.266-1.343 3.266-1.343 1.937 0 3.156 1.328 1.234 1.312 1.234 3.703v.437h-7.218q.093 1.594.906 2.454.812.843 2.016.843.906 0 1.546-.468.641-.485 1.016-1.516zm-5.392-2.655h5.407q-.11-1.22-.625-1.828-.782-.954-2.032-.954-1.125 0-1.906.766-.765.75-.844 2.016zm9.126 5.765V63.04h1.469v1.47q.562-1.032 1.031-1.36.485-.328 1.063-.328.828 0 1.687.53l-.562 1.517q-.61-.36-1.203-.36-.547 0-.97.328-.421.328-.609.89-.28.876-.28 1.923v5.062zm17.724-3.547l1.61.22q-.266 1.655-1.36 2.609-1.078.937-2.672.937-1.984 0-3.187-1.297-1.203-1.297-1.203-3.719 0-1.578.515-2.75.516-1.171 1.579-1.75 1.062-.593 2.312-.593 1.578 0 2.578.797 1 .796 1.281 2.265l-1.593.235q-.235-.97-.813-1.454-.578-.5-1.39-.5-1.235 0-2.016.891-.781.89-.781 2.813 0 1.953.75 2.843.75.875 1.953.875.969 0 1.61-.593.655-.594.827-1.829zm2.407-1.296q0-2.688 1.484-3.97 1.25-1.077 3.047-1.077 2 0 3.265 1.312 1.266 1.297 1.266 3.61 0 1.859-.562 2.937-.563 1.063-1.641 1.656-1.063.594-2.328.594-2.031 0-3.281-1.297-1.25-1.312-1.25-3.765zm1.687 0q0 1.859.797 2.796.812.922 2.047.922 1.219 0 2.031-.922.813-.937.813-2.843 0-1.797-.813-2.72-.812-.921-2.031-.921-1.235 0-2.047.922-.797.906-.797 2.766zm15.563 4.843v-1.218q-.906 1.437-2.703 1.437-1.156 0-2.125-.64-.969-.641-1.5-1.782-.531-1.14-.531-2.625 0-1.453.484-2.625.485-1.187 1.438-1.812.968-.625 2.172-.625.875 0 1.546.375.688.359 1.11.953v-4.797h1.64v13.36zm-5.172-4.828q0 1.86.782 2.781.78.922 1.843.922 1.078 0 1.828-.875.75-.89.75-2.687 0-1.985-.765-2.906-.766-.938-1.89-.938-1.079 0-1.813.89-.735.891-.735 2.813zm15.907 1.719l1.688.203q-.406 1.484-1.485 2.313-1.078.812-2.765.812-2.125 0-3.375-1.297-1.235-1.312-1.235-3.672 0-2.453 1.25-3.797 1.266-1.343 3.266-1.343 1.938 0 3.156 1.328 1.235 1.312 1.235 3.703v.437h-7.22q.095 1.594.907 2.454.813.843 2.016.843.906 0 1.547-.468.64-.485 1.015-1.516zm-5.39-2.656h5.406q-.11-1.22-.625-1.828-.781-.954-2.031-.954-1.125 0-1.907.766-.765.75-.843 2.016z"/><path fill="#fff2cc" fill-rule="evenodd" d="M249.793 132.789l37.677 56.515 5.992-4-3.991 19.989-19.977-3.99 5.992-4-37.677-56.514z"/><path stroke="#000" stroke-linecap="butt" stroke-linejoin="round" d="M249.793 132.789l37.677 56.515 5.992-4-3.991 19.989-19.977-3.99 5.992-4-37.677-56.514z"/><path fill="#fff2cc" fill-rule="evenodd" d="M461.642 197.341l44.639-51.187-5.433-4.732 20.337-1.396 1.395 20.325-5.433-4.732-44.64 51.187z"/><path stroke="#000" stroke-linecap="butt" stroke-linejoin="round" d="M461.642 197.341l44.639-51.187-5.433-4.732 20.337-1.396 1.395 20.325-5.433-4.732-44.64 51.187z"/><path fill="none" d="M111.13 150.041h153.354v42.016H111.13z"/><path fill="#000" d="M124.974 176.961V165.18h-4.406v-1.578h10.578v1.578h-4.407v11.781zm5.108-4.843q0-2.688 1.484-3.97 1.25-1.077 3.047-1.077 2 0 3.266 1.312 1.265 1.297 1.265 3.61 0 1.859-.562 2.937-.563 1.063-1.64 1.656-1.063.594-2.329.594-2.031 0-3.281-1.297-1.25-1.312-1.25-3.765zm1.687 0q0 1.859.797 2.796.813.922 2.047.922 1.219 0 2.031-.922.813-.937.813-2.843 0-1.797-.813-2.72-.812-.92-2.03-.92-1.235-.001-2.048.92-.797.907-.797 2.767zm8.657.828v-1.64h5.032v1.64zm8.354 4.015h-1.516v-13.36h1.64v4.767q1.048-1.297 2.657-1.297.89 0 1.687.36.797.358 1.313 1.015.516.64.797 1.562.297.922.297 1.969 0 2.484-1.235 3.844-1.218 1.36-2.953 1.36-1.703-.001-2.687-1.438zm-.016-4.906q0 1.734.485 2.516.765 1.265 2.093 1.265 1.078 0 1.86-.937.78-.938.78-2.781 0-1.891-.75-2.797-.75-.907-1.827-.907-1.063 0-1.86.938-.78.937-.78 2.703zm8.891-6.562v-1.891h1.641v1.89zm0 11.468v-9.672h1.641v9.672zm4.145 0v-9.672h1.47v1.375q1.062-1.593 3.077-1.593.875 0 1.61.312.734.313 1.093.828.375.5.516 1.203.094.454.094 1.594v5.953h-1.641v-5.89q0-1-.203-1.485-.188-.5-.672-.797-.484-.296-1.14-.296-1.047 0-1.813.671-.75.657-.75 2.516v5.281zm16.642 0v-1.218q-.907 1.437-2.703 1.437-1.157 0-2.125-.64-.97-.641-1.5-1.782-.532-1.14-.532-2.625 0-1.453.485-2.625.484-1.187 1.437-1.812.969-.625 2.172-.625.875 0 1.547.375.687.36 1.11.953v-4.797h1.64v13.36zm-5.172-4.828q0 1.86.781 2.781.781.922 1.844.922 1.078 0 1.828-.875.75-.89.75-2.687 0-1.985-.766-2.906-.765-.938-1.89-.938-1.078 0-1.813.89-.734.891-.734 2.813zm9.282-6.64v-1.891h1.64v1.89zm0 11.468v-9.672h1.64v9.672zm4.145 0v-9.672h1.468v1.375q1.063-1.593 3.078-1.593.875 0 1.61.312.734.313 1.094.828.375.5.515 1.203.094.454.094 1.594v5.953h-1.64v-5.89q0-1-.204-1.485-.187-.5-.672-.797-.484-.296-1.14-.296-1.047 0-1.813.671-.75.657-.75 2.516v5.281zm10.063.797l1.594.235q.109.75.562 1.078.61.453 1.672.453 1.14 0 1.75-.453.625-.453.844-1.266.125-.5.109-2.11-1.062 1.266-2.672 1.266-2 0-3.094-1.437-1.093-1.438-1.093-3.453 0-1.39.5-2.563.515-1.172 1.453-1.797.953-.64 2.25-.64 1.703 0 2.812 1.375v-1.157h1.516v8.36q0 2.265-.469 3.203-.453.937-1.453 1.484-.984.547-2.453.547-1.719 0-2.797-.781-1.062-.766-1.031-2.344zm1.36-5.812q0 1.906.75 2.78.765.876 1.905.876 1.125 0 1.891-.86.766-.874.766-2.734 0-1.781-.797-2.672-.781-.906-1.89-.906-1.095 0-1.86.89-.766.876-.766 2.626zm20.824 1.468l1.61.22q-.266 1.655-1.36 2.609-1.078.937-2.672.937-1.984 0-3.188-1.297-1.203-1.297-1.203-3.719 0-1.578.516-2.75.516-1.171 1.578-1.75 1.063-.593 2.313-.593 1.578 0 2.578.797 1 .796 1.28 2.265l-1.593.235q-.234-.97-.812-1.454-.578-.5-1.391-.5-1.234 0-2.016.891-.78.89-.78 2.813 0 1.953.75 2.843.75.875 1.952.875.969 0 1.61-.593.656-.594.828-1.829zm9.328 2.36q-.922.765-1.766 1.094-.828.312-1.797.312-1.593 0-2.453-.781-.86-.781-.86-1.985 0-.718.329-1.296.328-.594.844-.938.531-.36 1.187-.547.469-.125 1.453-.25 1.985-.234 2.922-.562.016-.344.016-.422 0-1-.469-1.422-.625-.547-1.875-.547-1.156 0-1.703.406-.547.407-.812 1.422l-1.61-.219q.219-1.015.719-1.64.5-.64 1.453-.985.953-.343 2.188-.343 1.25 0 2.015.297.781.28 1.14.734.376.437.516 1.11.078.421.078 1.515v2.187q0 2.282.11 2.891.11.594.406 1.156H228.6q-.266-.515-.328-1.187zm-.14-3.672q-.891.375-2.673.625-1.015.14-1.437.328-.422.188-.656.531-.22.344-.22.782 0 .656.5 1.093.5.438 1.454.438.938 0 1.672-.406.75-.422 1.094-1.141.265-.563.265-1.64zm4.156 4.86v-13.36h1.64v13.36zm4.145 0v-13.36h1.64v13.36zm3.536-2.891l1.625-.25q.125.968.75 1.5.625.515 1.75.515t1.671-.453q.547-.469.547-1.094 0-.546-.484-.875-.328-.218-1.672-.546-1.812-.47-2.516-.797-.687-.328-1.046-.907-.36-.593-.36-1.312 0-.64.297-1.188.297-.562.813-.921.375-.282 1.03-.47.673-.202 1.423-.202 1.14 0 2 .328.859.328 1.265.89.422.563.578 1.5l-1.609.22q-.11-.75-.64-1.173-.516-.422-1.47-.422-1.14 0-1.624.375-.47.375-.47.875 0 .313.188.579.204.265.641.437.234.094 1.438.422 1.75.453 2.437.75.688.297 1.078.86.39.562.39 1.406 0 .828-.484 1.546-.468.72-1.375 1.125-.906.391-2.046.391-1.875 0-2.875-.781-.985-.781-1.25-2.328z"/><path fill="none" d="M500.37 158.041h145.26v42.016H500.37z"/><path fill="#000" d="M514.214 184.961V173.18h-4.406v-1.578h10.578v1.578h-4.406v11.781zm5.108-4.843q0-2.688 1.485-3.97 1.25-1.077 3.046-1.077 2 0 3.266 1.312 1.266 1.297 1.266 3.61 0 1.859-.563 2.937-.562 1.063-1.64 1.656-1.063.594-2.329.594-2.03 0-3.28-1.297-1.25-1.312-1.25-3.765zm1.688 0q0 1.859.797 2.796.812.922 2.046.922 1.22 0 2.032-.922.812-.937.812-2.843 0-1.797-.812-2.72-.813-.92-2.032-.92-1.234-.001-2.046.92-.797.907-.797 2.767zm8.657.828v-1.64h5.031v1.64zm13.181 4.015v-1.422q-1.125 1.641-3.062 1.641-.86 0-1.61-.328-.734-.328-1.094-.828-.359-.5-.5-1.219-.109-.469-.109-1.531v-5.985h1.64v5.36q0 1.281.11 1.734.156.64.656 1.016.5.375 1.235.375.734 0 1.375-.375.656-.39.922-1.031.265-.657.265-1.891v-5.188h1.64v9.672zm3.391-2.89l1.625-.25q.125.968.75 1.5.625.515 1.75.515t1.672-.453q.547-.469.547-1.094 0-.546-.484-.875-.328-.218-1.672-.546-1.813-.47-2.516-.797-.687-.328-1.047-.907-.359-.593-.359-1.312 0-.64.297-1.188.297-.562.812-.921.375-.282 1.032-.47.672-.202 1.422-.202 1.14 0 2 .328.859.328 1.265.89.422.563.578 1.5l-1.609.22q-.11-.75-.64-1.173-.516-.422-1.47-.422-1.14 0-1.624.375-.47.375-.47.875 0 .313.188.579.203.265.641.437.234.094 1.437.422 1.75.453 2.438.75.687.297 1.078.86.39.562.39 1.406 0 .828-.484 1.546-.468.72-1.375 1.125-.906.391-2.047.391-1.875 0-2.875-.781-.984-.781-1.25-2.328zm16.61-.22l1.687.204q-.406 1.484-1.484 2.313-1.078.812-2.766.812-2.125 0-3.375-1.297-1.234-1.312-1.234-3.672 0-2.453 1.25-3.797 1.266-1.343 3.266-1.343 1.937 0 3.156 1.328 1.234 1.312 1.234 3.703v.437h-7.219q.094 1.594.907 2.454.812.843 2.015.843.907 0 1.547-.468.64-.485 1.016-1.516zm-5.39-2.655h5.405q-.109-1.22-.625-1.828-.78-.954-2.03-.954-1.126 0-1.907.766-.766.75-.844 2.016zm9.125 5.765v-9.672h1.469v1.47q.562-1.032 1.03-1.36.485-.328 1.063-.328.829 0 1.688.53l-.563 1.517q-.609-.36-1.203-.36-.547 0-.968.328-.422.328-.61.89-.281.876-.281 1.923v5.062zm17.724-3.547l1.61.22q-.266 1.655-1.36 2.609-1.078.937-2.672.937-1.984 0-3.187-1.297-1.203-1.297-1.203-3.719 0-1.578.515-2.75.516-1.171 1.578-1.75 1.063-.593 2.313-.593 1.578 0 2.578.797 1 .796 1.281 2.265l-1.594.235q-.234-.97-.812-1.454-.578-.5-1.39-.5-1.235 0-2.016.891-.782.89-.782 2.813 0 1.953.75 2.843.75.875 1.954.875.968 0 1.609-.593.656-.594.828-1.829zm9.328 2.36q-.922.765-1.765 1.094-.829.312-1.797.312-1.594 0-2.453-.781-.86-.781-.86-1.985 0-.718.328-1.296.328-.594.844-.938.531-.36 1.188-.547.468-.125 1.453-.25 1.984-.234 2.922-.562.015-.344.015-.422 0-1-.469-1.422-.625-.547-1.875-.547-1.156 0-1.703.406-.547.407-.812 1.422l-1.61-.219q.22-1.015.72-1.64.5-.64 1.452-.985.953-.343 2.188-.343 1.25 0 2.015.297.782.28 1.141.734.375.437.516 1.11.078.421.078 1.515v2.187q0 2.282.11 2.891.109.594.405 1.156h-1.703q-.265-.515-.328-1.187zm-.14-3.672q-.891.375-2.672.625-1.016.14-1.438.328-.422.188-.656.531-.219.344-.219.782 0 .656.5 1.093.5.438 1.453.438.938 0 1.672-.406.75-.422 1.094-1.141.266-.563.266-1.64zm4.156 4.86v-13.36h1.641v13.36zm4.145 0v-13.36h1.641v13.36zm3.536-2.891l1.625-.25q.125.968.75 1.5.625.515 1.75.515t1.672-.453q.547-.469.547-1.094 0-.546-.485-.875-.328-.218-1.672-.546-1.812-.47-2.515-.797-.688-.328-1.047-.907-.36-.593-.36-1.312 0-.64.297-1.188.297-.562.813-.921.375-.282 1.031-.47.672-.202 1.422-.202 1.14 0 2 .328.86.328 1.266.89.421.563.578 1.5l-1.61.22q-.11-.75-.64-1.173-.516-.422-1.47-.422-1.14 0-1.624.375-.469.375-.469.875 0 .313.188.579.203.265.64.437.235.094 1.438.422 1.75.453 2.437.75.688.297 1.078.86.391.562.391 1.406 0 .828-.484 1.546-.47.72-1.375 1.125-.907.391-2.047.391-1.875 0-2.875-.781-.985-.781-1.25-2.328z"/><path fill="none" d="M328.376 86.774h107.969v42.015H328.376z"/><path fill="#000" d="M342.22 113.694v-11.782h-4.406v-1.578h10.578v1.578h-4.406v11.782zm12.343-3.11l1.687.203q-.406 1.485-1.484 2.313-1.078.812-2.766.812-2.125 0-3.375-1.297-1.234-1.312-1.234-3.671 0-2.454 1.25-3.797 1.265-1.344 3.265-1.344 1.938 0 3.157 1.328 1.234 1.313 1.234 3.703v.438h-7.219q.094 1.593.907 2.453.812.844 2.015.844.906 0 1.547-.47.64-.484 1.016-1.515zm-5.39-2.656h5.405q-.109-1.219-.625-1.828-.78-.953-2.03-.953-1.126 0-1.907.765-.766.75-.844 2.016zm15.453 4.578q-.922.766-1.766 1.094-.828.312-1.797.312-1.593 0-2.453-.78-.859-.782-.859-1.985 0-.72.328-1.297.328-.594.844-.938.531-.36 1.187-.547.47-.125 1.453-.25 1.985-.234 2.922-.562.016-.344.016-.422 0-1-.469-1.422-.625-.547-1.875-.547-1.156 0-1.703.407-.547.406-.812 1.421l-1.61-.218q.219-1.016.719-1.64.5-.642 1.453-.985.953-.344 2.188-.344 1.25 0 2.015.297.781.281 1.14.734.376.438.516 1.11.079.421.079 1.515v2.188q0 2.28.109 2.89.11.594.406 1.157h-1.703q-.266-.516-.328-1.188zm-.14-3.672q-.891.375-2.673.625-1.015.14-1.437.328-.422.188-.656.532-.219.343-.219.78 0 .657.5 1.095.5.437 1.453.437.938 0 1.672-.406.75-.422 1.094-1.14.265-.563.265-1.641zm4.188 4.86v-9.672h1.468v1.468q.563-1.03 1.032-1.359.484-.328 1.062-.328.828 0 1.688.531l-.563 1.516q-.61-.36-1.203-.36-.547 0-.969.329-.422.328-.61.89-.28.875-.28 1.922v5.063zm12.493 0v-1.22q-.906 1.438-2.703 1.438-1.156 0-2.125-.64-.968-.64-1.5-1.782-.53-1.14-.53-2.625 0-1.453.483-2.625.485-1.187 1.438-1.812.969-.625 2.172-.625.875 0 1.547.375.687.36 1.11.953v-4.797h1.64v13.36zm-5.171-4.829q0 1.86.78 2.782.782.922 1.845.922 1.078 0 1.828-.875.75-.891.75-2.688 0-1.984-.766-2.906-.766-.938-1.89-.938-1.079 0-1.813.89-.734.892-.734 2.813zm8.672-.015q0-2.688 1.485-3.969 1.25-1.078 3.046-1.078 2 0 3.266 1.312 1.266 1.297 1.266 3.61 0 1.86-.563 2.937-.562 1.063-1.64 1.657-1.063.593-2.329.593-2.03 0-3.28-1.297-1.25-1.312-1.25-3.765zm1.688 0q0 1.86.797 2.797.812.922 2.046.922 1.22 0 2.032-.922.812-.938.812-2.844 0-1.797-.812-2.719-.813-.922-2.032-.922-1.234 0-2.046.922-.797.906-.797 2.766zm11.079 4.844l-2.97-9.672h1.704l1.531 5.578.578 2.078q.047-.156.5-2l1.547-5.656h1.688l1.437 5.61.485 1.843.562-1.86 1.656-5.593h1.594l-3.031 9.672h-1.703l-1.532-5.797-.375-1.64-1.953 7.437zm11.691 0v-9.672h1.469v1.375q1.062-1.594 3.078-1.594.875 0 1.61.312.734.313 1.093.829.375.5.516 1.203.094.453.094 1.593v5.954h-1.641v-5.891q0-1-.203-1.484-.188-.5-.672-.797-.484-.297-1.14-.297-1.048 0-1.813.672-.75.656-.75 2.515v5.282z"/><path fill="none" d="M348.631 121.582l-57.638 29.858"/><path stroke="#000" stroke-linecap="butt" stroke-linejoin="round" d="M348.631 121.582l-52.31 27.098"/><path fill="#000" fill-rule="evenodd" stroke="#000" stroke-linecap="butt" d="M295.561 147.214l-3.27 3.554 4.79-.621z"/><path fill="none" d="M382.36 128.79v61.732"/><path stroke="#000" stroke-linecap="butt" stroke-linejoin="round" d="M382.36 128.79v55.732"/><path fill="#000" fill-rule="evenodd" stroke="#000" stroke-linecap="butt" d="M380.709 184.522l1.652 4.538 1.651-4.538z"/><path fill="none" d="M408.32 121.583l57.638 40.126"/><path stroke="#000" stroke-linecap="butt" stroke-linejoin="round" d="M408.32 121.583l52.713 36.698"/><path fill="#000" fill-rule="evenodd" stroke="#000" stroke-linecap="butt" d="M460.09 159.636l4.668 1.238-2.78-3.949z"/><path fill="red" fill-rule="evenodd" d="M268.927 153.358l4.966-4.966 5.275 5.275 5.275-5.275 4.966 4.966-5.275 5.275 5.275 5.275-4.966 4.966-5.275-5.276-5.275 5.276-4.966-4.966 5.275-5.275zM373.023 195.303l4.966-4.966 5.275 5.275 5.275-5.275 4.966 4.966-5.275 5.275 5.275 5.275-4.966 4.966-5.275-5.275-5.275 5.275-4.966-4.966 5.275-5.275zM468.31 160.863l4.965-4.966 5.275 5.275 5.275-5.275 4.966 4.966-5.275 5.275 5.275 5.275-4.966 4.965-5.275-5.275-5.275 5.275-4.966-4.965 5.275-5.275z"/><path fill="none" d="M384.035 172.732h29.858v42.015h-29.858z"/><path fill="#000" d="M393.613 188.745l.422-1.296q1.453.515 2.11.89-.173-1.656-.188-2.265h1.328q-.031.89-.219 2.25.938-.47 2.156-.875l.422 1.296q-1.156.391-2.265.516.547.484 1.562 1.719l-1.094.781q-.53-.734-1.25-1.969-.671 1.282-1.187 1.969l-1.078-.781q1.062-1.297 1.515-1.719-1.171-.234-2.234-.516z"/><path fill="none" d="M460.25 219.952h217.165v90.488H460.249z"/><path fill="#000" d="M469.796 236.747l.39-1.203q1.344.469 1.954.812-.172-1.53-.172-2.093h1.219q-.016.828-.188 2.093.875-.437 2-.812l.39 1.203q-1.077.36-2.109.469.516.453 1.454 1.593l-1.016.735q-.484-.672-1.156-1.828-.625 1.187-1.11 1.828l-1-.735q.985-1.203 1.407-1.593-1.094-.203-2.063-.469zM484.613 245.825l.172 1.031q-.5.11-.89.11-.64 0-1-.203-.344-.204-.485-.532-.14-.328-.14-1.39v-3.969h-.86v-.906h.86v-1.719l1.172-.703v2.422h1.171v.906h-1.171v4.047q0 .5.046.64.063.141.204.235.14.078.406.078.203 0 .515-.047zm1.141 1.047v-9.547h1.172v3.422q.828-.938 2.078-.938.766 0 1.328.297.563.297.813.844.25.531.25 1.547v4.375h-1.172v-4.375q0-.89-.39-1.281-.376-.407-1.079-.407-.516 0-.984.282-.454.265-.657.734-.187.453-.187 1.266v3.781zm12.147-2.219l1.203.14q-.281 1.063-1.063 1.657-.765.578-1.968.578-1.516 0-2.407-.937-.89-.938-.89-2.61 0-1.75.89-2.703.907-.969 2.344-.969 1.39 0 2.266.938.875.937.875 2.656v.313h-5.156q.062 1.14.64 1.75.578.593 1.438.593.656 0 1.11-.328.452-.343.718-1.078zm-3.844-1.906h3.86q-.079-.86-.438-1.297-.563-.687-1.453-.687-.813 0-1.36.546-.546.532-.609 1.438zm14.71 4.125v-.875q-.657 1.031-1.938 1.031-.813 0-1.516-.453-.687-.453-1.078-1.266-.375-.828-.375-1.89 0-1.031.344-1.875.344-.844 1.031-1.281.703-.454 1.547-.454.625 0 1.11.266.5.25.796.672v-3.422h1.172v9.547zm-3.704-3.453q0 1.328.563 1.984.562.656 1.328.656.765 0 1.297-.625.53-.625.53-1.906 0-1.422-.546-2.078-.547-.672-1.344-.672-.781 0-1.312.64-.516.626-.516 2zm11.366 1.234l1.203.14q-.281 1.063-1.063 1.657-.765.578-1.968.578-1.516 0-2.407-.937-.89-.938-.89-2.61 0-1.75.89-2.703.907-.969 2.344-.969 1.39 0 2.266.938.875.937.875 2.656v.313h-5.156q.062 1.14.64 1.75.578.593 1.438.593.656 0 1.109-.328.453-.343.719-1.078zm-3.844-1.906h3.86q-.079-.86-.438-1.297-.563-.687-1.453-.687-.813 0-1.36.546-.546.532-.609 1.438zm6.053 2.062l1.156-.187q.11.703.547 1.078.453.36 1.25.36.813 0 1.203-.329.391-.328.391-.765 0-.39-.36-.625-.234-.157-1.187-.39-1.297-.329-1.797-.563-.484-.25-.75-.657-.25-.422-.25-.937 0-.453.203-.844.22-.406.578-.672.282-.187.75-.328.47-.14 1.016-.14.813 0 1.422.234.61.234.906.64.297.391.406 1.063l-1.14.156q-.078-.531-.453-.828-.375-.312-1.063-.312-.812 0-1.156.265-.344.266-.344.625 0 .235.14.422.157.188.454.313.172.062 1.031.296 1.25.329 1.735.547.5.203.78.61.282.406.282 1 0 .593-.344 1.11-.343.515-1 .796-.64.281-1.453.281-1.344 0-2.047-.562-.703-.563-.906-1.657zm9.695 1.016l.172 1.031q-.5.11-.89.11-.64 0-1-.203-.344-.204-.485-.532-.14-.328-.14-1.39v-3.969h-.86v-.906h.86v-1.719l1.172-.703v2.422h1.171v.906h-1.171v4.047q0 .5.046.64.063.141.204.235.14.078.406.078.203 0 .515-.047zm1.125 1.047v-6.906h1.063v1.047q.406-.735.734-.97.344-.234.766-.234.593 0 1.203.375l-.406 1.079q-.438-.25-.86-.25-.39 0-.703.234-.297.234-.422.64-.203.626-.203 1.36v3.625zm8.986 0v-1.016q-.813 1.172-2.188 1.172-.61 0-1.14-.234-.532-.235-.797-.578-.25-.36-.36-.875-.062-.344-.062-1.094v-4.281h1.172v3.828q0 .922.062 1.234.11.469.469.735.36.25.89.25.516 0 .985-.266t.656-.734q.188-.47.188-1.344v-3.703h1.171v6.906zm7.396-2.531l1.157.156q-.188 1.187-.97 1.86-.78.671-1.921.671-1.406 0-2.281-.922-.86-.937-.86-2.656 0-1.125.375-1.969.375-.843 1.125-1.25.766-.422 1.657-.422 1.125 0 1.843.579.72.562.922 1.609l-1.14.172q-.172-.703-.594-1.047-.406-.36-.984-.36-.891 0-1.454.641-.546.64-.546 2 0 1.406.53 2.031.548.625 1.407.625.688 0 1.14-.421.47-.422.594-1.297zm4.711 1.484l.172 1.031q-.5.11-.89.11-.641 0-1-.203-.344-.204-.485-.532-.14-.328-.14-1.39v-3.969h-.86v-.906h.86v-1.719l1.171-.703v2.422h1.172v.906h-1.172v4.047q0 .5.047.64.063.141.203.235.141.078.407.078.203 0 .515-.047zm1.156-7.14v-1.36h1.172v1.36zm0 8.187v-6.906h1.172v6.906zm2.508-3.453q0-1.922 1.079-2.844.89-.766 2.171-.766 1.422 0 2.329.938.906.922.906 2.578 0 1.328-.406 2.094-.391.765-1.157 1.187-.765.422-1.672.422-1.453 0-2.359-.922-.89-.937-.89-2.687zm1.204 0q0 1.328.578 1.984.593.656 1.468.656t1.454-.656q.578-.672.578-2.031 0-1.281-.594-1.938-.578-.656-1.438-.656-.875 0-1.468.656-.578.657-.578 1.985zm6.646 3.453v-6.906h1.063v.984q.75-1.14 2.187-1.14.625 0 1.157.218.53.219.78.594.266.36.376.86.062.327.062 1.14v4.25h-1.172v-4.203q0-.719-.14-1.063-.14-.359-.485-.562-.343-.219-.812-.219-.75 0-1.297.469-.547.469-.547 1.797v3.781zm10.678-3.453q0-1.922 1.078-2.844.891-.766 2.172-.766 1.422 0 2.328.938.907.922.907 2.578 0 1.328-.407 2.094-.39.765-1.156 1.187-.765.422-1.672.422-1.453 0-2.359-.922-.89-.937-.89-2.687zm1.203 0q0 1.328.579 1.984.593.656 1.468.656t1.453-.656q.579-.672.579-2.031 0-1.281-.594-1.938-.578-.656-1.438-.656-.875 0-1.468.656-.579.657-.579 1.985zm6.929 3.453v-6h-1.032v-.906h1.032v-.735q0-.703.125-1.047.171-.453.593-.734.422-.281 1.203-.281.485 0 1.094.11l-.187 1.03q-.36-.062-.688-.062-.531 0-.75.234-.219.22-.219.844v.64h1.344v.907h-1.344v6zm7.14-8.188v-1.359h1.172v1.36zm0 8.188v-6.906h1.172v6.906zm2.945 0v-6.906h1.063v.984q.75-1.14 2.187-1.14.625 0 1.157.218.53.219.78.594.267.36.376.86.062.327.062 1.14v4.25h-1.171v-4.203q0-.719-.141-1.063-.14-.359-.484-.562-.344-.219-.813-.219-.75 0-1.297.469-.547.469-.547 1.797v3.781zm9.975-1.047l.172 1.031q-.5.11-.89.11-.641 0-1-.203-.344-.204-.485-.532-.14-.328-.14-1.39v-3.969h-.86v-.906h.86v-1.719l1.171-.703v2.422h1.172v.906h-1.172v4.047q0 .5.047.64.063.141.204.235.14.078.406.078.203 0 .515-.047zm5.875-1.172l1.203.14q-.281 1.063-1.062 1.657-.766.578-1.969.578-1.516 0-2.406-.937-.89-.938-.89-2.61 0-1.75.89-2.703.906-.969 2.344-.969 1.39 0 2.265.938.875.937.875 2.656v.313h-5.156q.062 1.14.64 1.75.579.593 1.438.593.656 0 1.11-.328.453-.343.718-1.078zm-3.844-1.906h3.86q-.078-.86-.438-1.297-.562-.687-1.453-.687-.812 0-1.36.546-.546.532-.609 1.438zm6.507 4.125v-6.906h1.062v1.047q.406-.735.735-.97.343-.234.765-.234.594 0 1.203.375l-.406 1.079q-.437-.25-.86-.25-.39 0-.702.234-.297.234-.422.64-.203.626-.203 1.36v3.625zm4.454 0v-6.906h1.062v.984q.75-1.14 2.188-1.14.625 0 1.156.218.531.219.781.594.266.36.375.86.063.327.063 1.14v4.25h-1.172v-4.203q0-.719-.14-1.063-.141-.359-.485-.562-.344-.219-.813-.219-.75 0-1.297.469-.546.469-.546 1.797v3.781zm11.928-.86q-.656.563-1.266.797-.594.22-1.281.22-1.14 0-1.75-.548-.61-.562-.61-1.437 0-.5.22-.922.234-.422.609-.672.375-.25.843-.39.344-.079 1.047-.172 1.422-.172 2.094-.407v-.297q0-.718-.328-1.015-.453-.39-1.344-.39-.812 0-1.219.296-.39.281-.578 1.016l-1.14-.157q.156-.734.515-1.187.36-.453 1.032-.688.671-.25 1.562-.25.89 0 1.438.204.562.203.812.53.266.313.375.798.047.297.047 1.078v1.562q0 1.625.078 2.063.078.437.297.828h-1.219q-.187-.36-.234-.86zm-.094-2.609q-.64.266-1.922.438-.719.11-1.015.25-.297.125-.47.375-.155.25-.155.547 0 .468.343.78.36.313 1.047.313.672 0 1.203-.297.532-.296.782-.812.187-.39.187-1.172zm2.975 3.469v-9.547h1.172v9.547zM471.202 264.152h-1.078v-9.547h1.172v3.406q.734-.922 1.89-.922.641 0 1.204.266.578.25.937.719.375.453.578 1.11.204.655.204 1.405 0 1.782-.875 2.75-.875.97-2.11.97-1.219 0-1.922-1.016zm0-3.5q0 1.234.328 1.781.563.906 1.5.906.766 0 1.329-.656.562-.672.562-2 0-1.344-.547-1.984-.531-.656-1.297-.656-.765 0-1.328.671-.547.672-.547 1.938zm6.35-4.688v-1.359h1.172v1.36zm0 8.188v-6.906h1.172v6.906zm2.946 0v-6.906h1.062v.984q.75-1.14 2.188-1.14.625 0 1.156.218.531.219.781.594.266.36.375.86.063.327.063 1.14v4.25h-1.172v-4.203q0-.719-.14-1.063-.141-.359-.485-.562-.344-.219-.813-.219-.75 0-1.296.469-.547.469-.547 1.797v3.781zm11.897 0v-.875q-.657 1.031-1.938 1.031-.812 0-1.515-.453-.688-.453-1.079-1.266-.375-.828-.375-1.89 0-1.031.344-1.875.344-.844 1.031-1.281.704-.454 1.547-.454.625 0 1.11.266.5.25.797.672v-3.422h1.171v9.547zm-3.703-3.453q0 1.328.562 1.984.563.656 1.328.656.766 0 1.297-.625.531-.625.531-1.906 0-1.422-.547-2.078-.546-.672-1.343-.672-.782 0-1.313.64-.515.626-.515 2zm6.646-4.735v-1.359h1.172v1.36zm0 8.188v-6.906h1.172v6.906zm2.946 0v-6.906h1.062v.984q.75-1.14 2.188-1.14.625 0 1.156.218.531.219.781.594.266.36.375.86.063.327.063 1.14v4.25h-1.172v-4.203q0-.719-.14-1.063-.141-.359-.485-.562-.344-.219-.813-.219-.75 0-1.296.469-.547.469-.547 1.797v3.781zm7.194.578l1.14.156q.078.532.406.782.438.312 1.188.312.812 0 1.25-.328.453-.313.61-.906.093-.36.077-1.5-.765.906-1.906.906-1.437 0-2.219-1.031-.78-1.032-.78-2.469 0-.984.359-1.813.359-.843 1.03-1.296.688-.454 1.61-.454 1.219 0 2.016.985v-.828h1.078v5.968q0 1.61-.328 2.282-.328.687-1.047 1.078-.703.39-1.75.39-1.234 0-2-.562-.75-.563-.734-1.672zm.984-4.156q0 1.36.531 1.984.547.625 1.36.625.796 0 1.343-.625.547-.625.547-1.953 0-1.266-.562-1.906-.563-.64-1.36-.64-.765 0-1.312.64-.547.625-.547 1.875zm9.881 1.515l1.156-.187q.11.703.547 1.078.453.36 1.25.36.813 0 1.203-.329.39-.328.39-.765 0-.39-.358-.625-.235-.157-1.188-.39-1.297-.329-1.797-.563-.484-.25-.75-.657-.25-.422-.25-.937 0-.453.203-.844.219-.406.578-.672.282-.187.75-.328.47-.14 1.016-.14.813 0 1.422.234.61.234.906.64.297.391.406 1.063l-1.14.156q-.078-.531-.453-.828-.375-.312-1.063-.312-.812 0-1.156.265-.344.266-.344.625 0 .235.14.422.157.188.454.313.172.062 1.031.296 1.25.329 1.735.547.5.203.78.61.282.406.282 1 0 .593-.344 1.11-.343.515-1 .796-.64.281-1.453.281-1.344 0-2.047-.562-.703-.563-.906-1.657zm9.695 1.016l.172 1.031q-.5.11-.89.11-.641 0-1-.203-.344-.204-.485-.532-.14-.328-.14-1.39v-3.969h-.86v-.906h.86v-1.719l1.171-.703v2.422h1.172v.906h-1.172v4.047q0 .5.047.64.063.141.203.235.141.078.407.078.203 0 .515-.047zm5.656.188q-.656.562-1.265.796-.594.22-1.281.22-1.141 0-1.75-.548-.61-.562-.61-1.437 0-.5.219-.922.234-.422.61-.672.374-.25.843-.39.344-.079 1.047-.172 1.422-.172 2.094-.407v-.297q0-.718-.328-1.015-.454-.39-1.344-.39-.813 0-1.219.296-.39.281-.578 1.016l-1.14-.157q.156-.734.515-1.187.36-.453 1.031-.688.672-.25 1.563-.25.89 0 1.437.204.563.203.813.53.265.313.375.798.047.297.047 1.078v1.562q0 1.625.078 2.063.078.437.297.828h-1.22q-.187-.36-.234-.86zm-.093-2.61q-.64.266-1.922.438-.719.11-1.016.25-.297.125-.468.375-.157.25-.157.547 0 .468.344.78.36.313 1.047.313.672 0 1.203-.297.531-.296.781-.812.188-.39.188-1.172zm5.553 2.422l.172 1.031q-.5.11-.89.11-.642 0-1-.203-.345-.204-.485-.532-.14-.328-.14-1.39v-3.969h-.86v-.906h.86v-1.719l1.171-.703v2.422h1.172v.906h-1.172v4.047q0 .5.047.64.062.141.203.235.14.078.406.078.203 0 .516-.047zm5.875-1.172l1.203.14q-.281 1.063-1.063 1.657-.765.578-1.968.578-1.516 0-2.407-.937-.89-.938-.89-2.61 0-1.75.89-2.703.907-.969 2.344-.969 1.39 0 2.266.938.875.937.875 2.656v.313h-5.157q.063 1.14.641 1.75.578.593 1.438.593.656 0 1.109-.328.453-.343.719-1.078zm-3.844-1.906h3.86q-.079-.86-.438-1.297-.563-.687-1.453-.687-.813 0-1.36.546-.547.532-.609 1.438zm10.225 4.125v-6.906h1.047v.968q.328-.515.86-.812.546-.313 1.233-.313.782 0 1.266.313.484.312.688.89.828-1.203 2.14-1.203 1.031 0 1.578.579.563.562.563 1.734v4.75h-1.172v-4.36q0-.703-.125-1-.11-.312-.406-.5-.297-.187-.703-.187-.72 0-1.204.484-.484.485-.484 1.547v4.016h-1.172v-4.484q0-.782-.297-1.172-.28-.39-.922-.39-.5 0-.921.265-.422.25-.61.75-.187.5-.187 1.453v3.578zm15.618-.86q-.656.563-1.266.797-.593.22-1.281.22-1.14 0-1.75-.548-.61-.562-.61-1.437 0-.5.22-.922.234-.422.609-.672.375-.25.844-.39.343-.079 1.046-.172 1.422-.172 2.094-.407v-.297q0-.718-.328-1.015-.453-.39-1.344-.39-.812 0-1.218.296-.391.281-.579 1.016l-1.14-.157q.156-.734.515-1.187.36-.453 1.032-.688.672-.25 1.562-.25t1.438.204q.562.203.812.53.266.313.375.798.047.297.047 1.078v1.562q0 1.625.078 2.063.078.437.297.828h-1.219q-.187-.36-.234-.86zm-.094-2.609q-.64.266-1.922.438-.718.11-1.015.25-.297.125-.47.375-.155.25-.155.547 0 .468.343.78.36.313 1.047.313.672 0 1.203-.297.532-.296.782-.812.187-.39.187-1.172zm2.944 6.125l-.125-1.094q.375.11.656.11.39 0 .625-.14.235-.126.39-.36.11-.172.36-.875.031-.094.11-.281l-2.625-6.922h1.265l1.438 4q.28.765.5 1.593.203-.796.468-1.578l1.485-4.015h1.172l-2.625 7.015q-.422 1.141-.657 1.578-.312.579-.718.844-.407.281-.97.281-.327 0-.75-.156zm11.492-2.656h-1.078v-9.547h1.172v3.406q.734-.922 1.89-.922.641 0 1.203.266.579.25.938.719.375.453.578 1.11.203.655.203 1.405 0 1.782-.875 2.75-.875.97-2.11.97-1.218 0-1.921-1.016zm0-3.5q0 1.234.328 1.781.563.906 1.5.906.766 0 1.328-.656.563-.672.563-2 0-1.344-.547-1.984-.531-.656-1.297-.656-.766 0-1.328.671-.547.672-.547 1.938zm11.069 1.281l1.203.14q-.281 1.063-1.063 1.657-.765.578-1.968.578-1.516 0-2.407-.937-.89-.938-.89-2.61 0-1.75.89-2.703.907-.969 2.344-.969 1.39 0 2.266.938.875.937.875 2.656v.313h-5.157q.063 1.14.641 1.75.578.593 1.438.593.656 0 1.109-.328.453-.343.719-1.078zm-3.844-1.906h3.86q-.079-.86-.438-1.297-.563-.687-1.453-.687-.813 0-1.36.546-.547.532-.61 1.438zm14.71 4.125v-.875q-.657 1.031-1.938 1.031-.813 0-1.516-.453-.688-.453-1.078-1.266-.375-.828-.375-1.89 0-1.031.344-1.875.343-.844 1.03-1.281.704-.454 1.548-.454.625 0 1.11.266.5.25.796.672v-3.422h1.172v9.547zm-3.704-3.453q0 1.328.562 1.984.563.656 1.329.656.765 0 1.296-.625.532-.625.532-1.906 0-1.422-.547-2.078-.547-.672-1.344-.672-.781 0-1.312.64-.516.626-.516 2zm11.366 1.234l1.203.14q-.282 1.063-1.063 1.657-.765.578-1.969.578-1.515 0-2.406-.937-.89-.938-.89-2.61 0-1.75.89-2.703.906-.969 2.344-.969 1.39 0 2.266.938.875.937.875 2.656v.313h-5.157q.063 1.14.641 1.75.578.593 1.437.593.657 0 1.11-.328.453-.343.719-1.078zm-3.844-1.906h3.86q-.079-.86-.438-1.297-.563-.687-1.453-.687-.813 0-1.36.546-.547.532-.61 1.438zm6.506 4.125v-9.547h1.172v9.547zm7.492-.86q-.656.563-1.265.797-.594.22-1.281.22-1.141 0-1.75-.548-.61-.562-.61-1.437 0-.5.219-.922.234-.422.61-.672.374-.25.843-.39.344-.079 1.047-.172 1.422-.172 2.094-.407v-.297q0-.718-.328-1.015-.454-.39-1.344-.39-.813 0-1.219.296-.39.281-.578 1.016l-1.14-.157q.156-.734.515-1.187.36-.453 1.031-.688.672-.25 1.563-.25.89 0 1.437.204.563.203.813.53.265.313.375.798.047.297.047 1.078v1.562q0 1.625.078 2.063.078.437.297.828h-1.22q-.187-.36-.234-.86zm-.093-2.609q-.64.266-1.922.438-.719.11-1.016.25-.297.125-.469.375-.156.25-.156.547 0 .468.344.78.36.313 1.047.313.672 0 1.203-.297.531-.296.781-.812.188-.39.188-1.172zm2.943 6.125l-.125-1.094q.375.11.657.11.39 0 .625-.14.234-.126.39-.36.11-.172.36-.875.03-.094.11-.281l-2.626-6.922h1.266l1.437 4q.281.765.5 1.593.203-.796.469-1.578l1.484-4.015h1.172l-2.625 7.015q-.422 1.141-.656 1.578-.313.579-.719.844-.406.281-.969.281-.328 0-.75-.156zm11.446-4.875l1.203.14q-.281 1.063-1.063 1.657-.765.578-1.968.578-1.516 0-2.407-.937-.89-.938-.89-2.61 0-1.75.89-2.703.907-.969 2.344-.969 1.39 0 2.266.938.875.937.875 2.656v.313h-5.156q.062 1.14.64 1.75.578.593 1.438.593.656 0 1.109-.328.453-.343.719-1.078zm-3.844-1.906h3.86q-.079-.86-.438-1.297-.563-.687-1.453-.687-.813 0-1.36.546-.546.532-.609 1.438zm11.006 4.125v-.875q-.656 1.031-1.937 1.031-.813 0-1.516-.453-.687-.453-1.078-1.266-.375-.828-.375-1.89 0-1.031.344-1.875.343-.844 1.031-1.281.703-.454 1.547-.454.625 0 1.11.266.5.25.796.672v-3.422h1.172v9.547zm-3.703-3.453q0 1.328.563 1.984.562.656 1.328.656.765 0 1.297-.625.53-.625.53-1.906 0-1.422-.546-2.078-.547-.672-1.344-.672-.781 0-1.312.64-.516.626-.516 2zm14.85 2.594q-.656.562-1.266.796-.593.22-1.28.22-1.142 0-1.75-.548-.61-.562-.61-1.437 0-.5.218-.922.235-.422.61-.672.375-.25.844-.39.343-.079 1.046-.172 1.422-.172 2.094-.407v-.297q0-.718-.328-1.015-.453-.39-1.344-.39-.812 0-1.218.296-.391.281-.579 1.016l-1.14-.157q.156-.734.515-1.187.36-.453 1.032-.688.672-.25 1.562-.25t1.438.204q.562.203.812.53.266.313.375.798.047.297.047 1.078v1.562q0 1.625.078 2.063.078.437.297.828h-1.219q-.187-.36-.234-.86zm-.094-2.61q-.64.266-1.922.438-.718.11-1.015.25-.297.125-.469.375-.156.25-.156.547 0 .468.344.78.359.313 1.046.313.672 0 1.204-.297.53-.296.78-.812.188-.39.188-1.172zm2.522 1.406l1.156-.187q.11.703.547 1.078.453.36 1.25.36.813 0 1.203-.329.391-.328.391-.765 0-.39-.36-.625-.234-.157-1.187-.39-1.297-.329-1.797-.563-.484-.25-.75-.657-.25-.422-.25-.937 0-.453.203-.844.22-.406.578-.672.282-.187.75-.328.47-.14 1.016-.14.813 0 1.422.234.61.234.906.64.297.391.406 1.063l-1.14.156q-.078-.531-.453-.828-.375-.312-1.063-.312-.812 0-1.156.265-.344.266-.344.625 0 .235.14.422.157.188.454.313.172.062 1.031.296 1.25.329 1.735.547.5.203.78.61.282.406.282 1 0 .593-.344 1.11-.343.515-1 .796-.64.281-1.453.281-1.344 0-2.047-.562-.703-.563-.906-1.657zM470.109 280.152v-9.547h1.171v9.547zm2.539-3.453q0-1.922 1.078-2.844.89-.766 2.172-.766 1.422 0 2.328.938.906.922.906 2.578 0 1.328-.406 2.094-.39.765-1.156 1.187-.766.422-1.672.422-1.453 0-2.36-.922-.89-.937-.89-2.687zm1.203 0q0 1.328.578 1.984.594.656 1.469.656.875 0 1.453-.656.578-.672.578-2.031 0-1.281-.594-1.938-.578-.656-1.437-.656-.875 0-1.469.656-.578.657-.578 1.985zm6.647 3.453v-6.906h1.062v.984q.75-1.14 2.188-1.14.625 0 1.156.218.531.219.781.594.266.36.375.86.063.327.063 1.14v4.25h-1.172v-4.203q0-.719-.14-1.063-.141-.359-.485-.562-.344-.219-.813-.219-.75 0-1.296.469-.547.469-.547 1.797v3.781zm7.194.578l1.14.156q.078.532.406.782.438.312 1.188.312.812 0 1.25-.328.453-.313.61-.906.093-.36.077-1.5-.765.906-1.906.906-1.437 0-2.219-1.031-.78-1.032-.78-2.469 0-.984.359-1.813.359-.843 1.03-1.296.688-.454 1.61-.454 1.219 0 2.016.985v-.828h1.078v5.968q0 1.61-.328 2.282-.328.687-1.047 1.078-.703.39-1.75.39-1.234 0-2-.562-.75-.563-.734-1.672zm.984-4.156q0 1.36.531 1.984.547.625 1.36.625.796 0 1.343-.625.547-.625.547-1.953 0-1.266-.562-1.906-.563-.64-1.36-.64-.765 0-1.312.64-.547.625-.547 1.875zm14.865 2.719q-.656.562-1.265.796-.594.22-1.281.22-1.141 0-1.75-.548-.61-.562-.61-1.437 0-.5.219-.922.234-.422.61-.672.374-.25.843-.39.344-.079 1.047-.172 1.422-.172 2.094-.407v-.297q0-.718-.328-1.015-.454-.39-1.344-.39-.813 0-1.219.296-.39.281-.578 1.016l-1.14-.157q.156-.734.515-1.187.36-.453 1.031-.688.672-.25 1.563-.25.89 0 1.437.204.563.203.813.53.265.313.375.798.047.297.047 1.078v1.562q0 1.625.078 2.063.078.437.297.828h-1.22q-.187-.36-.234-.86zm-.093-2.61q-.64.266-1.922.438-.719.11-1.016.25-.297.125-.469.375-.156.25-.156.547 0 .468.344.78.36.313 1.047.313.672 0 1.203-.297.531-.296.781-.812.188-.39.188-1.172zm2.522 1.406l1.156-.187q.11.703.547 1.078.453.36 1.25.36.812 0 1.203-.329.39-.328.39-.765 0-.39-.359-.625-.234-.157-1.187-.39-1.297-.329-1.797-.563-.485-.25-.75-.657-.25-.422-.25-.937 0-.453.203-.844.219-.406.578-.672.281-.187.75-.328.469-.14 1.016-.14.812 0 1.421.234.61.234.907.64.297.391.406 1.063l-1.14.156q-.079-.531-.454-.828-.375-.312-1.062-.312-.813 0-1.157.265-.343.266-.343.625 0 .235.14.422.157.188.453.313.172.062 1.032.296 1.25.329 1.734.547.5.203.781.61.282.406.282 1 0 .593-.344 1.11-.344.515-1 .796-.64.281-1.453.281-1.344 0-2.047-.562-.703-.563-.906-1.657zm13.398 1.016l.172 1.031q-.5.11-.89.11-.642 0-1-.203-.345-.204-.485-.532-.14-.328-.14-1.39v-3.969h-.86v-.906h.86v-1.719l1.171-.703v2.422h1.172v.906h-1.172v4.047q0 .5.047.64.062.141.203.235.14.078.406.078.203 0 .516-.047zm1.14 1.047v-9.547h1.172v3.422q.828-.938 2.078-.938.766 0 1.328.297.563.297.813.844.25.531.25 1.547v4.375h-1.172v-4.375q0-.89-.39-1.281-.376-.407-1.079-.407-.515 0-.984.282-.453.265-.656.734-.188.453-.188 1.266v3.781zm12.147-2.219l1.203.14q-.281 1.063-1.062 1.657-.766.578-1.969.578-1.516 0-2.406-.937-.89-.938-.89-2.61 0-1.75.89-2.703.906-.969 2.344-.969 1.39 0 2.265.938.875.937.875 2.656v.313h-5.156q.062 1.14.64 1.75.579.593 1.438.593.656 0 1.11-.328.453-.343.718-1.078zm-3.844-1.906h3.86q-.078-.86-.438-1.297-.562-.687-1.453-.687-.812 0-1.36.546-.546.532-.609 1.438zm14.756 4.125v-1.016q-.812 1.172-2.187 1.172-.61 0-1.14-.234-.532-.235-.798-.578-.25-.36-.359-.875-.062-.344-.062-1.094v-4.281h1.171v3.828q0 .922.063 1.234.11.469.469.735.36.25.89.25.516 0 .985-.266.468-.266.656-.734.187-.47.187-1.344v-3.703h1.172v6.906zm2.413-2.063l1.156-.187q.11.703.547 1.078.453.36 1.25.36.813 0 1.203-.329.39-.328.39-.765 0-.39-.359-.625-.234-.157-1.187-.39-1.297-.329-1.797-.563-.484-.25-.75-.657-.25-.422-.25-.937 0-.453.203-.844.219-.406.578-.672.282-.187.75-.328.47-.14 1.016-.14.812 0 1.422.234.61.234.906.64.297.391.406 1.063l-1.14.156q-.078-.531-.453-.828-.375-.312-1.063-.312-.812 0-1.156.265-.344.266-.344.625 0 .235.14.422.157.188.454.313.172.062 1.031.296 1.25.329 1.734.547.5.203.782.61.281.406.281 1 0 .593-.344 1.11-.344.515-1 .796-.64.281-1.453.281-1.344 0-2.047-.562-.703-.563-.906-1.657zm11.867-.156l1.203.14q-.281 1.063-1.062 1.657-.766.578-1.969.578-1.516 0-2.406-.937-.89-.938-.89-2.61 0-1.75.89-2.703.906-.969 2.344-.969 1.39 0 2.265.938.875.937.875 2.656v.313h-5.156q.062 1.14.64 1.75.579.593 1.438.593.656 0 1.11-.328.453-.343.718-1.078zm-3.844-1.906h3.86q-.078-.86-.438-1.297-.562-.687-1.453-.687-.812 0-1.36.546-.546.532-.609 1.438zm6.507 4.125v-6.906h1.062v1.047q.406-.735.735-.97.343-.234.765-.234.594 0 1.203.375l-.406 1.079q-.437-.25-.86-.25-.39 0-.702.234-.297.234-.422.64-.203.626-.203 1.36v3.625zm7.72-3.453q0-1.922 1.077-2.844.89-.766 2.172-.766 1.422 0 2.328.938.906.922.906 2.578 0 1.328-.406 2.094-.39.765-1.156 1.187-.766.422-1.672.422-1.453 0-2.36-.922-.89-.937-.89-2.687zm1.202 0q0 1.328.578 1.984.594.656 1.47.656.874 0 1.452-.656.578-.672.578-2.031 0-1.281-.593-1.938-.579-.656-1.438-.656-.875 0-1.469.656-.578.657-.578 1.985zm7.725 3.453h-1.078v-9.547h1.172v3.406q.734-.922 1.89-.922.641 0 1.204.266.578.25.937.719.375.453.578 1.11.203.655.203 1.405 0 1.782-.875 2.75-.875.97-2.109.97-1.219 0-1.922-1.016zm0-3.5q0 1.234.328 1.781.563.906 1.5.906.766 0 1.328-.656.563-.672.563-2 0-1.344-.547-1.984-.531-.656-1.297-.656-.765 0-1.328.671-.547.672-.547 1.938zm5.866 1.437l1.156-.187q.11.703.547 1.078.453.36 1.25.36.812 0 1.203-.329.39-.328.39-.765 0-.39-.359-.625-.234-.157-1.187-.39-1.297-.329-1.797-.563-.484-.25-.75-.657-.25-.422-.25-.937 0-.453.203-.844.219-.406.578-.672.281-.187.75-.328.469-.14 1.016-.14.812 0 1.422.234.61.234.906.64.297.391.406 1.063l-1.14.156q-.079-.531-.454-.828-.375-.312-1.062-.312-.813 0-1.156.265-.344.266-.344.625 0 .235.14.422.157.188.454.313.172.062 1.03.296 1.25.329 1.735.547.5.203.782.61.28.406.28 1 0 .593-.343 1.11-.344.515-1 .796-.64.281-1.453.281-1.344 0-2.047-.562-.703-.563-.906-1.657zm11.867-.156l1.203.14q-.281 1.063-1.062 1.657-.766.578-1.97.578-1.515 0-2.405-.937-.891-.938-.891-2.61 0-1.75.89-2.703.907-.969 2.344-.969 1.391 0 2.266.938.875.937.875 2.656v.313h-5.156q.062 1.14.64 1.75.579.593 1.438.593.656 0 1.11-.328.452-.343.718-1.078zm-3.844-1.906h3.86q-.078-.86-.438-1.297-.562-.687-1.453-.687-.812 0-1.36.546-.546.532-.609 1.438zm6.506 4.125v-6.906h1.063v1.047q.406-.735.734-.97.344-.234.766-.234.594 0 1.203.375l-.406 1.079q-.438-.25-.86-.25-.39 0-.703.234-.297.234-.422.64-.203.626-.203 1.36v3.625zm6.376 0l-2.625-6.906h1.235l1.484 4.14q.234.657.438 1.391.156-.547.437-1.313l1.531-4.218h1.22l-2.626 6.906zm9.258-.86q-.656.563-1.265.797-.594.22-1.282.22-1.14 0-1.75-.548-.61-.562-.61-1.437 0-.5.22-.922.234-.422.609-.672.375-.25.844-.39.344-.079 1.047-.172 1.422-.172 2.093-.407v-.297q0-.718-.328-1.015-.453-.39-1.343-.39-.813 0-1.22.296-.39.281-.577 1.016l-1.141-.157q.156-.734.516-1.187.359-.453 1.03-.688.673-.25 1.563-.25.891 0 1.438.204.562.203.812.53.266.313.375.798.047.297.047 1.078v1.562q0 1.625.078 2.063.078.437.297.828h-1.218q-.188-.36-.235-.86zm-.094-2.609q-.64.266-1.921.438-.72.11-1.016.25-.297.125-.469.375-.156.25-.156.547 0 .468.344.78.36.313 1.047.313.671 0 1.203-.297.53-.296.78-.812.188-.39.188-1.172zm4.07 3.469h-1.079v-9.547h1.172v3.406q.734-.922 1.89-.922.641 0 1.204.266.578.25.937.719.375.453.578 1.11.203.655.203 1.405 0 1.782-.875 2.75-.875.97-2.109.97-1.219 0-1.922-1.016zm0-3.5q0 1.234.327 1.781.563.906 1.5.906.766 0 1.328-.656.563-.672.563-2 0-1.344-.547-1.984-.531-.656-1.297-.656-.765 0-1.328.671-.547.672-.547 1.938zm6.318 3.5v-9.547h1.172v9.547zm7.711-2.219l1.203.14q-.281 1.063-1.062 1.657-.766.578-1.97.578-1.515 0-2.405-.937-.891-.938-.891-2.61 0-1.75.89-2.703.907-.969 2.344-.969 1.391 0 2.266.938.875.937.875 2.656v.313h-5.156q.062 1.14.64 1.75.579.593 1.438.593.656 0 1.11-.328.452-.343.718-1.078zm-3.844-1.906h3.86q-.078-.86-.438-1.297-.562-.687-1.453-.687-.812 0-1.36.546-.546.532-.609 1.438zM471.202 296.152h-1.078v-9.547h1.172v3.406q.734-.922 1.89-.922.641 0 1.204.266.578.25.937.719.375.453.578 1.11.204.655.204 1.405 0 1.782-.875 2.75-.875.97-2.11.97-1.219 0-1.922-1.016zm0-3.5q0 1.234.328 1.781.563.906 1.5.906.766 0 1.329-.656.562-.672.562-2 0-1.344-.547-1.984-.531-.656-1.297-.656-.765 0-1.328.671-.547.672-.547 1.938zm11.07 1.281l1.202.14q-.281 1.063-1.062 1.657-.766.578-1.969.578-1.516 0-2.406-.937-.89-.938-.89-2.61 0-1.75.89-2.703.906-.969 2.343-.969 1.391 0 2.266.938.875.937.875 2.656v.313h-5.156q.062 1.14.64 1.75.579.593 1.438.593.656 0 1.11-.328.452-.343.718-1.078zm-3.845-1.906h3.86q-.078-.86-.438-1.297-.562-.687-1.453-.687-.812 0-1.36.546-.546.532-.609 1.438zm6.522 4.125v-9.547h1.172v3.422q.828-.938 2.078-.938.766 0 1.328.297.563.297.813.844.25.531.25 1.547v4.375h-1.172v-4.375q0-.89-.39-1.281-.376-.407-1.079-.407-.515 0-.984.282-.453.265-.656.734-.188.453-.188 1.266v3.781zm11.928-.86q-.656.563-1.265.797-.594.22-1.282.22-1.14 0-1.75-.548-.609-.562-.609-1.437 0-.5.219-.922.234-.422.61-.672.374-.25.843-.39.344-.079 1.047-.172 1.422-.172 2.094-.407v-.297q0-.718-.329-1.015-.453-.39-1.343-.39-.813 0-1.22.296-.39.281-.577 1.016l-1.14-.157q.155-.734.515-1.187.36-.453 1.031-.688.672-.25 1.563-.25.89 0 1.437.204.563.203.813.53.265.313.375.798.046.297.046 1.078v1.562q0 1.625.079 2.063.078.437.296.828h-1.218q-.188-.36-.235-.86zm-.093-2.609q-.641.266-1.922.438-.719.11-1.016.25-.297.125-.469.375-.156.25-.156.547 0 .468.344.78.36.313 1.047.313.672 0 1.203-.297.531-.296.781-.812.188-.39.188-1.172zm4.912 3.469l-2.625-6.906h1.234l1.485 4.14q.234.657.437 1.391.157-.547.438-1.313l1.531-4.218h1.219l-2.625 6.906zm4.758-8.188v-1.359h1.172v1.36zm0 8.188v-6.906h1.172v6.906zm2.508-3.453q0-1.922 1.078-2.844.89-.766 2.172-.766 1.422 0 2.328.938.906.922.906 2.578 0 1.328-.406 2.094-.39.765-1.156 1.187-.766.422-1.672.422-1.453 0-2.36-.922-.89-.937-.89-2.687zm1.203 0q0 1.328.578 1.984.594.656 1.469.656.875 0 1.453-.656.578-.672.578-2.031 0-1.281-.594-1.938-.578-.656-1.437-.656-.875 0-1.469.656-.578.657-.578 1.985zm6.631 3.453v-6.906h1.063v1.047q.406-.735.734-.97.344-.234.766-.234.593 0 1.203.375l-.406 1.079q-.438-.25-.86-.25-.39 0-.703.234-.297.234-.422.64-.203.626-.203 1.36v3.625zm3.985-2.063l1.157-.187q.109.703.547 1.078.453.36 1.25.36.812 0 1.203-.329.39-.328.39-.765 0-.39-.36-.625-.233-.157-1.187-.39-1.296-.329-1.796-.563-.485-.25-.75-.657-.25-.422-.25-.937 0-.453.203-.844.218-.406.578-.672.281-.187.75-.328.469-.14 1.015-.14.813 0 1.422.234.61.234.907.64.296.391.406 1.063l-1.14.156q-.079-.531-.454-.828-.375-.312-1.062-.312-.813 0-1.157.265-.343.266-.343.625 0 .235.14.422.156.188.453.313.172.062 1.032.296 1.25.329 1.734.547.5.203.781.61.281.406.281 1 0 .593-.343 1.11-.344.515-1 .796-.641.281-1.453.281-1.344 0-2.047-.562-.703-.563-.907-1.657zm13.086 4.875q-.984-1.234-1.656-2.875-.656-1.64-.656-3.39 0-1.547.5-2.969.578-1.64 1.812-3.281h.828q-.78 1.36-1.03 1.937-.407.891-.626 1.875-.281 1.22-.281 2.438 0 3.14 1.937 6.265zm6.704-5.343l1.156.156q-.187 1.187-.968 1.86-.782.671-1.922.671-1.406 0-2.281-.922-.86-.937-.86-2.656 0-1.125.375-1.969.375-.843 1.125-1.25.766-.422 1.656-.422 1.125 0 1.844.579.719.562.922 1.609l-1.14.172q-.172-.703-.594-1.047-.407-.36-.985-.36-.89 0-1.453.641-.547.64-.547 2 0 1.406.532 2.031.546.625 1.406.625.687 0 1.14-.421.47-.422.594-1.297zm6.664 1.672q-.656.562-1.265.796-.594.22-1.282.22-1.14 0-1.75-.548-.609-.562-.609-1.437 0-.5.219-.922.234-.422.61-.672.374-.25.843-.39.344-.079 1.047-.172 1.422-.172 2.094-.407v-.297q0-.718-.329-1.015-.453-.39-1.343-.39-.813 0-1.22.296-.39.281-.577 1.016l-1.14-.157q.155-.734.515-1.187.36-.453 1.031-.688.672-.25 1.563-.25.89 0 1.437.204.563.203.813.53.265.313.375.798.046.297.046 1.078v1.562q0 1.625.079 2.063.078.437.296.828h-1.218q-.188-.36-.235-.86zm-.093-2.61q-.641.266-1.922.438-.72.11-1.016.25-.297.125-.469.375-.156.25-.156.547 0 .468.344.78.36.313 1.047.313.672 0 1.203-.297.531-.296.781-.812.188-.39.188-1.172zm2.975 3.469v-9.547h1.171v9.547zm2.96 0v-9.547h1.173v9.547zm2.509-2.063l1.156-.187q.11.703.547 1.078.453.36 1.25.36.812 0 1.203-.329.39-.328.39-.765 0-.39-.359-.625-.234-.157-1.187-.39-1.297-.329-1.797-.563-.485-.25-.75-.657-.25-.422-.25-.937 0-.453.203-.844.219-.406.578-.672.281-.187.75-.328.469-.14 1.016-.14.812 0 1.421.234.61.234.907.64.297.391.406 1.063l-1.14.156q-.079-.531-.454-.828-.375-.312-1.062-.312-.813 0-1.157.265-.343.266-.343.625 0 .235.14.422.157.188.453.313.172.062 1.032.296 1.25.329 1.734.547.5.203.781.61.282.406.282 1 0 .593-.344 1.11-.344.515-1 .796-.64.281-1.453.281-1.344 0-2.047-.562-.703-.563-.906-1.657zm7.898 4.875h-.828q1.937-3.125 1.937-6.265 0-1.219-.28-2.422-.22-.984-.61-1.875-.266-.594-1.047-1.953h.828q1.234 1.64 1.813 3.281.5 1.422.5 2.969 0 1.75-.672 3.39-.672 1.641-1.64 2.875zm11.891-3.671q-.656.562-1.265.796-.594.22-1.281.22-1.141 0-1.75-.548-.61-.562-.61-1.437 0-.5.219-.922.234-.422.61-.672.374-.25.843-.39.344-.079 1.047-.172 1.422-.172 2.094-.407v-.297q0-.718-.328-1.015-.454-.39-1.344-.39-.813 0-1.219.296-.39.281-.578 1.016l-1.14-.157q.156-.734.515-1.187.36-.453 1.031-.688.672-.25 1.563-.25.89 0 1.437.204.563.203.813.53.265.313.375.798.047.297.047 1.078v1.562q0 1.625.078 2.063.078.437.297.828h-1.22q-.187-.36-.234-.86zm-.093-2.61q-.64.266-1.922.438-.719.11-1.016.25-.297.125-.469.375-.156.25-.156.547 0 .468.344.78.36.313 1.047.313.672 0 1.203-.297.531-.296.781-.812.188-.39.188-1.172zm2.975 3.469v-6.906h1.062v1.047q.406-.735.735-.97.343-.234.765-.234.594 0 1.203.375l-.406 1.079q-.437-.25-.86-.25-.39 0-.702.234-.297.234-.422.64-.203.626-.203 1.36v3.625zm9.188-2.219l1.203.14q-.281 1.063-1.062 1.657-.766.578-1.969.578-1.516 0-2.406-.937-.89-.938-.89-2.61 0-1.75.89-2.703.906-.969 2.343-.969 1.391 0 2.266.938.875.937.875 2.656v.313h-5.156q.062 1.14.64 1.75.579.593 1.438.593.656 0 1.11-.328.452-.343.718-1.078zm-3.844-1.906h3.86q-.078-.86-.438-1.297-.562-.687-1.453-.687-.812 0-1.36.546-.546.532-.609 1.438zm14.756 4.125v-1.016q-.812 1.172-2.187 1.172-.61 0-1.14-.234-.532-.235-.798-.578-.25-.36-.359-.875-.062-.344-.062-1.094v-4.281h1.171v3.828q0 .922.063 1.234.11.469.469.735.359.25.89.25.516 0 .985-.266.468-.266.656-.734.187-.47.187-1.344v-3.703h1.172v6.906zm2.882 0v-6.906h1.062v.984q.75-1.14 2.188-1.14.625 0 1.156.218.531.219.781.594.266.36.375.86.063.327.063 1.14v4.25h-1.172v-4.203q0-.719-.14-1.063-.142-.359-.485-.562-.344-.219-.813-.219-.75 0-1.297.469-.547.469-.547 1.797v3.781zm11.928-.86q-.657.563-1.266.797-.594.22-1.281.22-1.14 0-1.75-.548-.61-.562-.61-1.437 0-.5.22-.922.234-.422.609-.672.375-.25.843-.39.344-.079 1.047-.172 1.422-.172 2.094-.407v-.297q0-.718-.328-1.015-.453-.39-1.344-.39-.812 0-1.219.296-.39.281-.578 1.016l-1.14-.157q.156-.734.515-1.187.36-.453 1.031-.688.672-.25 1.563-.25.89 0 1.437.204.563.203.813.53.266.313.375.798.047.297.047 1.078v1.562q0 1.625.078 2.063.078.437.297.828H613.4q-.187-.36-.234-.86zm-.094-2.609q-.64.266-1.922.438-.719.11-1.015.25-.297.125-.47.375-.155.25-.155.547 0 .468.343.78.36.313 1.047.313.672 0 1.203-.297.532-.296.782-.812.187-.39.187-1.172zm3.272 3.469v-6h-1.031v-.906h1.03v-.735q0-.703.126-1.047.172-.453.594-.734.421-.281 1.203-.281.484 0 1.093.11l-.187 1.03q-.36-.062-.688-.062-.53 0-.75.234-.218.22-.218.844v.64h1.343v.907h-1.343v6zm3.462 0v-6h-1.031v-.906h1.031v-.735q0-.703.125-1.047.172-.453.594-.734.422-.281 1.203-.281.484 0 1.094.11l-.188 1.03q-.36-.062-.687-.062-.532 0-.75.234-.22.22-.22.844v.64h1.345v.907h-1.344v6zm8.156-2.219l1.203.14q-.281 1.063-1.062 1.657-.766.578-1.969.578-1.516 0-2.406-.937-.89-.938-.89-2.61 0-1.75.89-2.703.906-.969 2.343-.969 1.391 0 2.266.938.875.937.875 2.656v.313h-5.156q.062 1.14.64 1.75.579.593 1.438.593.656 0 1.11-.328.452-.343.718-1.078zm-3.844-1.906h3.86q-.078-.86-.438-1.297-.562-.687-1.453-.687-.812 0-1.36.546-.546.532-.609 1.438zm11.038 1.594l1.156.156q-.187 1.187-.969 1.86-.78.671-1.922.671-1.406 0-2.28-.922-.86-.937-.86-2.656 0-1.125.375-1.969.375-.843 1.125-1.25.765-.422 1.656-.422 1.125 0 1.844.579.719.562.922 1.609l-1.14.172q-.173-.703-.595-1.047-.406-.36-.984-.36-.89 0-1.453.641-.547.64-.547 2 0 1.406.531 2.031.547.625 1.406.625.688 0 1.141-.421.469-.422.594-1.297zm4.71 1.484l.173 1.031q-.5.11-.891.11-.64 0-1-.203-.344-.204-.484-.532-.141-.328-.141-1.39v-3.969h-.86v-.906h.86v-1.719l1.172-.703v2.422h1.172v.906h-1.172v4.047q0 .5.047.64.062.141.203.235.14.078.406.078.203 0 .516-.047zm5.876-1.172l1.203.14q-.281 1.063-1.063 1.657-.765.578-1.968.578-1.516 0-2.407-.937-.89-.938-.89-2.61 0-1.75.89-2.703.907-.969 2.344-.969 1.39 0 2.266.938.875.937.875 2.656v.313h-5.157q.063 1.14.641 1.75.578.593 1.438.593.656 0 1.109-.328.453-.343.719-1.078zm-3.844-1.906h3.86q-.079-.86-.438-1.297-.563-.687-1.453-.687-.813 0-1.36.546-.547.532-.61 1.438zm11.006 4.125v-.875q-.656 1.031-1.937 1.031-.813 0-1.516-.453-.688-.453-1.078-1.266-.375-.828-.375-1.89 0-1.031.344-1.875.343-.844 1.03-1.281.704-.454 1.548-.454.625 0 1.11.266.5.25.796.672v-3.422h1.172v9.547zm-3.703-3.453q0 1.328.562 1.984.563.656 1.329.656.765 0 1.296-.625.532-.625.532-1.906 0-1.422-.547-2.078-.547-.672-1.344-.672-.781 0-1.312.64-.516.626-.516 2zm6.96 3.453v-1.328h1.343v1.328z"/></svg>