<?xml version="1.0" encoding="UTF-8" standalone="no"?>
<!DOCTYPE svg PUBLIC "-//W3C//DTD SVG 1.1//EN"
 "http://www.w3.org/Graphics/SVG/1.1/DTD/svg11.dtd">
<!-- Generated by graphviz version 2.43.0 (0)
 -->
<!-- Title: %3 Pages: 1 -->
<svg width="1224pt" height="224pt"
 viewBox="0.00 0.00 1224.00 224.00" xmlns="http://www.w3.org/2000/svg" xmlns:xlink="http://www.w3.org/1999/xlink">
<g id="graph0" class="graph" transform="scale(1 1) rotate(0) translate(4 220)">
<title>%3</title>
<polygon fill="white" stroke="transparent" points="-4,4 -4,-220 1220,-220 1220,4 -4,4"/>
<!-- root -->
<g id="node1" class="node">
<title>root</title>
<polygon fill="none" stroke="black" points="54,-174 0,-174 0,-138 54,-138 54,-174"/>
<text text-anchor="middle" x="27" y="-152.3" font-family="Times,serif" font-size="14.00">root</text>
</g>
<!-- core -->
<g id="node2" class="node">
<title>core</title>
<polygon fill="none" stroke="black" points="334,-174 280,-174 280,-138 334,-138 334,-174"/>
<text text-anchor="middle" x="307" y="-152.3" font-family="Times,serif" font-size="14.00">core</text>
</g>
<!-- root&#45;&gt;core -->
<g id="edge1" class="edge">
<title>root&#45;&gt;core</title>
<path fill="none" stroke="black" d="M54.15,-156C103.93,-156 212.39,-156 269.37,-156"/>
<polygon fill="black" stroke="black" points="269.71,-159.5 279.71,-156 269.71,-152.5 269.71,-159.5"/>
<text text-anchor="middle" x="167" y="-159.8" font-family="Times,serif" font-size="14.00">offers started, scope: none</text>
</g>
<!-- archivist -->
<g id="node3" class="node">
<title>archivist</title>
<polygon fill="none" stroke="black" points="1188.5,-205 1109.5,-205 1109.5,-169 1188.5,-169 1188.5,-205"/>
<text text-anchor="middle" x="1149" y="-183.3" font-family="Times,serif" font-size="14.00">archivist</text>
</g>
<!-- core&#45;&gt;archivist -->
<g id="edge2" class="edge">
<title>core&#45;&gt;archivist</title>
<path fill="none" stroke="black" d="M334.22,-165.69C340,-167.45 346.15,-169.03 352,-170 631.51,-216.46 973.77,-199.41 1099.07,-190.78"/>
<polygon fill="black" stroke="black" points="1099.39,-194.26 1109.12,-190.07 1098.9,-187.28 1099.39,-194.26"/>
<text text-anchor="middle" x="718" y="-204.8" font-family="Times,serif" font-size="14.00">offers started, scope: none</text>
</g>
<!-- test_manager -->
<g id="node4" class="node">
<title>test_manager</title>
<polygon fill="none" stroke="black" points="775,-140 661,-140 661,-104 775,-104 775,-140"/>
<text text-anchor="middle" x="718" y="-118.3" font-family="Times,serif" font-size="14.00">test_manager</text>
</g>
<!-- core&#45;&gt;test_manager -->
<g id="edge3" class="edge">
<title>core&#45;&gt;test_manager</title>
<path fill="none" stroke="black" d="M334.21,-153.82C397.25,-148.58 558.96,-135.14 650.76,-127.51"/>
<polygon fill="black" stroke="black" points="651.1,-130.99 660.78,-126.67 650.52,-124.01 651.1,-130.99"/>
<text text-anchor="middle" x="478.5" y="-154.8" font-family="Times,serif" font-size="14.00">offers started, scope: test_manager</text>
</g>
<!-- test_manager&#45;&gt;archivist -->
<g id="edge4" class="edge">
<title>test_manager&#45;&gt;archivist</title>
<path fill="none" stroke="black" d="M775.05,-130.5C792.91,-133.07 812.77,-135.8 831,-138 934.31,-150.47 962,-140.4 1064,-161 1075.57,-163.34 1087.82,-166.64 1099.28,-170.1"/>
<polygon fill="black" stroke="black" points="1098.52,-173.53 1109.11,-173.17 1100.61,-166.85 1098.52,-173.53"/>
<text text-anchor="middle" x="947.5" y="-164.8" font-family="Times,serif" font-size="14.00">offers started, scope: none</text>
</g>
<!-- tests:test&#45;12345 -->
<g id="node5" class="node">
<title>tests:test&#45;12345</title>
<polygon fill="none" stroke="black" points="1216,-144 1082,-144 1082,-108 1216,-108 1216,-144"/>
<text text-anchor="middle" x="1149" y="-122.3" font-family="Times,serif" font-size="14.00">tests:test&#45;12345</text>
</g>
<!-- test_manager&#45;&gt;tests:test&#45;12345 -->
<g id="edge5" class="edge">
<title>test_manager&#45;&gt;tests:test&#45;12345</title>
<path fill="none" stroke="black" d="M775.18,-121.6C843.46,-121.24 962.2,-121.04 1064,-123 1066.55,-123.05 1069.15,-123.11 1071.77,-123.17"/>
<polygon fill="black" stroke="black" points="1071.89,-126.67 1081.98,-123.44 1072.07,-119.68 1071.89,-126.67"/>
<text text-anchor="middle" x="947.5" y="-126.8" font-family="Times,serif" font-size="14.00">offers started, scope: test&#45;12345</text>
</g>
<!-- tests:test&#45;67890 -->
<g id="node6" class="node">
<title>tests:test&#45;67890</title>
<polygon fill="none" stroke="black" points="1216,-90 1082,-90 1082,-54 1216,-54 1216,-90"/>
<text text-anchor="middle" x="1149" y="-68.3" font-family="Times,serif" font-size="14.00">tests:test&#45;67890</text>
</g>
<!-- test_manager&#45;&gt;tests:test&#45;67890 -->
<g id="edge6" class="edge">
<title>test_manager&#45;&gt;tests:test&#45;67890</title>
<path fill="none" stroke="black" d="M775.28,-111.65C793.07,-108.6 812.82,-105.43 831,-103 913.07,-92.04 1007.59,-83.29 1071.91,-77.92"/>
<polygon fill="black" stroke="black" points="1072.29,-81.4 1081.97,-77.09 1071.72,-74.43 1072.29,-81.4"/>
<text text-anchor="middle" x="947.5" y="-106.8" font-family="Times,serif" font-size="14.00">offers started, scope: test&#45;67890</text>
</g>
<!-- tests:test&#45;abcde -->
<g id="node7" class="node">
<title>tests:test&#45;abcde</title>
<polygon fill="none" stroke="black" points="1214.5,-36 1083.5,-36 1083.5,0 1214.5,0 1214.5,-36"/>
<text text-anchor="middle" x="1149" y="-14.3" font-family="Times,serif" font-size="14.00">tests:test&#45;abcde</text>
</g>
<!-- test_manager&#45;&gt;tests:test&#45;abcde -->
<g id="edge7" class="edge">
<title>test_manager&#45;&gt;tests:test&#45;abcde</title>
<path fill="none" stroke="black" d="M744.86,-104C766.77,-89.68 799.55,-70.37 831,-60 911.07,-33.59 1007.71,-23.73 1073.07,-20.08"/>
<polygon fill="black" stroke="black" points="1073.48,-23.57 1083.29,-19.55 1073.12,-16.58 1073.48,-23.57"/>
<text text-anchor="middle" x="947.5" y="-63.8" font-family="Times,serif" font-size="14.00">offers started, scope: test&#45;abcde</text>
</g>
</g>
</svg>
