<svg xmlns="http://www.w3.org/2000/svg" width="424" height="217" viewBox="0 0 424 217"><defs><style>.a{fill:#80d186;}.a,.c,.d,.e{stroke:#000;stroke-miterlimit:10;}.b{font-size:12px;font-family:ArialMT, Arial;}.c{fill:#c5c5ff;}.d,.e{fill:none;}.d{stroke-width:2px;}.e{stroke-width:8px;}.f{letter-spacing:-0.05em;}.g{letter-spacing:-0.23em;}</style></defs><rect class="a" x="99.5" y="108.5" width="90" height="36" rx="18"/><text class="b" transform="translate(136.83 129.7)">spi</text><rect class="c" x="198.5" y="108.5" width="117" height="36"/><text class="b" transform="translate(235.66 129.7)">spi-core</text><rect class="c" x="297.5" y="180.5" width="126" height="36"/><text class="b" transform="translate(352.83 201.7)">spi</text><line class="d" x1="144.5" y1="90.5" x2="144.5" y2="101.44"/><polygon points="144.5 108.5 140.44 98.55 144.5 100.91 148.56 98.55 144.5 108.5"/><line class="e" x1="288.5" y1="198.5" x2="297.5" y2="198.5"/><line class="e" x1="189.5" y1="126.5" x2="198.5" y2="126.5"/><line class="d" x1="144.5" y1="144.5" x2="144.5" y2="173.44"/><polygon points="144.5 180.5 140.44 170.55 144.5 172.91 148.56 170.55 144.5 180.5"/><polyline class="d" points="45.5 173.44 45.5 162.5 243.5 162.5 243.5 173.44"/><polygon points="45.5 180.5 49.56 170.55 45.5 172.91 41.44 170.55 45.5 180.5"/><polygon points="243.5 180.5 239.44 170.55 243.5 172.91 247.56 170.55 243.5 180.5"/><rect class="a" x="0.5" y="180.5" width="90" height="36" rx="18"/><text class="b" transform="translate(25.82 201.7)">spi-000</text><rect class="a" x="99.5" y="180.5" width="90" height="36" rx="18"/><text class="b" transform="translate(125.1 201.7)">spi-0<tspan class="f" x="26.01" y="0">0</tspan><tspan x="32.13" y="0">1</tspan></text><rect class="a" x="198.5" y="180.5" width="90" height="36" rx="18"/><text class="b" transform="translate(223.82 201.7)">spi-002</text><rect class="a" x="99.5" y="54.5" width="90" height="36" rx="18"/><text class="b" transform="translate(124.56 75.7)">3B:0A<tspan class="g" x="32.69" y="0">.</tspan><tspan x="33.2" y="0">1</tspan></text><rect class="c" x="198.5" y="54.5" width="117" height="36"/><text class="b" transform="translate(202.31 75.7)">vendor-spi-controller</text><line class="e" x1="189.5" y1="72.5" x2="198.5" y2="72.5"/><rect class="a" x="99.5" y="0.5" width="90" height="36" rx="18"/><text class="b" transform="translate(134.16 21.7)">root</text><rect class="c" x="198.5" y="0.5" width="117" height="36"/><text class="b" transform="translate(223.65 21.7)">platform-bus</text><line class="e" x1="189.5" y1="18.5" x2="198.5" y2="18.5"/><line class="d" x1="144.5" y1="36.5" x2="144.5" y2="47.44"/><polygon points="144.5 54.5 140.44 44.55 144.5 46.91 148.56 44.55 144.5 54.5"/></svg>