<svg xmlns="http://www.w3.org/2000/svg" width="276" height="109" viewBox="0 0 276 109"><defs><style>.a{fill:#80d186;}.a,.c,.d,.e{stroke:#000;stroke-miterlimit:10;}.b{font-size:12px;font-family:ArialMT, Arial;}.c{fill:#c5c5ff;}.d,.e{fill:none;}.d{stroke-width:8px;}.e{stroke-width:2px;}</style></defs><rect class="a" x="99.5" y="0.5" width="90" height="36" rx="18"/><text class="b" transform="translate(117.49 21.7)">pci-device</text><rect class="a" x="0.5" y="0.5" width="90" height="36" rx="18"/><text class="b" transform="translate(14.14 21.7)">gpio-enable</text><rect class="a" x="50.5" y="72.5" width="90" height="36" rx="18"/><text class="b" transform="translate(75.49 93.7)">camera</text><rect class="c" x="149.5" y="72.5" width="126" height="36"/><text class="b" transform="translate(175.41 93.7)">camera-driver</text><line class="d" x1="140.5" y1="90.5" x2="149.5" y2="90.5"/><line class="e" x1="45.5" y1="36.5" x2="64.7" y2="66.55"/><polygon points="68.5 72.5 59.72 66.31 64.41 66.11 66.57 61.93 68.5 72.5"/><line class="e" x1="144.5" y1="36.5" x2="126.18" y2="66.48"/><polygon points="122.5 72.5 124.22 61.89 126.46 66.03 131.16 66.13 122.5 72.5"/></svg>